<svg id="Слой_1" data-name="Слой 1" xmlns="http://www.w3.org/2000/svg" viewBox="0 0 291.06 330.89"><defs><style>.cls-1{fill:#blue;}</style></defs><path class="cls-1" d="M19.79,246.85a3.56,3.56,0,0,1-1.19,3,5.62,5.62,0,0,1-3.58,1H11.09V237.34H19v1.39H12.65v4.34h2.08a8.54,8.54,0,0,1,2.88.41,3.27,3.27,0,0,1,1.65,1.2A3.94,3.94,0,0,1,19.79,246.85Zm-7.14,2.56h2.19a4.26,4.26,0,0,0,2.54-.6,2.28,2.28,0,0,0,.79-2,2.08,2.08,0,0,0-.8-1.85,5.25,5.25,0,0,0-2.82-.55h-1.9Z"/><path class="cls-1" d="M28.56,250.76l-.3-1.43h-.08a4.28,4.28,0,0,1-1.5,1.28,4.62,4.62,0,0,1-1.86.33,3.39,3.39,0,0,1-2.35-.77,2.82,2.82,0,0,1-.85-2.19c0-2,1.63-3.1,4.88-3.19l1.7-.06v-.62a2.54,2.54,0,0,0-.51-1.75,2.08,2.08,0,0,0-1.63-.57,6.71,6.71,0,0,0-2.84.77l-.47-1.16a7.08,7.08,0,0,1,1.63-.63,6.74,6.74,0,0,1,1.78-.23,3.84,3.84,0,0,1,2.66.79,3.34,3.34,0,0,1,.87,2.56v6.87Zm-3.44-1.08a3.08,3.08,0,0,0,2.23-.78,2.88,2.88,0,0,0,.82-2.18v-.91l-1.53.07a5.58,5.58,0,0,0-2.62.56,1.71,1.71,0,0,0-.8,1.56,1.56,1.56,0,0,0,.5,1.25A2.06,2.06,0,0,0,25.12,249.68Z"/><path class="cls-1" d="M40.32,250.76H38.78V242h-3a35,35,0,0,1-.69,5.18A7.2,7.2,0,0,1,33.93,250a2.18,2.18,0,0,1-1.78.89,2.37,2.37,0,0,1-.79-.11v-1.13a2.09,2.09,0,0,0,.46,0c.7,0,1.26-.74,1.68-2.23a36.91,36.91,0,0,0,.94-6.77h5.88Z"/><path class="cls-1" d="M50.33,242H47.07v8.75H45.54V242H42.31V240.7h8Z"/><path class="cls-1" d="M53.75,240.7v6.38l-.06,1.67,0,.52,5.44-8.57H61v10.06H59.58v-6.15l0-1.21,0-1.19-5.43,8.55h-1.9V240.7Z"/><path class="cls-1" d="M65.66,240.7v6.38l-.06,1.67,0,.52L71,240.7h1.9v10.06H71.49v-6.15l0-1.21,0-1.19-5.43,8.55h-1.9V240.7Zm2.88-1.33a3.86,3.86,0,0,1-2.48-.65,2.94,2.94,0,0,1-.87-2.17h1.43a2,2,0,0,0,.5,1.34,2.18,2.18,0,0,0,1.45.37,2.05,2.05,0,0,0,1.4-.4,2,2,0,0,0,.56-1.31H72a3,3,0,0,1-.93,2.14A3.87,3.87,0,0,1,68.54,239.37Z"/><path class="cls-1" d="M80.16,250.94a4.3,4.3,0,0,1-3.38-1.34,5.54,5.54,0,0,1-1.2-3.81,5.71,5.71,0,0,1,1.22-3.9,4.39,4.39,0,0,1,3.46-1.37,7.14,7.14,0,0,1,1.45.15,5.25,5.25,0,0,1,1.14.37l-.47,1.3a6.75,6.75,0,0,0-1.1-.34,4.84,4.84,0,0,0-1.06-.13q-3.06,0-3.06,3.91a4.64,4.64,0,0,0,.75,2.84,2.59,2.59,0,0,0,2.21,1,6.79,6.79,0,0,0,2.58-.54v1.35A5.47,5.47,0,0,1,80.16,250.94Z"/><path class="cls-1" d="M91,240.7h1.67l-4.34,4.86,4.7,5.2H91.2l-4.59-5.09v5.09H85.09V240.7h1.52v4.89Z"/><path class="cls-1" d="M96.27,240.7v6.38l-.06,1.67,0,.52,5.44-8.57h1.9v10.06H102.1v-6.15l0-1.21,0-1.19-5.43,8.55h-1.9V240.7Z"/><path class="cls-1" d="M108.18,240.7v6.38l-.06,1.67,0,.52,5.44-8.57h1.9v10.06H114v-6.15l0-1.21,0-1.19-5.43,8.55h-1.9V240.7Zm2.87-1.33a3.87,3.87,0,0,1-2.48-.65,2.94,2.94,0,0,1-.87-2.17h1.43a2.09,2.09,0,0,0,.5,1.34,2.21,2.21,0,0,0,1.46.37,2.05,2.05,0,0,0,1.4-.4,2,2,0,0,0,.55-1.31h1.44a3,3,0,0,1-.92,2.14A3.9,3.9,0,0,1,111.05,239.37Z"/><path class="cls-1" d="M129.59,242h-4.53v8.75h-1.52V240.7h6Z"/><path class="cls-1" d="M140.27,245.72a5.57,5.57,0,0,1-1.24,3.84,4.38,4.38,0,0,1-3.43,1.38,4.56,4.56,0,0,1-2.39-.63,4.17,4.17,0,0,1-1.62-1.82,6.46,6.46,0,0,1-.56-2.77,5.53,5.53,0,0,1,1.23-3.83,4.35,4.35,0,0,1,3.41-1.37,4.26,4.26,0,0,1,3.35,1.4A5.53,5.53,0,0,1,140.27,245.72Zm-7.67,0a4.82,4.82,0,0,0,.77,2.94,3.06,3.06,0,0,0,4.54,0,4.73,4.73,0,0,0,.78-2.94,4.63,4.63,0,0,0-.78-2.91,2.71,2.71,0,0,0-2.29-1,2.68,2.68,0,0,0-2.25,1A4.72,4.72,0,0,0,132.6,245.72Z"/><path class="cls-1" d="M147,250.94a4.32,4.32,0,0,1-3.38-1.34,5.54,5.54,0,0,1-1.19-3.81,5.71,5.71,0,0,1,1.21-3.9,4.4,4.4,0,0,1,3.46-1.37,7.07,7.07,0,0,1,1.45.15,4.91,4.91,0,0,1,1.14.37l-.47,1.3a6.46,6.46,0,0,0-1.1-.34,4.76,4.76,0,0,0-1-.13c-2,0-3.07,1.3-3.07,3.91a4.64,4.64,0,0,0,.75,2.84,2.61,2.61,0,0,0,2.22,1,6.83,6.83,0,0,0,2.58-.54v1.35A5.51,5.51,0,0,1,147,250.94Z"/><path class="cls-1" d="M150.28,240.7h1.64l2.2,5.74a23.16,23.16,0,0,1,.9,2.83h.07c.08-.31.25-.84.5-1.6s1.09-3.08,2.49-7h1.64l-4.32,11.45a5.65,5.65,0,0,1-1.51,2.41,3.2,3.2,0,0,1-2.1.71,6.41,6.41,0,0,1-1.38-.15V253.9a5.62,5.62,0,0,0,1.13.11,2.33,2.33,0,0,0,2.24-1.77l.56-1.43Z"/><path class="cls-1" d="M170.08,254.24h-1.47v-3.48h-7v3.48h-1.47v-4.79h.79a13.28,13.28,0,0,0,1.93-3.92,17.08,17.08,0,0,0,.72-4.83h5.09v8.75h1.44Zm-2.9-4.79V241.9h-2.26a16.54,16.54,0,0,1-.79,4.13,11.59,11.59,0,0,1-1.65,3.42Z"/><path class="cls-1" d="M178.28,250.76l-.31-1.43h-.07a4.28,4.28,0,0,1-1.5,1.28,4.64,4.64,0,0,1-1.87.33,3.38,3.38,0,0,1-2.34-.77,2.78,2.78,0,0,1-.85-2.19c0-2,1.62-3.1,4.87-3.19l1.71-.06v-.62a2.54,2.54,0,0,0-.51-1.75,2.08,2.08,0,0,0-1.63-.57,6.67,6.67,0,0,0-2.84.77l-.47-1.16a6.9,6.9,0,0,1,1.63-.63,6.72,6.72,0,0,1,1.77-.23,3.86,3.86,0,0,1,2.67.79,3.34,3.34,0,0,1,.87,2.56v6.87Zm-3.44-1.08a3.09,3.09,0,0,0,2.23-.78,2.87,2.87,0,0,0,.81-2.18v-.91l-1.52.07a5.58,5.58,0,0,0-2.62.56,1.69,1.69,0,0,0-.8,1.56,1.52,1.52,0,0,0,.5,1.25A2.06,2.06,0,0,0,174.84,249.68Z"/><path class="cls-1" d="M187.22,250.94a4.37,4.37,0,0,1-1.79-.36,3.26,3.26,0,0,1-1.36-1.12H184a14.31,14.31,0,0,1,.11,1.67v4.14h-1.53V240.7h1.24l.21,1.38h.08a3.47,3.47,0,0,1,1.36-1.19,4.09,4.09,0,0,1,1.79-.37,3.69,3.69,0,0,1,3.09,1.37,7.25,7.25,0,0,1,0,7.68A3.74,3.74,0,0,1,187.22,250.94Zm-.22-9.13a2.71,2.71,0,0,0-2.23.86,4.34,4.34,0,0,0-.7,2.71v.34a5,5,0,0,0,.7,3,2.69,2.69,0,0,0,2.27.92,2.36,2.36,0,0,0,2-1.06,5,5,0,0,0,.74-2.91,4.82,4.82,0,0,0-.74-2.88A2.42,2.42,0,0,0,187,241.81Z"/><path class="cls-1" d="M198.08,250.94a4.29,4.29,0,0,1-3.38-1.34,5.54,5.54,0,0,1-1.2-3.81,5.71,5.71,0,0,1,1.21-3.9,4.41,4.41,0,0,1,3.47-1.37,7.21,7.21,0,0,1,1.45.15,5.25,5.25,0,0,1,1.14.37l-.47,1.3a7.07,7.07,0,0,0-1.1-.34,4.84,4.84,0,0,0-1.06-.13q-3.06,0-3.06,3.91a4.71,4.71,0,0,0,.74,2.84,2.61,2.61,0,0,0,2.22,1,6.79,6.79,0,0,0,2.58-.54v1.35A5.47,5.47,0,0,1,198.08,250.94Z"/><path class="cls-1" d="M209.78,242h-3.26v8.75H205V242h-3.22V240.7h8Z"/><path class="cls-1" d="M219.93,243.23a1.93,1.93,0,0,1-.56,1.49,3.16,3.16,0,0,1-1.58.68v.08a3.31,3.31,0,0,1,1.87.75,2.12,2.12,0,0,1,.59,1.6,2.53,2.53,0,0,1-1,2.17,5.08,5.08,0,0,1-3,.76h-4.43V240.7h4.41Q219.93,240.7,219.93,243.23Zm-1.48.14a1.09,1.09,0,0,0-.57-1,3.75,3.75,0,0,0-1.71-.31H213.3v2.84h2.58a4.15,4.15,0,0,0,2-.35A1.23,1.23,0,0,0,218.45,243.37Zm.28,4.36a1.3,1.3,0,0,0-.62-1.19,4.17,4.17,0,0,0-2.05-.37H213.3v3.31h2.8C217.85,249.48,218.73,248.9,218.73,247.73Z"/><path class="cls-1" d="M226.71,250.94a4.62,4.62,0,0,1-3.52-1.36,5.24,5.24,0,0,1-1.29-3.77,5.81,5.81,0,0,1,1.2-3.86,4,4,0,0,1,3.22-1.43,3.79,3.79,0,0,1,3,1.24,4.78,4.78,0,0,1,1.1,3.28v1h-6.93a3.94,3.94,0,0,0,.9,2.68,3.09,3.09,0,0,0,2.39.92,8.16,8.16,0,0,0,3.21-.68v1.36a8.23,8.23,0,0,1-1.53.5A8.67,8.67,0,0,1,226.71,250.94Zm-.41-9.15a2.5,2.5,0,0,0-1.93.79,3.63,3.63,0,0,0-.85,2.19h5.26a3.35,3.35,0,0,0-.65-2.21A2.25,2.25,0,0,0,226.3,241.79Z"/><path class="cls-1" d="M234.53,240.7v4.21h5.63V240.7h1.53v10.06h-1.53v-4.53h-5.63v4.53H233V240.7Z"/><path class="cls-1" d="M246.44,240.7v4.21h5.63V240.7h1.53v10.06h-1.53v-4.53h-5.63v4.53h-1.52V240.7Z"/><path class="cls-1" d="M258.35,244.86h2.74a4.65,4.65,0,0,1,2.84.71,2.49,2.49,0,0,1,.92,2.12,2.74,2.74,0,0,1-1,2.29,4.56,4.56,0,0,1-2.88.78h-4.18V240.7h1.53Zm0,1.31v3.31h2.58c1.61,0,2.42-.56,2.42-1.69a1.38,1.38,0,0,0-.56-1.23,3.47,3.47,0,0,0-1.91-.39Zm9.71,4.59h-1.52V240.7h1.52Z"/><path class="cls-1" d="M272.72,240.7v6.38l-.06,1.67,0,.52,5.44-8.57H280v10.06h-1.42v-6.15l0-1.21,0-1.19-5.43,8.55h-1.9V240.7Zm2.88-1.33a3.87,3.87,0,0,1-2.48-.65,2.94,2.94,0,0,1-.87-2.17h1.43a2,2,0,0,0,.5,1.34,2.18,2.18,0,0,0,1.45.37,2.05,2.05,0,0,0,1.4-.4,2,2,0,0,0,.56-1.31H279a2.92,2.92,0,0,1-.93,2.14A3.87,3.87,0,0,1,275.6,239.37Z"/><path class="cls-1" d="M35.16,260.89H31.89v8.75H30.37v-8.75H27.14v-1.3h8Z"/><path class="cls-1" d="M41.4,269.83a4.64,4.64,0,0,1-3.52-1.36,5.26,5.26,0,0,1-1.29-3.77,5.81,5.81,0,0,1,1.2-3.86A4,4,0,0,1,41,259.4a3.79,3.79,0,0,1,3,1.25,4.73,4.73,0,0,1,1.1,3.28v1H38.17a4,4,0,0,0,.89,2.69,3.1,3.1,0,0,0,2.39.92,8.16,8.16,0,0,0,3.21-.68v1.36a9.05,9.05,0,0,1-1.53.5A8.63,8.63,0,0,1,41.4,269.83ZM41,260.68a2.48,2.48,0,0,0-1.93.79,3.66,3.66,0,0,0-.85,2.18h5.26a3.32,3.32,0,0,0-.64-2.2A2.27,2.27,0,0,0,41,260.68Z"/><path class="cls-1" d="M50.11,264.5l-3.49-4.91h1.73L51,263.44l2.64-3.85h1.72l-3.5,4.91,3.68,5.14H53.82L51,265.57l-2.84,4.07H46.43Z"/><path class="cls-1" d="M59.06,259.59v4.21h5.63v-4.21h1.52v10.05H64.69v-4.53H59.06v4.53H57.53V259.59Z"/><path class="cls-1" d="M70.87,259.59V266l-.06,1.67,0,.53,5.44-8.57h1.9v10.05H76.7V263.5l0-1.21,0-1.2-5.43,8.55h-1.9V259.59Z"/><path class="cls-1" d="M82.69,259.59v3.67c0,1.17.67,1.76,2,1.76a5,5,0,0,0,1.6-.26,7.93,7.93,0,0,0,1.72-.87v-4.3h1.53v10.05H88v-4.55a7.12,7.12,0,0,1-1.78.93,6,6,0,0,1-1.86.27,3.38,3.38,0,0,1-2.36-.78,2.77,2.77,0,0,1-.85-2.14v-3.78Z"/><path class="cls-1" d="M97,269.83a4.62,4.62,0,0,1-3.51-1.36,5.26,5.26,0,0,1-1.29-3.77,5.86,5.86,0,0,1,1.19-3.86,4,4,0,0,1,3.22-1.44,3.79,3.79,0,0,1,3,1.25,4.78,4.78,0,0,1,1.1,3.28v1H93.79a4,4,0,0,0,.9,2.69,3.09,3.09,0,0,0,2.39.92,8.16,8.16,0,0,0,3.21-.68v1.36a9.05,9.05,0,0,1-1.53.5A8.67,8.67,0,0,1,97,269.83Zm-.41-9.15a2.47,2.47,0,0,0-1.93.79,3.66,3.66,0,0,0-.85,2.18h5.26a3.37,3.37,0,0,0-.64-2.2A2.27,2.27,0,0,0,96.61,260.68Z"/><path class="cls-1" d="M107.34,269.83a4.26,4.26,0,0,1-3.38-1.35,5.5,5.5,0,0,1-1.2-3.8,5.71,5.71,0,0,1,1.21-3.9,4.38,4.38,0,0,1,3.47-1.38,7.23,7.23,0,0,1,1.45.16,4.52,4.52,0,0,1,1.13.37l-.46,1.29a7.07,7.07,0,0,0-1.1-.33,4.91,4.91,0,0,0-1.06-.14c-2,0-3.06,1.31-3.06,3.91a4.72,4.72,0,0,0,.74,2.85,2.61,2.61,0,0,0,2.22,1,6.79,6.79,0,0,0,2.58-.54v1.34A5.49,5.49,0,0,1,107.34,269.83Z"/><path class="cls-1" d="M118.13,259.59h1.67l-4.34,4.85,4.69,5.2h-1.78l-4.58-5.09v5.09h-1.53V259.59h1.53v4.89Z"/><path class="cls-1" d="M123.45,259.59V266l-.07,1.67,0,.53,5.44-8.57h1.9v10.05h-1.43V263.5l0-1.21,0-1.2-5.43,8.55H122V259.59Z"/><path class="cls-1" d="M135.36,259.59V266l-.07,1.67,0,.53,5.44-8.57h1.89v10.05h-1.42V263.5l0-1.21,0-1.2-5.44,8.55h-1.89V259.59Zm2.87-1.33a3.81,3.81,0,0,1-2.48-.66,2.93,2.93,0,0,1-.87-2.16h1.43a2,2,0,0,0,.5,1.33,2.19,2.19,0,0,0,1.46.38,2,2,0,0,0,1.39-.41,2,2,0,0,0,.56-1.3h1.44a2.88,2.88,0,0,1-.93,2.13A3.81,3.81,0,0,1,138.23,258.26Z"/><path class="cls-1" d="M149.12,259.59h1.63l2.2,5.73a20,20,0,0,1,.9,2.84h.08c.08-.31.24-.85.5-1.6s1.08-3.08,2.49-7h1.63L154.23,271a5.81,5.81,0,0,1-1.5,2.41,3.2,3.2,0,0,1-2.11.71,5.76,5.76,0,0,1-1.37-.16v-1.22a5.48,5.48,0,0,0,1.13.11,2.32,2.32,0,0,0,2.23-1.76l.56-1.43Z"/><path class="cls-1" d="M161.71,259.59v4.21h5.63v-4.21h1.52v10.05h-1.52v-4.53h-5.63v4.53h-1.53V259.59Z"/><path class="cls-1" d="M173.52,259.59V266l-.06,1.67,0,.53,5.44-8.57h1.9v10.05h-1.42V263.5l0-1.21,0-1.2L174,269.64h-1.9V259.59Z"/><path class="cls-1" d="M192.16,262.11a1.92,1.92,0,0,1-.56,1.49,3.16,3.16,0,0,1-1.59.69v.08a3.21,3.21,0,0,1,1.88.75,2.16,2.16,0,0,1,.59,1.6,2.52,2.52,0,0,1-1,2.16,5,5,0,0,1-3,.76H184V259.59h4.42Q192.16,259.59,192.16,262.11Zm-1.49.15a1.09,1.09,0,0,0-.56-1,3.64,3.64,0,0,0-1.71-.31h-2.87v2.83h2.57a4.19,4.19,0,0,0,2-.34A1.25,1.25,0,0,0,190.67,262.26Zm.29,4.36a1.29,1.29,0,0,0-.62-1.19,4.17,4.17,0,0,0-2.05-.37h-2.76v3.31h2.79C190.08,268.37,191,267.78,191,266.62Z"/><path class="cls-1" d="M198.94,269.83a4.64,4.64,0,0,1-3.52-1.36,5.26,5.26,0,0,1-1.29-3.77,5.81,5.81,0,0,1,1.2-3.86,4,4,0,0,1,3.21-1.44,3.82,3.82,0,0,1,3,1.25,4.78,4.78,0,0,1,1.1,3.28v1h-6.93a4,4,0,0,0,.89,2.69,3.12,3.12,0,0,0,2.39.92,8.17,8.17,0,0,0,3.22-.68v1.36a9.05,9.05,0,0,1-1.53.5A8.67,8.67,0,0,1,198.94,269.83Zm-.41-9.15a2.47,2.47,0,0,0-1.93.79,3.54,3.54,0,0,0-.85,2.18H201a3.32,3.32,0,0,0-.64-2.2A2.26,2.26,0,0,0,198.53,260.68Z"/><path class="cls-1" d="M209.91,269.83a4.22,4.22,0,0,1-1.79-.37,3.32,3.32,0,0,1-1.36-1.11h-.11a14.17,14.17,0,0,1,.11,1.67v4.14h-1.53V259.59h1.24l.21,1.37h.08a3.55,3.55,0,0,1,1.36-1.19,4.24,4.24,0,0,1,1.79-.37,3.71,3.71,0,0,1,3.09,1.37,6.05,6.05,0,0,1,1.09,3.84,6,6,0,0,1-1.11,3.85A3.74,3.74,0,0,1,209.91,269.83Zm-.22-9.13a2.69,2.69,0,0,0-2.23.85,4.39,4.39,0,0,0-.7,2.72v.34a5,5,0,0,0,.7,3,2.69,2.69,0,0,0,2.27.91,2.35,2.35,0,0,0,2-1.05,5.05,5.05,0,0,0,.74-2.91,4.84,4.84,0,0,0-.74-2.89A2.42,2.42,0,0,0,209.69,260.7Z"/><path class="cls-1" d="M220.77,269.83a4.26,4.26,0,0,1-3.38-1.35,5.5,5.5,0,0,1-1.2-3.8,5.71,5.71,0,0,1,1.21-3.9,4.38,4.38,0,0,1,3.47-1.38,7.23,7.23,0,0,1,1.45.16,4.76,4.76,0,0,1,1.14.37l-.47,1.29a7.07,7.07,0,0,0-1.1-.33,4.91,4.91,0,0,0-1.06-.14c-2,0-3.06,1.31-3.06,3.91a4.72,4.72,0,0,0,.74,2.85,2.61,2.61,0,0,0,2.22,1,6.79,6.79,0,0,0,2.58-.54v1.34A5.46,5.46,0,0,1,220.77,269.83Z"/><path class="cls-1" d="M227.12,259.59V266l-.06,1.67,0,.53,5.44-8.57h1.9v10.05H233V263.5l0-1.21,0-1.2-5.43,8.55h-1.9V259.59Z"/><path class="cls-1" d="M244.38,260.89h-3.26v8.75h-1.53v-8.75h-3.23v-1.3h8Z"/><path class="cls-1" d="M250.62,269.83a4.65,4.65,0,0,1-3.52-1.36,5.26,5.26,0,0,1-1.29-3.77,5.81,5.81,0,0,1,1.2-3.86,4,4,0,0,1,3.22-1.44,3.8,3.8,0,0,1,3,1.25,4.78,4.78,0,0,1,1.1,3.28v1h-6.93a4,4,0,0,0,.9,2.69,3.09,3.09,0,0,0,2.39.92,8.16,8.16,0,0,0,3.21-.68v1.36a9.05,9.05,0,0,1-1.53.5A8.67,8.67,0,0,1,250.62,269.83Zm-.41-9.15a2.47,2.47,0,0,0-1.93.79,3.6,3.6,0,0,0-.85,2.18h5.26a3.32,3.32,0,0,0-.65-2.2A2.25,2.25,0,0,0,250.21,260.68Z"/><path class="cls-1" d="M263.7,260.89h-3.27v8.75h-1.52v-8.75h-3.23v-1.3h8Z"/><path class="cls-1" d="M66.57,290.76,71.24,285l2.76,1.5-3.52,4.39L74,295.29l-2.76,1.5-4.67-5.71Zm6.37,0L77.6,285l2.77,1.5-3.51,4.39,3.51,4.38-2.77,1.5-4.66-5.71Z"/><path class="cls-1" d="M83.72,279.56h5.73c2.62,0,4.51.37,5.69,1.11a3.9,3.9,0,0,1,1.77,3.55,4.53,4.53,0,0,1-.77,2.71,3.13,3.13,0,0,1-2.06,1.27v.12a4.07,4.07,0,0,1,2.52,1.47,5.31,5.31,0,0,1-1,6.77,7.91,7.91,0,0,1-5,1.41H83.72Zm3.91,7.29h2.26a4.12,4.12,0,0,0,2.3-.49,1.83,1.83,0,0,0,.71-1.63,1.6,1.6,0,0,0-.77-1.51,4.94,4.94,0,0,0-2.45-.46H87.63Zm0,3.1v4.8h2.54a3.77,3.77,0,0,0,2.38-.62,2.28,2.28,0,0,0,.77-1.89c0-1.53-1.09-2.29-3.27-2.29Z"/><path class="cls-1" d="M117.77,288.74q0,4.58-2.27,7a9.82,9.82,0,0,1-13,0q-2.27-2.46-2.26-7c0-3.07.75-5.41,2.27-7a8.52,8.52,0,0,1,6.52-2.42,8.37,8.37,0,0,1,6.49,2.44Q117.77,284.15,117.77,288.74Zm-13.44,0a7.7,7.7,0,0,0,1.17,4.65A4.1,4.1,0,0,0,109,295q4.68,0,4.68-6.21T109,282.52a4.12,4.12,0,0,0-3.52,1.57A7.63,7.63,0,0,0,104.33,288.74Z"/><path class="cls-1" d="M132.19,298h-10.6V279.56h10.6v3.2h-6.7v4h6.24V290h-6.24v4.75h6.7Z"/><path class="cls-1" d="M151.12,298h-3.89V290h-7.29V298H136V279.56h3.91v7.22h7.29v-7.22h3.89Z"/><path class="cls-1" d="M163.57,298l-4.44-14.44H159c.16,2.93.24,4.9.24,5.88V298h-3.49V279.56h5.32l4.35,14.08h.08l4.62-14.08h5.32V298h-3.64v-8.71c0-.41,0-.89,0-1.43s.07-2,.17-4.28h-.12L167.15,298Z"/><path class="cls-1" d="M190.7,298H180.09V279.56H190.7v3.2H184v4h6.23V290H184v4.75h6.7Z"/><path class="cls-1" d="M209.43,298H205l-4.28-7-4.28,7h-4.19l6.11-9.49-5.72-8.92h4.31l4,6.62,3.89-6.62H209l-5.78,9.13Z"/><path class="cls-1" d="M217.89,291.08l-4.67,5.71-2.76-1.5,3.5-4.38-3.5-4.39,2.76-1.5,4.67,5.74Zm6.38,0-4.68,5.71-2.75-1.5,3.5-4.38-3.5-4.39,2.75-1.5,4.68,5.74Z"/><path class="cls-1" d="M60.07,310.38v4.05c0,.43-.07,1.48-.21,3.14l4.73-7.19H68v10.26H65.25v-4.1c0-.72.07-1.75.19-3.08l-4.72,7.18H57.36V310.38Z"/><path class="cls-1" d="M83.83,320.64H81.21v-8.09l-.15.57a24.32,24.32,0,0,1-.89,2.93l-1.81,4.59h-2L74.52,316a24.76,24.76,0,0,1-.84-2.83l-.18-.63v8.09H70.9V310.38h3.85l1.76,4.38a12,12,0,0,1,.51,1.62,13.27,13.27,0,0,1,.32,1.57c.2-.92.36-1.58.47-2a10.87,10.87,0,0,1,.37-1.1L80,310.38h3.82Z"/><path class="cls-1" d="M86.37,319.32a1.51,1.51,0,0,1,.41-1.16,1.69,1.69,0,0,1,1.2-.4,1.63,1.63,0,0,1,1.18.41,1.52,1.52,0,0,1,.42,1.15,1.55,1.55,0,0,1-.42,1.15,1.94,1.94,0,0,1-2.37,0A1.56,1.56,0,0,1,86.37,319.32Z"/><path class="cls-1" d="M95.62,318.27h1a30.91,30.91,0,0,0,2.1-5.32,35.63,35.63,0,0,0,1.15-5.73h7.82v11h1.79v6.27h-2.75v-3.9h-8.4v3.9H95.62Zm6.55-8.68a33.34,33.34,0,0,1-1,4.45,31.72,31.72,0,0,1-1.54,4.23h5.24v-8.68Z"/><path class="cls-1" d="M111,319.32a1.51,1.51,0,0,1,.42-1.16,1.67,1.67,0,0,1,1.2-.4,1.63,1.63,0,0,1,1.18.41,1.77,1.77,0,0,1,0,2.3,1.62,1.62,0,0,1-1.17.41,1.65,1.65,0,0,1-1.19-.4A1.56,1.56,0,0,1,111,319.32Z"/><path class="cls-1" d="M122.05,320.82v-2.06h-.2a6.82,6.82,0,0,1-3-.61,4.61,4.61,0,0,1-2-1.8,5.24,5.24,0,0,1-.08-5.23,4.6,4.6,0,0,1,1.89-1.79,6.26,6.26,0,0,1,2.92-.65h.49V307h2.56v1.65h.48a6.19,6.19,0,0,1,2.91.65,4.57,4.57,0,0,1,1.9,1.79,5,5,0,0,1,.66,2.56,4.93,4.93,0,0,1-.74,2.67,4.58,4.58,0,0,1-2,1.8,6.85,6.85,0,0,1-3,.61h-.2v2.06Zm0-9.92h-.38a2.94,2.94,0,0,0-2.13.75,2.69,2.69,0,0,0-.78,2,2.78,2.78,0,0,0,.83,2.11,3.22,3.22,0,0,0,2.33.79h.13Zm2.56,5.66h.13a3.3,3.3,0,0,0,2.31-.77,2.76,2.76,0,0,0,.84-2.13,2.65,2.65,0,0,0-.78-2,2.91,2.91,0,0,0-2.13-.76h-.37Z"/><path class="cls-1" d="M132.48,319.32a1.55,1.55,0,0,1,.41-1.16,1.71,1.71,0,0,1,1.21-.4,1.6,1.6,0,0,1,1.17.41,1.52,1.52,0,0,1,.42,1.15,1.55,1.55,0,0,1-.42,1.15,1.62,1.62,0,0,1-1.17.41,1.66,1.66,0,0,1-1.2-.4A1.56,1.56,0,0,1,132.48,319.32Z"/><path class="cls-1" d="M153.91,307.22l-4.14,9.49a10.22,10.22,0,0,1-1.47,2.57,4.14,4.14,0,0,1-1.62,1.16,6.09,6.09,0,0,1-2.27.38,8.09,8.09,0,0,1-2.14-.27V318.1a5.35,5.35,0,0,0,2,.33,2,2,0,0,0,1.23-.35,2.58,2.58,0,0,0,.78-1.22l-4.64-9.64h3l3.3,7.48h.09l.17-.46,2.77-7Z"/><path class="cls-1" d="M159.55,320.82c-3.2,0-4.79-1.75-4.79-5.26a5.59,5.59,0,0,1,1.3-4,4.88,4.88,0,0,1,3.73-1.38,7.23,7.23,0,0,1,3.2.69l-.83,2.17c-.44-.18-.85-.32-1.23-.44a4.09,4.09,0,0,0-1.14-.17c-1.45,0-2.18,1-2.18,3.1s.73,3,2.18,3a5.13,5.13,0,0,0,1.5-.21,5.52,5.52,0,0,0,1.38-.68v2.4a4.23,4.23,0,0,1-1.38.59A7.62,7.62,0,0,1,159.55,320.82Z"/><path class="cls-1" d="M173.53,310.38v2.1h-3.36v8.16h-2.8v-8.16H164v-2.1Z"/><path class="cls-1" d="M178.14,310.38v4.05c0,.43-.07,1.48-.21,3.14l4.74-7.19H186v10.26h-2.7v-4.1c0-.72.06-1.75.18-3.08l-4.71,7.18h-3.36V310.38Z"/><path class="cls-1" d="M191.77,310.38v3.94h3.91v-3.94h2.8v10.26h-2.8v-4.23h-3.91v4.23H189V310.38Z"/><path class="cls-1" d="M210.73,315.49a5.52,5.52,0,0,1-1.32,3.92,4.78,4.78,0,0,1-3.68,1.41,5.15,5.15,0,0,1-2.6-.65,4.38,4.38,0,0,1-1.74-1.85,6.31,6.31,0,0,1-.6-2.83,5.5,5.5,0,0,1,1.31-3.91,4.8,4.8,0,0,1,3.69-1.39,5.14,5.14,0,0,1,2.6.64,4.3,4.3,0,0,1,1.74,1.84A6.23,6.23,0,0,1,210.73,315.49Zm-7.09,0a4.34,4.34,0,0,0,.5,2.3,1.79,1.79,0,0,0,1.63.78,1.77,1.77,0,0,0,1.61-.77,4.36,4.36,0,0,0,.49-2.31,4.26,4.26,0,0,0-.49-2.29,1.82,1.82,0,0,0-1.63-.76,1.8,1.8,0,0,0-1.61.76A4.25,4.25,0,0,0,203.64,315.49Z"/><path class="cls-1" d="M222.51,313.07a2.07,2.07,0,0,1-.51,1.41,2.58,2.58,0,0,1-1.53.74v.08a2.87,2.87,0,0,1,1.73.74,2.09,2.09,0,0,1,.64,1.53,2.58,2.58,0,0,1-1.18,2.28,6,6,0,0,1-3.36.79h-5.25V310.38h5.25a5.91,5.91,0,0,1,3.16.68A2.26,2.26,0,0,1,222.51,313.07Zm-2.83.22c0-.63-.5-.94-1.49-.94h-2.35v2h2a2.8,2.8,0,0,0,1.35-.26A.87.87,0,0,0,219.68,313.29Zm.26,4.14a.94.94,0,0,0-.47-.88,2.88,2.88,0,0,0-1.41-.27h-2.22v2.42h2.28a2.32,2.32,0,0,0,1.35-.33A1.11,1.11,0,0,0,219.94,317.43Z"/><path class="cls-1" d="M231.57,320.64l-.54-1.4H231a4.17,4.17,0,0,1-1.46,1.24,4.71,4.71,0,0,1-1.95.34,3.15,3.15,0,0,1-2.32-.84,3.25,3.25,0,0,1-.85-2.41,2.71,2.71,0,0,1,1.14-2.41,6.63,6.63,0,0,1,3.44-.85l1.78-.06v-.45a1.39,1.39,0,0,0-1.59-1.56,7.33,7.33,0,0,0-2.89.74l-.93-1.89a8.43,8.43,0,0,1,3.93-.92,4.88,4.88,0,0,1,3.16.9,3.3,3.3,0,0,1,1.1,2.73v6.84Zm-.83-4.76-1.08,0a3.47,3.47,0,0,0-1.81.44,1.38,1.38,0,0,0-.6,1.23c0,.79.45,1.18,1.36,1.18a2.13,2.13,0,0,0,1.55-.56,1.94,1.94,0,0,0,.58-1.48Z"/><path class="cls-1" d="M143.86,13.55c-.69,1.07.77,7.82,1.16,8.83.71-1.69,1.77-7.76,1.23-8.84A1.35,1.35,0,0,0,143.86,13.55Z"/><path class="cls-1" d="M91.89,114.27c-2.29-.12-6.15,2.75-6.28,5C87.93,119.37,91.79,116.56,91.89,114.27Z"/><path class="cls-1" d="M109.68,57.65c-.73.62-.71,1-.73,1.93l1.84-1.06Z"/><path class="cls-1" d="M180.69,57.65c.73.62.71,1,.74,1.93l-1.85-1.06Z"/><polygon class="cls-1" points="143.75 12.02 146.28 12.02 146 10.16 147.86 10.45 147.86 7.92 146 8.21 146.28 6.35 143.75 6.35 144.04 8.21 142.18 7.92 142.18 10.45 144.04 10.16 143.75 12.02"/><path class="cls-1" d="M131.29,27.77c2.57,3.81,2.14,2.56,2.33,7.36h22.75c.18-4.8-.24-3.55,2.32-7.36s2.82-4.33,3.35-6a9.24,9.24,0,0,0-3.27-8.83,16.31,16.31,0,0,0-9.58-2.53c-1.49,3.43-3.16,14.81-4.2,18-1-3.2-2.7-14.58-4.2-18-3.09-.13-7.07.69-9.57,2.53A9.22,9.22,0,0,0,128,21.74C128.47,23.44,128.75,24,131.29,27.77Zm-1.12-3.41c-.95-1.81-1.13-1.83-.07-2.85.43.77.72,1.35,1.24,2.21C130.73,24.4,131,24.29,130.17,24.36Zm29.65,0c-.85-.07-.57,0-1.18-.64.52-.86.82-1.44,1.25-2.21C160.94,22.53,160.76,22.55,159.82,24.36Zm1-5.6.23,1.39C160.34,19.47,160.28,19.34,160.83,18.76Zm-.65-1.64c-1.6-1.07-1.28-.53-1.38-2.14A2.1,2.1,0,0,1,160.18,17.12Zm-.75,2.11-1.29,2c-.64-.91-1-1.33-1.39-2l1.28-2Zm-8.69,2-1.46-1.93,1.32-2,1.45,1.88Zm-.75,5.4a12.75,12.75,0,0,0,.54-1.2l.53.93A10.49,10.49,0,0,1,150,26.65Zm2.44-5.17,1.46,1.94a13.87,13.87,0,0,1-1.43,2l-1.3-1.89Zm.56-2.17,1.32-2,1.43,1.89-1.28,2Zm3.13,2.19,1.48,1.93c-.53,1.32-.69,1.18-2,1.32l-.7-1.27Zm2-7.5-.77-.1a3.22,3.22,0,0,1-.4-.85C157.72,13.25,157.89,13.42,158.12,14Zm-.57,1.52-1.31,2a16.63,16.63,0,0,1-1.32-1.94l1.31-1.64Zm-3.91-3.88a3.44,3.44,0,0,1,2,.69l-1.17,1.14c-.64-1-1.07-1.34-1.43-1.91Zm.24,3.85-1.44,1.74a14.92,14.92,0,0,1-1.22-1.68l1.26-1.62Zm-3.51-4.22c.42.54.72.72,1.22,1.34a12.94,12.94,0,0,0-1.6,1C150.1,12.64,150.22,12.23,150.37,11.27Zm-1.08,4.4a5.75,5.75,0,0,1,.19-1l.62.66L149,17.31C149.11,16.69,149,17.31,149.29,15.67Zm-.6,5.81c.59.82.94,1.26,1.45,2l-1.39,2a11.59,11.59,0,0,1-1.25-2Zm-1.81,4.28,1.45,1.87L146,29.47ZM145,31.69h0c4.32-2.15,4.13-1.82,9-1.34A3.27,3.27,0,0,0,152.33,29a3.31,3.31,0,0,1,1.89-.68,7.86,7.86,0,0,0,2-.37,3.92,3.92,0,0,0-1.71-.8c1-1.07,2.94-1.25,4.34-1.38-.58,1.24-2.93,3.57-3.6,5s.11,2.1-2,2.1H136.78c-2.14,0-1.44-.77-2-2.1s-3-3.8-3.61-5c1.41.13,3.37.31,4.34,1.38a4,4,0,0,0-1.71.8,7.94,7.94,0,0,0,2,.37,3.28,3.28,0,0,1,1.89.68A3.35,3.35,0,0,0,136,30.35c4.86-.48,4.66-.81,9,1.34Zm-5.75-10.44-1.31-2,1.45-1.88,1.32,2Zm.22,4.2a10.62,10.62,0,0,0,.54,1.2c-1.24-.3-1.08-.27-1.08-.27Zm-.64-1.95-1.29,1.89a13.17,13.17,0,0,1-1.44-2l1.47-1.94Zm-3.29-2.26-1.28-2,1.42-1.89,1.32,2Zm-.41,2.24-.7,1.27c-1.34-.14-1.5,0-2-1.32l1.48-1.93Zm8.84,6-2.31-1.84,1.45-1.87Zm-1.47-6a12.24,12.24,0,0,1-1.25,2l-1.4-2c.51-.73.86-1.17,1.46-2Zm-2-8.77a4.87,4.87,0,0,1,.2,1c.26,1.64.18,1,.26,1.64l-1.08-1.95Zm-.89-3.43c.15,1,.27,1.37.39,2.38a13.07,13.07,0,0,0-1.61-1C138.9,12,139.2,11.81,139.61,11.27Zm-.85,4.28a16.28,16.28,0,0,1-1.21,1.68l-1.45-1.74,1.41-1.56Zm-2.42-3.91.65-.08c-.36.57-.79.95-1.43,1.91l-1.16-1.14A3.41,3.41,0,0,1,136.34,11.64Zm-1.28,3.91a16.53,16.53,0,0,1-1.31,1.94l-1.32-2,1.32-1.61Zm-1.93-2.61a3.13,3.13,0,0,1-.5,1l-.9.1A2,2,0,0,1,133.13,12.94ZM132,17.26l1.28,2c-.38.64-.75,1.06-1.39,2l-1.29-2ZM131.19,15c-.11,1.61.21,1.07-1.39,2.14A2.09,2.09,0,0,1,131.19,15Zm-2,3.78c.54.58.49.71-.24,1.39Z"/><path class="cls-1" d="M171.39,199.63a3.07,3.07,0,0,0-1.44.3l.33.74a2.37,2.37,0,0,1,.9-.24.35.35,0,0,1,.4.4v0H171a2.05,2.05,0,0,0-1,.29.88.88,0,0,0-.37.78,1.09,1.09,0,0,0,.27.78,1,1,0,0,0,.72.27,1.49,1.49,0,0,0,.61-.1,1.27,1.27,0,0,0,.47-.39h0l.22.43h.78v-2.14a1.12,1.12,0,0,0-.35-.87A1.43,1.43,0,0,0,171.39,199.63Zm.2,2.12a.43.43,0,0,1-.15.34.52.52,0,0,1-.35.13c-.21,0-.32-.1-.32-.3s.19-.4.56-.41h.26Z"/><path class="cls-1" d="M168.42,201.27v0a.78.78,0,0,0,.46-.23.71.71,0,0,0,.16-.48.68.68,0,0,0-.35-.63,2.11,2.11,0,0,0-1.06-.21h-1.78V203h1.77c1,0,1.52-.31,1.52-.93a.72.72,0,0,0-.18-.51A.8.8,0,0,0,168.42,201.27Zm-1.45-.84h.64c.21,0,.31.08.31.26a.21.21,0,0,1-.08.16.41.41,0,0,1-.27.07H167Zm.62,1.79H167v-.59h.63a.61.61,0,0,1,.3.06.25.25,0,0,1,.1.22C168,202.12,167.86,202.22,167.59,202.22Z"/><path class="cls-1" d="M141.13,201.92a.65.65,0,0,0-.45.14.53.53,0,0,0-.16.41.52.52,0,0,0,.17.41.6.6,0,0,0,.44.14.61.61,0,0,0,.44-.14.55.55,0,0,0,.16-.41.57.57,0,0,0-.16-.41A.64.64,0,0,0,141.13,201.92Z"/><path class="cls-1" d="M133.07,198.74h-2.81a8.45,8.45,0,0,1-.31,1.8,6.93,6.93,0,0,1-.62,1.48H129v2.24h1.11V203h2.45v1.31h1.11V202h-.58ZM131.93,202h-1.4a7,7,0,0,0,.65-2.35h.75Z"/><path class="cls-1" d="M134.62,201.92a.68.68,0,0,0-.46.14.57.57,0,0,0-.16.41.52.52,0,0,0,.17.41.64.64,0,0,0,.45.14.6.6,0,0,0,.43-.14.55.55,0,0,0,.16-.41.53.53,0,0,0-.16-.41A.62.62,0,0,0,134.62,201.92Z"/><path class="cls-1" d="M139.45,199.4a2.18,2.18,0,0,0-.95-.2h-.08v-.52h-1.1v.52h-.1a2.06,2.06,0,0,0-.93.19,1.38,1.38,0,0,0-.62.55,1.63,1.63,0,0,0-.22.83,1.69,1.69,0,0,0,.21.86,1.43,1.43,0,0,0,.62.54,2.27,2.27,0,0,0,1,.19h0V203h1.1v-.65h0a2.27,2.27,0,0,0,1-.19,1.44,1.44,0,0,0,.63-.56,1.57,1.57,0,0,0,.21-.83,1.5,1.5,0,0,0-.22-.82A1.41,1.41,0,0,0,139.45,199.4Zm-2.13,2.1h0a.69.69,0,0,1-.53-.17.74.74,0,0,1-.18-.56.63.63,0,0,1,.7-.7h.06Zm1.68-.18a.73.73,0,0,1-.54.18h0v-1.43h.05a.71.71,0,0,1,.52.18.69.69,0,0,1,.19.52A.73.73,0,0,1,139,201.32Z"/><polygon class="cls-1" points="160.18 200.87 159.29 200.87 159.29 199.69 158.17 199.69 158.17 202.95 159.29 202.95 159.29 201.7 160.18 201.7 160.18 202.95 161.31 202.95 161.31 199.69 160.18 199.69 160.18 200.87"/><path class="cls-1" d="M160.57,190.28v4.93h2.79V184h-4.05l-2.3,8H157l-2.34-8h-4v11.23h2.68v-4.88q0-1.14-.15-3.21h.06l2.3,8.09h2.89l2.27-8.08h.06c-.06,1.22-.09,2-.1,2.3S160.57,190,160.57,190.28Z"/><path class="cls-1" d="M154.84,201.69c0-.63,0-1,0-1v-1h-1V203h1.25l1.3-2c0,.42,0,.79,0,1.1V203h1v-3.26h-1.25Z"/><polygon class="cls-1" points="150.07 200.53 151.15 200.53 151.15 202.95 152.27 202.95 152.27 200.53 153.35 200.53 153.35 199.69 150.07 199.69 150.07 200.53"/><path class="cls-1" d="M133.56,179.91a3.2,3.2,0,0,0,1.21-2.7,2.93,2.93,0,0,0-1.23-2.58,6.25,6.25,0,0,0-3.58-.85h-.44v-1.72h4.34v-2.44h-7.39v11.23h3.6A5.56,5.56,0,0,0,133.56,179.91Zm-4-1.4v-2.44h.39a2.57,2.57,0,0,1,1.36.29,1,1,0,0,1,.44.91,1.09,1.09,0,0,1-.42.93,2.31,2.31,0,0,1-1.37.31Z"/><path class="cls-1" d="M148.72,200.52a1.12,1.12,0,0,1,.36,0c.11,0,.24.08.37.14l.33-.83a2.3,2.3,0,0,0-1.06-.25,1.56,1.56,0,0,0-1.72,1.71,1.75,1.75,0,0,0,.41,1.24,1.61,1.61,0,0,0,1.22.43,1.79,1.79,0,0,0,1-.29v-.89a1.76,1.76,0,0,1-.95.29c-.39,0-.58-.27-.58-.79a1,1,0,0,1,.15-.6A.49.49,0,0,1,148.72,200.52Z"/><path class="cls-1" d="M145.28,199.91c-.13.35-.22.66-.29.92h0c0-.05,0-.12,0-.19s-.05-.15-.08-.22l-.08-.21-.07-.18-.52-1.29h-1.23l1.38,3a.56.56,0,0,1-.2.28.49.49,0,0,1-.3.09,1.92,1.92,0,0,1-.69-.11v.91a3.36,3.36,0,0,0,.74.08,2.3,2.3,0,0,0,.79-.12,1.3,1.3,0,0,0,.55-.38,3.14,3.14,0,0,0,.47-.81l1.28-3h-1.23Z"/><polygon class="cls-1" points="141.56 183.98 138.51 183.98 138.51 195.21 141.56 195.21 141.56 190.63 145.09 190.63 145.09 195.21 148.14 195.21 148.14 183.98 145.09 183.98 145.09 188.14 141.56 188.14 141.56 183.98"/><polygon class="cls-1" points="139.69 172.08 144.13 172.08 144.13 169.62 136.65 169.62 136.65 180.85 139.69 180.85 139.69 172.08"/><polygon class="cls-1" points="147.98 180.85 151.01 180.85 151.01 172.11 153.75 172.11 153.75 169.62 145.23 169.62 145.23 172.11 147.98 172.11 147.98 180.85"/><path class="cls-1" d="M157.46,178.43a1.39,1.39,0,0,1-.8.22,5,5,0,0,1-1.83-.28v2.41a7.53,7.53,0,0,0,2,.23,6.12,6.12,0,0,0,2.11-.32,3.63,3.63,0,0,0,1.47-1,8.4,8.4,0,0,0,1.25-2.17l3.41-7.89h-3.27l-1.14,3.13a24.47,24.47,0,0,0-.78,2.44h-.11c0-.14-.08-.31-.14-.5s-.13-.39-.2-.59-.15-.39-.22-.57-.14-.35-.19-.48l-1.38-3.43h-3.27l3.66,8A1.5,1.5,0,0,1,157.46,178.43Z"/><path class="cls-1" d="M164.43,199.84a1.64,1.64,0,0,0-.84-.21,1.62,1.62,0,0,0-1.21.44,1.71,1.71,0,0,0-.43,1.25,1.66,1.66,0,0,0,.44,1.23,1.53,1.53,0,0,0,1.18.46,1.58,1.58,0,0,0,1.2-.45,1.69,1.69,0,0,0,.43-1.24,1.87,1.87,0,0,0-.2-.9A1.33,1.33,0,0,0,164.43,199.84ZM164,202a.38.38,0,0,1-.37.22.39.39,0,0,1-.38-.22,1.5,1.5,0,0,1-.11-.64,1.45,1.45,0,0,1,.11-.63.39.39,0,0,1,.37-.21.39.39,0,0,1,.38.21,1.48,1.48,0,0,1,.11.63A1.5,1.5,0,0,1,164,202Z"/><polygon class="cls-1" points="129.88 195.21 136.55 195.21 136.55 192.74 132.92 192.74 132.92 190.61 136.28 190.61 136.28 188.18 132.92 188.18 132.92 186.41 136.55 186.41 136.55 183.98 129.88 183.98 129.88 195.21"/><polygon class="cls-1" points="176.66 195.21 178.82 191.7 181.01 195.21 184.52 195.21 180.7 189.7 184.25 183.98 180.79 183.98 178.84 187.45 176.81 183.98 173.45 183.98 176.95 189.46 173.23 195.21 176.66 195.21"/><path class="cls-1" d="M123.94,200.66l-.11.38c-.12.42-.19.68-.2.77,0-.12-.07-.34-.16-.66s-.15-.55-.2-.7l-.25-.76h-1.54V203h1v-2.43l.06.21c.12.44.24.83.36,1.18l.33,1H124c.28-.85.46-1.4.54-1.66s.15-.53.21-.77V203h1v-3.26h-1.51Z"/><path class="cls-1" d="M127,201.92a.68.68,0,0,0-.46.14.57.57,0,0,0-.16.41.52.52,0,0,0,.17.41.64.64,0,0,0,.45.14.6.6,0,0,0,.43-.14.55.55,0,0,0,.16-.41.53.53,0,0,0-.16-.41A.62.62,0,0,0,127,201.92Z"/><path class="cls-1" d="M122.39,195.36a5.36,5.36,0,0,0,4.08-1.47,7.38,7.38,0,0,0,0-8.62,5.3,5.3,0,0,0-4.06-1.47,5.36,5.36,0,0,0-4.07,1.48,7.26,7.26,0,0,0,0,8.6A5.32,5.32,0,0,0,122.39,195.36Zm0-9.07a1.94,1.94,0,0,1,1.69.8,4.43,4.43,0,0,1,.56,2.49,4.26,4.26,0,0,1-.56,2.46,1.94,1.94,0,0,1-1.71.79c-1.51,0-2.26-1.08-2.26-3.25S120.89,186.29,122.41,186.29Z"/><polygon class="cls-1" points="172.45 192.74 168.81 192.74 168.81 190.61 172.18 190.61 172.18 188.18 168.81 188.18 168.81 186.41 172.45 186.41 172.45 183.98 165.78 183.98 165.78 195.21 172.45 195.21 172.45 192.74"/><path class="cls-1" d="M118.15,201.69c0-.63,0-1,0-1v-1h-1V203h1.25l1.3-2c0,.42,0,.79,0,1.1V203h1v-3.26h-1.24Z"/><path class="cls-1" d="M114.25,194.33a2.87,2.87,0,0,0,1.15-2.41,2.81,2.81,0,0,0-.47-1.68,2.65,2.65,0,0,0-1.51-.92v-.07a2.2,2.2,0,0,0,1.27-.86,2.73,2.73,0,0,0,.49-1.62,2.3,2.3,0,0,0-1.12-2.12,6.66,6.66,0,0,0-3.39-.67h-3.92v11.23h4.37A5.06,5.06,0,0,0,114.25,194.33Zm-4.47-8.06h.86c1,0,1.42.32,1.42.95a.93.93,0,0,1-.35.8,1.66,1.66,0,0,1-1,.27h-.92Zm0,6.59V190.5h1a1.74,1.74,0,0,1,1.1.3,1,1,0,0,1,.38.87c0,.8-.47,1.19-1.42,1.19Z"/><path class="cls-1" d="M133.81,120.44a1.27,1.27,0,0,0,.2-1.62l-.2.18a.32.32,0,0,1-.43,0h0a.28.28,0,0,1,0-.41l.19-.19a1.42,1.42,0,0,0-1.69.19,1.26,1.26,0,0,0,0,1.85A1.41,1.41,0,0,0,133.81,120.44Z"/><path class="cls-1" d="M158.5,120.45a1.28,1.28,0,0,0,0-1.85,1.41,1.41,0,0,0-1.65-.21l.07.07a.34.34,0,0,1,0,.49.38.38,0,0,1-.51,0l-.07-.07a1.27,1.27,0,0,0,.22,1.57A1.42,1.42,0,0,0,158.5,120.45Z"/><path class="cls-1" d="M130.39,127.69a17.4,17.4,0,0,0,2.37.15c1.12,0,2.24-.08,3.33-.16s2.11-.14,3.12-.14a9.31,9.31,0,0,1,5.82,1.61,5.82,5.82,0,0,1,3.47-1.49l1.34,0c.63,0,1.46,0,2.41.09,1.21.06,2.59.13,3.94.13,2.84,0,4.8-.39,5.85-1.16,2.18-2.06,1.52-3.82,1.52-6.61,0-4.35-.28-23.68-.28-35.21l-36.43,0c0,22.39-.14,33.05-.14,34.05C126.71,123.61,126.7,127.32,130.39,127.69Zm16.5-39.39c.26-.26.49-.19.67.11a.32.32,0,0,1,.22.12c.07.11-.11.2-.1.31s.46.07.19.29c.11-.21-.36,0-.33-.25,0,.23.27.39-.07.49.11-.22-.17-.38-.07-.51.24-.28,0-.45-.26-.5.1.41.06.76-.5.71C147.41,89,146.74,88.48,146.89,88.3ZM145,87.42l.12,0,0-.11h.11l0,.11.12,0v.11l-.12,0,0,.11h-.11l0-.11-.12,0Zm-2.66,1.47c.46,0,.11-.13.14-.36.31-.18.54-.62.9-.23.14.18-.52.67.24.77-.55.05-.59-.3-.49-.71-.31,0-.5.22-.26.5.1.13-.19.29-.07.51-.34-.1,0-.26-.07-.49,0,.29-.44,0-.34.25A.16.16,0,0,1,142.34,88.89Zm-11.43,30a2.25,2.25,0,0,1,2-1.37,2,2,0,0,1,1,.28c.09-.1.23-.23.42-.41.16-.51,1.4-1.79,6.76-6.75,1.26-1.16,2.54-2.35,2.95-2.78L133.76,98c-.29.47-.75,1.83.24,4,0,0,0,0,0-.07a.28.28,0,0,1,.26-.21h0a.27.27,0,0,1,.27.19,2.37,2.37,0,0,0,.86,1.44l.28.25a.27.27,0,0,1,0,.32.28.28,0,0,1-.24.14h-.08l-.66-.17c-.55-.13-1.11-.26-1.58-.42a.28.28,0,0,1-.18-.23.26.26,0,0,1,.15-.26l.09-.05a5.91,5.91,0,0,1-1.38-5.31,3.69,3.69,0,0,0-.19-2.33.26.26,0,0,1,0-.33.3.3,0,0,1,.2-.08.23.23,0,0,1,.14,0,2.44,2.44,0,0,0,1.23.27c.37,0,.78,0,1.22-.09a15.47,15.47,0,0,1,1.57-.11,6,6,0,0,1,4,1.43l0-.09a.27.27,0,0,1,.24-.14h0a.3.3,0,0,1,.24.18c.16.45.3,1,.44,1.5.06.22.12.44.17.64a.26.26,0,0,1-.13.3.23.23,0,0,1-.14,0,.27.27,0,0,1-.19-.08l-.26-.26a2.56,2.56,0,0,0-1.51-.82.29.29,0,0,1-.2-.27.26.26,0,0,1,.22-.25l.07,0a6.78,6.78,0,0,0-2.57-.57,3.34,3.34,0,0,0-1.6.34l9.4,9a.85.85,0,0,1,.17-.44,1.86,1.86,0,0,1-.2-1.28,2.79,2.79,0,0,0,0-.49.26.26,0,0,1,.16-.44,3.61,3.61,0,0,1-.17-2.64,5,5,0,0,0-.18-3.22.26.26,0,0,1,0-.24.19.19,0,0,1,.08-.07h.92c-.61,0-.81-1.22-.44-1.67-.19,0-.26-.22-.35-.2-.29.25-.51-.14-.45-.28-.11.11,0,.29-.19.31.23-.1-.43-.37.12-.59-.13,0-.31-.25,0-.33-.23.49.72-.21.94-.29-.13,0-.17,0-.27.07.63-.48-.16-1.1-.3-.45,0,.18.43.06.2.17a.38.38,0,0,1-.18.06c.33.47-.8.14-1.15.59.12.21,0,.47-.08.18-.12,0-.3-.09-.32-.21s-.17-.35,0-.42a0,0,0,0,1,0,0c-.11,0-.12-.3-.2-.3l.15-.07c-.05.06.18.25.12.34l0,0c.14-.27.18.1.37.15s.73-.08.62-.39c0,0,0,.07-.13.12a.19.19,0,0,0,0-.13s-.13.15-.19.16.1-.22,0-.25-.26.16-.31,0c.29,0,0-.31.17-.49.41-.44.23,0,.6-.31,0,0,.14-.55-.11-.69,0-.21-.09.17-.26,0,.16.64-.55.7-.3,0,0,0-.05,0-.07,0-.08.76-.55.68-.41.17-.31.53-.7.2-.13-.44-.2.18-.37.56-.69.5.12.38.61.83.54,1.2-.4-.28-.47-1.09-.77-1.47,0,0,0,0-.05,0a0,0,0,0,1,0,0s-.07,0-.17,0,.06-.13.07,0,.07-.17,0-.1-.25-.1-.25-.22c-.15-.06.11,0,.16,0s-.06.08.06,0-.07-.11-.1-.09-.09,0,0,0c-.16-.08.25-.25.36-.27-.76,0-.49-.43.1-.38-1-.09-.74-.39-.18-.36-.46-.19-.85-.55-.05-.38-.65-.38-.36-.59.08-.4a.58.58,0,0,1-.34-.77c.28.26.62.52.89.76-.33-.44-1-.71-.56-1.41a10,10,0,0,0,.73,1.17.3.3,0,0,1,.08-.17,4.14,4.14,0,0,0,.3.5.22.22,0,0,1,0-.11c.37.58.86.6.54,1s.34.48.52.26c-.14-.06-.23-.23-.1-.35,0,.23.49,0,.48-.07a.22.22,0,0,1-.33-.14c.63.17.29-.61.05-.81-.17,0-.47-.09-.5.17-.19-.07.1-.34.29-.25-.23-.14-.84.45-.88-.07.15.28.55-.09.76,0a.4.4,0,0,0-.5,0,.26.26,0,0,1,.24-.43c0-.1.12-.13.21-.14h-.07c0-.19-.25-.5.11-.55h.06v0s0,0,0,0h0c-.26-.17.28-.17,0,0h0v0s.05,0,.05,0h.06c.28,0,.25.34.09.49v0a2,2,0,0,0,.61-.32h-.06v-.1c-.24-.24-.3-.74.14-.77h0l.1,0c0,.1.1.1.08,0h.07c-.41-.27.45-.27,0,0h.06s0,.08.05.08v-.08l.1,0h0c.57.07.23.56.16.87h-.06a2,2,0,0,0,.61.32v0c-.16-.15-.19-.47.09-.49h.06s0,0,.05,0v0h.05c-.26-.17.28-.17,0,0h0s0,0,0,0v0h.06c.36,0,.16.36.11.55h-.09c.05,0,.11,0,.14,0s.09.06.07.12a.26.26,0,0,1,.27.42.42.42,0,0,0-.51,0h0c.21-.08.61.29.76,0,0,.52-.65-.07-.88.07.19-.09.48.18.29.25a.26.26,0,0,0-.19-.2c-.47-.16-1,1-.28.84a.22.22,0,0,1-.32.14c.08.16.47.26.48.07.13.12,0,.29-.12.36.18.21.8.06.52-.27s.17-.44.54-1a.22.22,0,0,1,.05.11,4.14,4.14,0,0,0,.3-.5.38.38,0,0,1,.08.17,10,10,0,0,0,.73-1.17c.42.7-.23,1-.56,1.41.27-.24.61-.5.89-.76.17.66-.32.7-.66,1,1-.61.9-.13.38.2.56-.13.58.19-.05.38.58,0,.84.27-.17.36.6,0,.87.41.11.38.58.14.35.43-.14.29.59.28.13.53-.22.27.52.49,0,.5-.31.17.24.45-.08.76-.4,0-.2-.31.3.47,0,.59s-.31-.35-.39-.59c0,0,0,0-.06,0,.24.65-.47.59-.3,0-.17.12-.25-.26-.26,0-.23.16-.1.65-.1.69.37.28.19-.13.6.31.13.18-.12.48.17.49-.06.18-.24.08-.31,0-.08.08-.07.17,0,.27s-.15-.11-.19-.16a.19.19,0,0,0,0,.13.26.26,0,0,1-.12-.11c0,.32.55.51.84.39,0-.3,0-.73.47-.79h-.05l.05-.14-.16,0v-.13l.16,0-.05-.14h.15l0,.14.16,0v.13l-.16,0,0,.14h0c.88.26.29,1.13-.38,1.16-.37-.37-1.74-.1-1.33-.73-.06.13-.22.1-.3,0-.23-.11.2,0,.2-.17-.15-.66-.91,0-.3.45-.11-.09-.15,0-.29-.08.22.09,1.18.79.95.3.33.08.14.35,0,.33.55.22-.1.49.13.59-.17,0-.08-.2-.2-.31a.28.28,0,0,1-.49.26.32.32,0,0,1-.3.22c.37.45.17,1.69-.44,1.67h1s0,0,.08.07a.28.28,0,0,1,0,.24,5,5,0,0,0-.18,3.22,3.61,3.61,0,0,1-.17,2.64.26.26,0,0,1,.16.44,2.79,2.79,0,0,0,0,.49,1.86,1.86,0,0,1-.2,1.28.79.79,0,0,1,.17.46l1.86-1.7c2.09-1.92,6.78-5.7,6.9-6.76a3.31,3.31,0,0,0-2.23,1,.2.2,0,0,0,0,.24.26.26,0,0,1-.05.37L151,100.13a.27.27,0,0,1-.17.06.33.33,0,0,1-.16,0,.27.27,0,0,1-.11-.3l.61-1.94a.27.27,0,0,1,.27-.19h0a.26.26,0,0,1,.23.13,6.52,6.52,0,0,0,.76-.52,8.13,8.13,0,0,1,1.16-.78h-.26a3.24,3.24,0,0,0-2.19.73.11.11,0,0,0,0,.12.26.26,0,0,1,0,.23.31.31,0,0,1-.17.17,4,4,0,0,0-1.61.94.26.26,0,0,1-.22.1l-.11,0a.26.26,0,0,1-.16-.29,5.73,5.73,0,0,1,.72-1.67l.24-.44a.26.26,0,0,1,.24-.14h0a.27.27,0,0,1,.24.12.43.43,0,0,0,0,.07,4.59,4.59,0,0,1,3-1.31,2.82,2.82,0,0,1,2.81,2.36,3.27,3.27,0,0,1,2.55,2.3,2.62,2.62,0,0,1-1.34,2.68l0,0a.26.26,0,0,1-.06.49l-2,.58h-.08a.27.27,0,0,1-.23-.12.24.24,0,0,1,0-.31l1.13-1.34h0l.05-.06a.32.32,0,0,1,.22-.1.27.27,0,0,1,.17.06.24.24,0,0,0,.14.06c.09,0,.27-.16.43-.6a3.09,3.09,0,0,0,.16-.83,7.36,7.36,0,0,1-.71.78,4.33,4.33,0,0,0-.49.55.06.06,0,0,1,0,.09,5.31,5.31,0,0,1-2,.79l-.24,0h0a.27.27,0,0,1-.26-.16.26.26,0,0,1,.09-.32c.48-.34,1-.79,1.12-1.19a.29.29,0,0,1,.14-.17.23.23,0,0,1,.14,0h.08l.16,0c.49,0,1-.65,1-1.16a2.49,2.49,0,0,0-.07-.9,4.3,4.3,0,0,0-1,.53c-.62.59-7.72,7.31-9,8.53L155,116c.2-.17.4-.33.6-.47a.27.27,0,0,1,.17-.06.28.28,0,0,1,.22.1l.32.4a11.69,11.69,0,0,1,2-1.1l.11,0a.29.29,0,0,1,.26.16l.3.62a.3.3,0,0,1,0,.21.31.31,0,0,1-.15.15,9.63,9.63,0,0,0-2.54,1.57l.16.15a2,2,0,0,1,1-.26,2.23,2.23,0,0,1,2,1.38,1.8,1.8,0,0,1-.48,2.09,2,2,0,0,1-1.41.59,2.33,2.33,0,0,1-2-1.2,1.76,1.76,0,0,1,.05-1.79l-.16-.15a9.45,9.45,0,0,0-1.64,2.43.28.28,0,0,1-.16.14l-.1,0a.27.27,0,0,1-.12,0l-.65-.28a.28.28,0,0,1-.14-.35,10.63,10.63,0,0,1,1.15-2l-.41-.31a.24.24,0,0,1-.05-.37c.15-.19.32-.38.49-.57l-8.05-7.71c.33,3.29.21,5.4-.1,6.24h0a.28.28,0,0,1,.27.21.24.24,0,0,1-.13.28,2.36,2.36,0,0,0,0,.62,1.86,1.86,0,0,1-.07,1.13.72.72,0,0,1,.14.48.76.76,0,0,1-.26.54l.09.34a4.48,4.48,0,0,1,.27,1.87,1.24,1.24,0,0,1-.23.61.66.66,0,0,1,.1.7.81.81,0,0,1-.77.41.82.82,0,0,1-.78-.41.66.66,0,0,1,.11-.71c-.5-.67-.2-1.69,0-2.45,0-.13.07-.25.1-.36a.73.73,0,0,1-.27-.54.77.77,0,0,1,.13-.48,1.94,1.94,0,0,1-.06-1.13,2.34,2.34,0,0,0,0-.62.25.25,0,0,1-.13-.28.28.28,0,0,1,.27-.21h.06c-.32-.86-.46-3-.1-6.34l0,0-.06.07-.05,0c-.58.56-1.49,1.45-2.37,2.33-4.72,4.67-6.34,6.16-6.91,6.33l-.42.4a1.76,1.76,0,0,1,.08,1.8,2.31,2.31,0,0,1-2,1.24,2,2,0,0,1-1.42-.61A1.8,1.8,0,0,1,130.91,118.86Z"/><path class="cls-1" d="M219.52,106.2a95.85,95.85,0,0,1-3.82-11.88c-.84-3.21-1.42-7.46-2.37-11.71h0a33.32,33.32,0,0,0-3.91-11.17c-4.14-6.07-12.57-9.1-18.92-4.46-4.9,3.71-9.45,0-14.15,4.66-3,3-4.4,6.46-6.83,7.3-1.87.65-2,.27-3.18-1-2.32-2.34-4-11.52.28-13.79,2.16-1.14,5.86-1.37,8.26-1.25,2.93.22,7-1.33,7,2.79,3.8-3.9,7.41-6.3,5.31-11.82.06-1.43.57-5.8-3.6-7.29-1-.73-.4-.9-1.1-1.61-.49-.5-.52-.13-1.13-.86-3.79-4.52-3.9-3.23-7.94-3.73-2.91-.36-3.28-1.92-6.94-2.11-6.6-.34-10.71,1.34-17.43-.94.46,2.84,4,4.06,5.19,5.83-.87.7-6,2.24-6.78,5.89,1.83,0,3.84-.39,5.53.41-5,2.49-5.45,4.22-7.77,8.26-2.32-4-2.79-5.77-7.78-8.26,1.7-.8,3.71-.45,5.54-.41-.8-3.65-5.91-5.19-6.79-5.89,1.21-1.77,4.74-3,5.2-5.83-6.73,2.28-10.83.6-17.43.94-3.66.19-4,1.75-6.94,2.11-4,.5-4.15-.79-7.94,3.73-.61.73-.64.36-1.13.86-.71.71-.11.88-1.11,1.61-4.16,1.49-3.66,5.86-3.59,7.29-2.1,5.52,1.51,7.92,5.31,11.82,0-4.12,4.06-2.57,7-2.79,2.4-.12,6.1.11,8.26,1.25,4.3,2.27,2.6,11.45.28,13.79-1.23,1.24-1.31,1.62-3.18,1-2.43-.84-3.82-4.33-6.83-7.3-4.7-4.62-9.26-1-14.15-4.66-6.77-4.94-16-1.23-19.67,5.68a43.46,43.46,0,0,0-2.88,11h0c-.75,3.6-1.26,7.3-2.08,10.83-2,8.68-2.47,8-4,12.39l4.27-2c-.09,10.83,0,21.69,0,32.53,0,5.89.85,8.24,2.69,13.59S79.85,160,80,165.68l1.28-1.42c-5.36,31.23,33.85,57.2,63.94,57.42,29.91,0,69.09-24.22,64.37-57.55.68.47.68.86,1.42,1.56.46-6.08-.31-8.65,1.73-14.75,1.81-5.45,2.67-7.56,2.66-13.55,0-6.53-.32-27.72,0-32.52ZM187,102.68c1.16,1.87,1.83,2.69,5.78,5.24a16.94,16.94,0,0,0,2.33-4.3l.32,5-.61.14a9.44,9.44,0,0,0-4.72,14.51s-1-.56-3-1.63ZM94.71,170.14c3.85,11.63,26.84,8.86,35.89-10.35l29.12.12c4.12,6.44,2.39,4.59,7.88,10.39,8.13,8.59,28.46,10,28.6-3.58a9.8,9.8,0,0,0-.23-2.58c.44-1,1.84-3.38,2.2-4.34,6.18,6,4.29,16.41.34,23.1A65.64,65.64,0,0,1,183.92,199c-20.66,15.73-47.37,17.75-70,5.13-11.9-6.64-26.15-20.65-25.51-35.71.48-11.57,14-16.77,14.86-8.2-3.26-.28-5.39-.81-7.72,1.92C93.87,164.15,93.92,167.77,94.71,170.14Zm100.49-7.66a15.13,15.13,0,0,1-1.21-4.27,33.61,33.61,0,0,1-2.66,3.59c-2.88,3.84-8.41,7.34-14.07,5.11-5.24-2.06-10.36-8.86-11.82-14.28,9.57-4.15,11.64-9.67,18.19-18.39.6.77.88,1.07,1.31,1.55l2.08.79c-.42,1.71-11.43,14.69-10.91,19.18a4.58,4.58,0,0,0,1.22,3.2c3.58,4.07,12,.85,14.53-2.32a10.91,10.91,0,0,1-4-1.14c.58-.54,9-4.56,10.83-4.9C198.72,150.6,196.66,160.59,195.2,162.48Zm-85-9.55c4-1.48,4.45-1.58,7.34-4.57,3,.1,4.7,1.64,6.39,3.88,0,5-2.34,8.33-6.15,11.79Zm6.14,12.32a12.12,12.12,0,0,1-8.61,3.59c5.24-1.8,5.25-5.82,5.47-8.27ZM105.71,100.1c.81,1.91,1.76,4.56,3.69,6.32l3.85-2.42c.49,4.43.08,11.44.08,16.15,0,4.2.35,12.69-.07,17-2.47-2.58-5.34-6.1-7.53-8.89Zm17.19,7.65a3.13,3.13,0,0,1,1.29-1.31v17s-.23,5.09,3.84,6.05a16,16,0,0,1-5.08,7.12Zm22-24.39h19.93a6.72,6.72,0,0,1,.1.7V123c-.18,5.42-2.91,6.56-12.74,6.15a22.93,22.93,0,0,0-3,.11,11,11,0,0,0-4,1.76c-.4-.19-3-2-5.27-2.09-1.92,0-4.58.26-6.57.26-3.71,0-7.26-1.13-7.73-5,0,.07,0-.68-.06-1.09V83.45a.37.37,0,0,0,0-.09ZM129.64,82a12.54,12.54,0,0,1,3-3.15L131.92,82Zm4.08,0,1.87-3a5,5,0,0,1,1.35,2.84c1.83-.59,3.13-2.66,4.17-4l.88-1.45L145.21,81l3.22-4.62.88,1.45c1,1.39,2.33,3.46,4.17,4A5,5,0,0,1,154.83,79l1.87,3h-8c-1.16,0-2.32,0-3.44,0s-2.28,0-3.44,0Zm24-3.15a12.21,12.21,0,0,1,3,3.15H158.5Zm20.72,39.68,2.87,1.73-4,5.43c-.58-.53-1.71-1.68-2.7-2.65A28.86,28.86,0,0,1,178.45,118.51Zm18.69,11.6,2.33,2.4a30.7,30.7,0,0,1-3.71,6.07c-2.06-.65-6.65-2.68-9.89-4.16-1.49-1.43-5.52-5.62-7.42-7.73a30.9,30.9,0,0,1,4.26-5.67C186.64,122.76,194.46,127.18,197.14,130.11Zm5.07-18.36c5.92,4.12,2.28,14.36-4.78,13.33a24.31,24.31,0,0,1,4-5,4.48,4.48,0,0,0-7.45-5c-.79,1.07-1.06,3.34-3.08,5.63C187.37,116.31,194.86,106.18,202.21,111.75Zm3.25,10.79a7.94,7.94,0,0,1,0,.85l-.06,29.71c-6.16-3.9-7.28-7-7.72-12l3.33,1.42,4.19-6.59c-.28-.34-.95-1.09-1.25-1.41-1.83-1.79-4.79-4.72-6.16-6l-2-1.51c5.08-.06,7.31-1.54,9.48-4.2ZM194.89,150.3l-11,5.31,5.24,1.95c-3.52,1.7-6.47,2.62-9.31,1.31C180.17,156,185.93,147,194.89,150.3Zm-16.5,7.17c-1-3.05,1.18-6.17,2-7.62.31-.53,1.18-1.94,2.26-3.66l5.72,1.87a5.89,5.89,0,0,0,.59.21C185,148.73,180.92,150.86,178.39,157.47Zm8.18-17.31c.76-1.14,1.45-2.15,2-2.87,1.39.57,4,1.66,6.4,2.7l-.06,7.85C187.85,146.52,186.86,141.83,186.57,140.16Zm10.57-.73,3.6-5.7,2.68,2.23a46.77,46.77,0,0,1-3,4.9Zm-2.06-13.76a30.64,30.64,0,0,1-3.84-2.47c1-1.7,3.83-7.34,6.3-5.44C200.06,119.28,196.47,124.09,195.08,125.67Zm-12.68,7.15a34,34,0,0,1-3.64,5.47l-.15.17c-1.24-2.16-.9-7.84-.94-10.34C179.3,129.68,181,131.23,182.4,132.82Zm-12.86,10.5-2-.06c.12-3.4,3.25-5.41,5.78-3.13,3.3,3,0,4.48-1.46,6.46C173.07,144.07,171.78,141.1,169.54,143.32Zm-3.43,0-1.63-.07c-.14-.83-.14-1.79-1.26-1.81-.9,0-1.23.64-1.14,1.81l-2.62,0C158.25,136.51,167.61,136.85,166.11,143.29Zm-6.22-12.48c-8,2.75-4.2,5.75-8.24,7a10,10,0,0,1-1.57.25l-.85-7.45c2.56-.8,6.35.35,12.12-.8C161.15,130.48,161.23,130.39,159.89,130.81Zm-2.34,12.39H155.5c-.12-1.59-.51-1.75-1.27-1.76-1.3,0-1.55,1.5-1.58,1.75-.2,0-.7,0-1.77,0C149.75,136.24,158.81,136.72,157.55,143.2Zm-9.8,0h-5.11l.88-11.84a11.15,11.15,0,0,1,1.69.65,7.89,7.89,0,0,1,1.89-.73Zm-12.4-9.61c-1.84-2.26-4.31-1.85-6-3.15-.21-.16-.28-.69-.2-.67a10.63,10.63,0,0,1,1.21.33c3.14.92,8.19-.78,11,.54l-1.24,7.8C136.47,138.06,136.13,134.53,135.35,133.55Zm3,9.68-1.77,0c-.17-1.12-.28-1.83-1.58-1.79s-1.17,1-1.37,1.87l-2,0C130.59,136.67,139.16,136.14,138.31,143.23Zm-20.93,3.52a3.88,3.88,0,0,1-1.5-6.66c2.53-2.22,5.71-.13,5.73,3.31-1.13,0-1.59.28-2.18-.4a1.36,1.36,0,0,0-1.86,0C116.24,143.92,117.07,145.57,117.38,146.75Zm12.33-3.6a7.57,7.57,0,0,1-2.23,0c0-.89.08-1.71-1.28-1.72s-1.55,1.14-1.73,1.82H123C121.44,137.14,130.83,136.31,129.71,143.15Zm-9.37-5.33h0a20.05,20.05,0,0,0-2.72-.05,4.26,4.26,0,0,0-.82.24,6.53,6.53,0,0,0-1.36.52l0-36.71a36.58,36.58,0,0,0,3.83,8l1.65-1c.54,3.1.19,11.38.19,15C121.14,126.92,121.17,135.4,120.34,137.82Zm-18.07-14.11c-.53-1.36-.53-2.14-1.71-2.25-.74-.08-2.67-3.35-3.27-4.4-1.19-1.63-.07-3.3-1.28-4.64-.06-2.24-.2-6.44-.08-8.61l2,4.15c2.16-.69,4.5-2.92,5.8-4.51l0,22.23C102.84,124.48,102.27,123.71,102.27,123.71Zm-1.67,18.8c.2,3.36-1.68,4.73-3.33,5.18-.41,0-.82.08-1.21.14V136.28C97.51,138.14,99.12,140.33,100.6,142.51ZM92,128.61l-4.65-5.4c4.1-1.12,5.88-3.51,8.44-6.32l3.89,5.76C98.91,125.11,94.73,128.45,92,128.61Zm.15-16.25c6.65-1.24.07,8.33-6,9.42C79.7,123,86,113.52,92.14,112.36Zm.08-1.14a13.09,13.09,0,0,0-1.51.21,12.31,12.31,0,0,0-5.14,3c0-4.18-.65-11.57-.44-15.25l2.37,5.36a17.77,17.77,0,0,0,5.76-4.47v11.11A6.14,6.14,0,0,0,92.22,111.22Zm-6.56,12.37.12,0c1.39.58,3.48,3.84,4.42,5.48.1,1.81.71,1.89,1.86,2.3.27.27.7.75,1.23,1.39.34,3.25-.21,10.05-1.1,12.53a13.62,13.62,0,0,1-2.46,4.16A22.55,22.55,0,0,1,85.59,153l0-29A1.19,1.19,0,0,1,85.66,123.59Zm8,6.91a13,13,0,0,0,7.54-5.79c4.16,5.4,8.06,10.45,12.47,15.51-.91,3-.77,4.39,1.1,7a10.82,10.82,0,0,1-6.13,3.36C105,146,97.69,135.33,93.63,130.5Zm26.43,15.92.09-1.89h4.3a4,4,0,0,0,2.89,2.69V144.5h6.29a5.73,5.73,0,0,1-.88,3c2.17.06,3.31-1.84,3.72-3h16.25c.77,1.79,1.41,2.75,3.71,3.1l-.93-3.09h6.65l-.32,2.72c1.52-.31,2.14-1.23,2.66-2.74l5.16.06c0,3-1.71,3.4-3,4.23-1.78,1.15-4.43.67-6.57.67H131.38C125.6,149.46,124.64,150.07,120.06,146.42Zm85.31-34.11a9.31,9.31,0,0,0-7.62-4v-8.23c1.46,1.08,1.63,2.4,5.74,4.47l1.88-3.37,0,10.49a9.09,9.09,0,0,1,.15.91ZM178,116.88l-.34.35V104a11.53,11.53,0,0,0,4.07,2.29,21.5,21.5,0,0,0,3.62-6.14v20.48C183.47,119.68,181,118.41,178,116.88Zm-2.39,2.62c-1,1.1-1.93,2.29-2.88,3.41a38.17,38.17,0,0,0,2.86,3.18l-.05,14c-2.43-2.34-2.49-1.56-5-2.58-.68-2.18-.38-24.43-.36-28.54.66.43.76.44,1.47.88a19.6,19.6,0,0,0,3.8-8.51C175.88,103.26,175.65,117.16,175.61,119.5Zm-7.51,17.18-.32-.15c-2.25-1.08-5-4.36-5.37-7,3.49-1.44,3.79-4.92,3.89-6a1.21,1.21,0,0,0,0-.19V106.23s0,0,0-.08a9.35,9.35,0,0,1,1.79,1.65C168.12,115.21,168.32,129.39,168.1,136.68Zm-.47-75.24c-1.1.36-1.71,1.08-2.93.56-.37-3.14,1.92-2.55,6-2.53,2.05,0,5.7-.12,7.21,1.3C175.08,62.25,170.64,60.35,167.63,61.44Zm17.94-5.91c.61,3.38-.54,4.52-3.21,7.15-2.4-3.4-4.86-3.86-9-4.34,2.58-2,6.64-4.37,10.2-4.2C184.93,54.1,185.32,54.13,185.57,55.53ZM182,48.42c1.76.13,3.34,1.92,2.84,3.56-4.44.19-3.71-.29-7.27,2.36-1.62,1.21-4.11,3.39-6.32,3.09C171.23,56,176.7,52.12,178,51S180.11,48.27,182,48.42Zm-73.66,0c1.93-.15,2.86,1.5,4.06,2.56s6.75,5,6.68,6.45c-2.2.3-4.7-1.88-6.32-3.09-3.55-2.65-2.82-2.17-7.26-2.36C105,50.34,106.62,48.55,108.38,48.42Zm-.32,14.26c-2.68-2.63-3.82-3.77-3.21-7.15.25-1.4.63-1.43,2-1.39,3.57-.17,7.63,2.19,10.21,4.2C112.91,58.82,110.46,59.28,108.06,62.68ZM125.72,62c-1.22.52-1.83-.2-2.93-.56-3-1.09-7.45.81-10.25-.67,1.51-1.42,5.16-1.29,7.21-1.3C123.8,59.45,126.09,58.86,125.72,62Zm2.43,2c-1.71-2.9,1.85-1.31.19-4.13-2.74-4.73-12.28-1.92-7.13-7.35.93.1,1.87.55,2.37-.52-1.33-.11-2.28-.71-3.23-.54-.78,1.14-.11,1-1.33,2.1a4.77,4.77,0,0,1-2.43-1.22c1.14-.78,1.65-.33,1.82-1.53-.11-1.36-1-1-.79-2.59,3.88-1.43,3.18,2.86,7.33.71-.63-.66-1.54-.54-3.17-1.08-1.47-.49-1.48-.92-2.54-1.46-3.64,1.42-5.19,1.93-9.33.93,5.3-8.26,5.51-2.38,11.64-5.77,2.73-1.75,4.67-1.2,7.85-1.18,2.64,0,5.89-.23,8.33-.15-2.68,3.07-7.75,2.94-10.3,5.68,5.47-1.86,6.41-2.86,12.9,1.2-3.46,2.65-8.44-.1-10.27-.15,10.07,4.48,13.13,11,15.15,21.68,2-10.65,5.08-17.2,15.15-21.68-1.83.05-6.81,2.8-10.27.15,6.49-4.06,7.43-3.06,12.9-1.2-2.55-2.74-7.63-2.61-10.3-5.68,2.43-.08,5.69.17,8.33.15,3.18,0,5.12-.57,7.84,1.18,6.14,3.39,6.35-2.49,11.64,5.77-4.14,1-5.68.49-9.32-.93-1.07.54-1.07,1-2.54,1.46-1.63.54-2.54.42-3.18,1.08,4.16,2.15,3.46-2.14,7.34-.71.16,1.59-.77,1.31-.68,2.66.07,1,.57.68,1.71,1.46a4.81,4.81,0,0,1-2.43,1.22c-1.22-1.14-.55-1-1.33-2.1-.95-.17-1.9.43-3.23.54.49,1.07,1.44.62,2.36.52,5.15,5.43-4.38,2.62-7.12,7.35-1.66,2.82,1.9,1.23.18,4.13-2.45,5.5-1.29,14.18,3.89,17.74-9.49,0-12.68-13.5-6.15-21.68-1.72.51-3.23,1.86-4.91,2.17a12.83,12.83,0,0,1,.14-5.13c-2.07,1.6-1.93,6.37-1.79,8.8.89-.84,1.92-2.57,3.09-2.65-.18,2.31-3.05,15.05-4.18,16.41-4.86-4.56-2-11.57-2-17.39-2.9,3-1.14,12.69-5.15,16.74-4-4-2.25-13.76-5.15-16.74,0,5.82,2.87,12.83-2,17.39-1.13-1.36-4-14.1-4.18-16.41,1.17.08,2.2,1.81,3.09,2.65.14-2.43.27-7.2-1.79-8.8a13,13,0,0,1,.14,5.13c-1.68-.31-3.19-1.66-4.91-2.17,6.53,8.18,3.34,21.67-6.15,21.68C129.45,78.17,130.6,69.49,128.15,64ZM75,103.12c3.22-7.35,3.93-16.41,5.77-23.91h0a21.51,21.51,0,0,1,1.43-4.76c3.47-6.7,11.11-9.35,17-4.53,3.43,2.51,6.73,1.33,10.17,2.21,7.54,2.74,5,9.71,14.81,10.28v18.76a9.83,9.83,0,0,1-4.25,6c-3.47-4.51-2.53-11.48-2.8-16.81-1.12,4.47-2.66,11.74-7.32,13.72-3.38-5.52-2.43-10.2-2.42-16.3-.57,1.62-1.81,6.88-3.09,10.12-1,2.59-2.92,6.07-5.3,7.43-1.71-1.73-2.33-7.6-2.28-10,.11-5,.82-9.08.72-11.26-1.44,4.41-4.33,16.38-9,17.89-1.61-2.45-1.61-6.86-1.35-9.76s1.37-6.74,1.5-9.4C86.85,88.42,81.11,101.29,75,103.12ZM77.88,133c0-7-.3-23.65.06-29.41,3.11-2.91,1.41-.91,5.2-5,.13,6.2.11,12.47.06,18.75a8,8,0,0,0-.65,1.75,2.66,2.66,0,0,0,.62,3c0,7.52-.08,15,.15,22.41.12,4,.72,10.4-1,13.8C80.56,145.59,77.88,148,77.88,133Zm67.31,87c-28.23,0-61.74-23.33-62.47-48.69-.34-11.62,4.12-21.52,16.47-21.49,14.52,1.11,16,21.76,1.6,17,1.65,5.33,17.32,7.6,26.15-13.34h36.58l1.15,2.28,0,0c8.11,18,24.73,14.85,25.63,10.36a8.08,8.08,0,0,1-2.1,1,16,16,0,0,1-1.83.37c3-1.09,5.51-3.82,6.84-5.55,1.68,2.33,2,3.58,1.18,6.66-1.91,7.48-10.7,7.18-16.73,5.28a26.22,26.22,0,0,1-13.94-10.81c-.79-1.21-2.46-4.33-3.15-5.14H129.8c-1.2,1.62-2.27,4-3.62,5.89a26.13,26.13,0,0,1-17,11c-14.27,2.35-14.92-9.67-11.61-12.33,2.06-1.66,4.86-1.13,7.19-.51,1.68-11.66-13.34-9.45-17,1-3.16,8.9.56,18.46,6,25.53a65.13,65.13,0,0,0,42.78,25.07c17.92,2.6,37.64-3,51-15.41,6-5.54,11.77-11.46,14.64-19.29,2.32-6.34,2.71-14.91-1.91-19.94-1-1-1.18-1.16-1.52-1.51.29-1.27.94-3.68,1.18-5h0a11,11,0,0,1,1.91,1.28,28.53,28.53,0,0,1,4.24,5.39,19.64,19.64,0,0,1,1.92,7.59C208,203,169.66,219.93,145.19,219.93Zm67.94-86.73c0,15.46-3.53,14.25-4.38,25.14-1.73-2.79-1.16-10.5-1.05-14.06.16-5.11.16-10.15.16-15.26,0-5.3-.28-27.12.06-30.46a27.88,27.88,0,0,0,2.32,2.69c.86.86,2,1.45,2.83,2.41C213.49,113.2,213.13,123.57,213.13,133.2Zm-8.35-44.4c-.52-1.62-2.16-6.74-2.71-7.85.34,5.61,4.13,10.6.68,21-2.53-1-4.73-5-5.86-7.57-1.61-3.62-2.54-8.36-3.3-10,.12,4.19,2.06,16.76-1.51,21-4.5-1.8-7.31-14-8.51-18.41-.1,3.34.52,6.16.1,9.78-.39,3.4-.81,5-2.44,7.4-2.1-.8-3.86-3.45-4.8-5.49-1.77-3.79-1.79-6.22-2.54-7.84-.09,5.51.44,11.77-2.82,16.49a11.87,11.87,0,0,1-4.72-10c0-.74,0-1.61,0-2.56V82.4c9.67-.6,7.21-7.53,14.73-10.27,3.44-.88,6.73.3,10.17-2.21,5.61-4.57,12.7-1.91,16.43,3.57a25.29,25.29,0,0,1,2.62,6.57q0,.22.12.51c.36,1.63,2.67,12.39,3.79,17.49.44,2,1.59,3.94,1.8,5C211.68,101.59,206,93.32,204.78,88.8Z"/><path class="cls-1" d="M206.06,77.86l-1.38.35c1.15,3.67,3.09,12.54,5.17,14.71-.22-3.46-1.83-8.58-2.9-12Z"/><path class="cls-1" d="M86.2,78.13l-1-.34c-1,1-4.2,13.93-4,15.22C82.31,91.65,86.34,79.76,86.2,78.13Z"/><path class="cls-1" d="M196.78,80.88c-.26,1.52,2.85,12.38,3.82,13.58.17-2.2-1.8-11.68-2.62-13.9Z"/><path class="cls-1" d="M94.34,81l-1.22-.51c-.83,1.5-2.88,12.18-2.67,14C91.61,92.52,94.08,83.44,94.34,81Z"/><path class="cls-1" d="M103.61,84.06l-1.15-.38c-.88,1.57-1.92,11.31-1.84,13.43C102,95.65,103.71,85.09,103.61,84.06Z"/><path class="cls-1" d="M187.41,84c-.21,1.75,2,11.83,2.9,13.24.31-1.73-1-12-1.68-13.51Z"/><path class="cls-1" d="M112.85,87.18l-1.29-.38a50.89,50.89,0,0,0-.89,11.46C111.58,97.08,113,88.79,112.85,87.18Z"/><path class="cls-1" d="M168.34,90.51c-.22,1.56,1.38,9.77,2.21,11.11a51.57,51.57,0,0,0-.9-11.51Z"/><path class="cls-1" d="M178.1,87.22c-.14,1.38,1.46,9.8,2.16,11,.63-1.56-.43-9.26-.79-11.39Z"/><path class="cls-1" d="M122.94,90.69l-1.61-.53c-.47,2.78-1.26,9-.82,11.49C121.39,100.13,122.76,92.53,122.94,90.69Z"/></svg>