<svg width="291.06" height="330.89" xmlns="http://www.w3.org/2000/svg">
 <defs>
  <style>.cls-1{fill:#blue;}</style>
 </defs>
 <g>
  <title>background</title>
  <rect fill="none" id="canvas_background" height="402" width="582" y="-1" x="-1"/>
 </g>
 <g>
  <title>Layer 1</title>
  <path fill="#ffffff" id="svg_1" d="m19.79,246.85a3.56,3.56 0 0 1 -1.19,3a5.62,5.62 0 0 1 -3.58,1l-3.93,0l0,-13.51l7.91,0l0,1.39l-6.35,0l0,4.34l2.08,0a8.54,8.54 0 0 1 2.88,0.41a3.27,3.27 0 0 1 1.65,1.2a3.94,3.94 0 0 1 0.53,2.17zm-7.14,2.56l2.19,0a4.26,4.26 0 0 0 2.54,-0.6a2.28,2.28 0 0 0 0.79,-2a2.08,2.08 0 0 0 -0.8,-1.85a5.25,5.25 0 0 0 -2.82,-0.55l-1.9,0l0,5z" class="cls-1"/>
  <path fill="#ffffff" id="svg_2" d="m28.56,250.76l-0.3,-1.43l-0.08,0a4.28,4.28 0 0 1 -1.5,1.28a4.62,4.62 0 0 1 -1.86,0.33a3.39,3.39 0 0 1 -2.35,-0.77a2.82,2.82 0 0 1 -0.85,-2.19c0,-2 1.63,-3.1 4.88,-3.19l1.7,-0.06l0,-0.62a2.54,2.54 0 0 0 -0.51,-1.75a2.08,2.08 0 0 0 -1.63,-0.57a6.71,6.71 0 0 0 -2.84,0.77l-0.47,-1.16a7.08,7.08 0 0 1 1.63,-0.63a6.74,6.74 0 0 1 1.78,-0.23a3.84,3.84 0 0 1 2.66,0.79a3.34,3.34 0 0 1 0.87,2.56l0,6.87l-1.13,0zm-2.31,-1.08a3.08,3.08 0 0 0 2.23,-0.78a2.88,2.88 0 0 0 0.82,-2.18l0,-0.91l-1.53,0.07a5.58,5.58 0 0 0 -2.62,0.56a1.71,1.71 0 0 0 -0.8,1.56a1.56,1.56 0 0 0 0.5,1.25a2.06,2.06 0 0 0 0.27,0.43l1.13,0z" class="cls-1"/>
  <path fill="#ffffff" id="svg_3" d="m40.32,250.76l-1.54,0l0,-8.76l-3,0a35,35 0 0 1 -0.69,5.18a7.2,7.2 0 0 1 -1.16,2.82a2.18,2.18 0 0 1 -1.78,0.89a2.37,2.37 0 0 1 -0.79,-0.11l0,-1.13a2.09,2.09 0 0 0 0.46,0c0.7,0 1.26,-0.74 1.68,-2.23a36.91,36.91 0 0 0 0.94,-6.77l5.88,0l0,10.11z" class="cls-1"/>
  <path fill="#ffffff" id="svg_4" d="m50.33,242l-3.26,0l0,8.75l-1.53,0l0,-8.75l-3.23,0l0,-1.3l8,0l0.02,1.3z" class="cls-1"/>
  <path fill="#ffffff" id="svg_5" d="m53.75,240.7l0,6.38l-0.06,1.67l0,0.52l5.44,-8.57l1.87,0l0,10.06l-1.42,0l0,-6.15l0,-1.21l0,-1.19l-5.43,8.55l-1.9,0l0,-10.06l1.5,0z" class="cls-1"/>
  <path fill="#ffffff" id="svg_6" d="m65.66,240.7l0,6.38l-0.06,1.67l0,0.52l5.4,-8.57l1.9,0l0,10.06l-1.41,0l0,-6.15l0,-1.21l0,-1.19l-5.43,8.55l-1.9,0l0,-10.06l1.5,0zm1.38,-1.33a3.86,3.86 0 0 1 -2.48,-0.65a2.94,2.94 0 0 1 -0.87,-2.17l1.43,0a2,2 0 0 0 0.5,1.34a2.18,2.18 0 0 0 1.45,0.37a2.05,2.05 0 0 0 1.4,-0.4a2,2 0 0 0 0.56,-1.31l2.97,0a3,3 0 0 1 -0.93,2.14a3.87,3.87 0 0 1 -2.53,0.68l-1.5,0z" class="cls-1"/>
  <path fill="#ffffff" id="svg_7" d="m80.16,250.94a4.3,4.3 0 0 1 -3.38,-1.34a5.54,5.54 0 0 1 -1.2,-3.81a5.71,5.71 0 0 1 1.22,-3.9a4.39,4.39 0 0 1 3.46,-1.37a7.14,7.14 0 0 1 1.45,0.15a5.25,5.25 0 0 1 1.14,0.37l-0.47,1.3a6.75,6.75 0 0 0 -1.1,-0.34a4.84,4.84 0 0 0 -1.06,-0.13q-3.06,0 -3.06,3.91a4.64,4.64 0 0 0 0.75,2.84a2.59,2.59 0 0 0 2.21,1a6.79,6.79 0 0 0 2.58,-0.54l0,1.35a5.47,5.47 0 0 1 -2.54,0.51z" class="cls-1"/>
  <path fill="#ffffff" id="svg_8" d="m91,240.7l1.67,0l-4.34,4.86l4.7,5.2l-1.83,0l-4.59,-5.09l0,5.09l-1.52,0l0,-10.06l1.52,0l0,4.89l4.39,-4.89z" class="cls-1"/>
  <path fill="#ffffff" id="svg_9" d="m96.27,240.7l0,6.38l-0.06,1.67l0,0.52l5.44,-8.57l1.9,0l0,10.06l-1.45,0l0,-6.15l0,-1.21l0,-1.19l-5.43,8.55l-1.9,0l0,-10.06l1.5,0z" class="cls-1"/>
  <path fill="#ffffff" id="svg_10" d="m108.18,240.7l0,6.38l-0.06,1.67l0,0.52l5.44,-8.57l1.9,0l0,10.06l-1.46,0l0,-6.15l0,-1.21l0,-1.19l-5.43,8.55l-1.9,0l0,-10.06l1.51,0zm1.36,-1.33a3.87,3.87 0 0 1 -2.48,-0.65a2.94,2.94 0 0 1 -0.87,-2.17l1.43,0a2.09,2.09 0 0 0 0.5,1.34a2.21,2.21 0 0 0 1.46,0.37a2.05,2.05 0 0 0 1.4,-0.4a2,2 0 0 0 0.55,-1.31l1.44,0a3,3 0 0 1 -0.92,2.14a3.9,3.9 0 0 1 -1,0.68l-1.51,0z" class="cls-1"/>
  <path fill="#ffffff" id="svg_11" d="m129.59,242l-4.53,0l0,8.75l-1.52,0l0,-10.05l6,0l0.05,1.3z" class="cls-1"/>
  <path fill="#ffffff" id="svg_12" d="m140.27,245.72a5.57,5.57 0 0 1 -1.24,3.84a4.38,4.38 0 0 1 -3.43,1.38a4.56,4.56 0 0 1 -2.39,-0.63a4.17,4.17 0 0 1 -1.62,-1.82a6.46,6.46 0 0 1 -0.56,-2.77a5.53,5.53 0 0 1 1.23,-3.83a4.35,4.35 0 0 1 3.41,-1.37a4.26,4.26 0 0 1 3.35,1.4a5.53,5.53 0 0 1 1.25,3.8zm-7.67,0a4.82,4.82 0 0 0 0.77,2.94a3.06,3.06 0 0 0 4.54,0a4.73,4.73 0 0 0 0.78,-2.94a4.63,4.63 0 0 0 -0.78,-2.91a2.71,2.71 0 0 0 -2.29,-1a2.68,2.68 0 0 0 -2.25,1a4.72,4.72 0 0 0 -0.77,2.91z" class="cls-1"/>
  <path fill="#ffffff" id="svg_13" d="m147,250.94a4.32,4.32 0 0 1 -3.38,-1.34a5.54,5.54 0 0 1 -1.19,-3.81a5.71,5.71 0 0 1 1.21,-3.9a4.4,4.4 0 0 1 3.46,-1.37a7.07,7.07 0 0 1 1.45,0.15a4.91,4.91 0 0 1 1.14,0.37l-0.47,1.3a6.46,6.46 0 0 0 -1.1,-0.34a4.76,4.76 0 0 0 -1,-0.13c-2,0 -3.07,1.3 -3.07,3.91a4.64,4.64 0 0 0 0.75,2.84a2.61,2.61 0 0 0 2.22,1a6.83,6.83 0 0 0 2.58,-0.54l0,1.35a5.51,5.51 0 0 1 -2.6,0.51z" class="cls-1"/>
  <path fill="#ffffff" id="svg_14" d="m150.28,240.7l1.64,0l2.2,5.74a23.16,23.16 0 0 1 0.9,2.83l0.07,0c0.08,-0.31 0.25,-0.84 0.5,-1.6s1.09,-3.08 2.49,-7l1.64,0l-4.32,11.45a5.65,5.65 0 0 1 -1.51,2.41a3.2,3.2 0 0 1 -2.1,0.71a6.41,6.41 0 0 1 -1.38,-0.15l0,-1.19a5.62,5.62 0 0 0 1.13,0.11a2.33,2.33 0 0 0 2.24,-1.77l0.56,-1.43l-4.06,-10.11z" class="cls-1"/>
  <path fill="#ffffff" id="svg_15" d="m170.08,254.24l-1.47,0l0,-3.48l-7,0l0,3.48l-1.47,0l0,-4.79l0.79,0a13.28,13.28 0 0 0 1.93,-3.92a17.08,17.08 0 0 0 0.72,-4.83l5.09,0l0,8.75l1.44,0l-0.03,4.79zm-2.87,-9.58l0,-2.76l-2.26,0a16.54,16.54 0 0 1 -0.79,4.13a11.59,11.59 0 0 1 -1.65,3.42l4.7,-4.79z" class="cls-1"/>
  <path fill="#ffffff" id="svg_16" d="m178.28,250.76l-0.31,-1.43l-0.07,0a4.28,4.28 0 0 1 -1.5,1.28a4.64,4.64 0 0 1 -1.87,0.33a3.38,3.38 0 0 1 -2.34,-0.77a2.78,2.78 0 0 1 -0.85,-2.19c0,-2 1.62,-3.1 4.87,-3.19l1.71,-0.06l0,-0.62a2.54,2.54 0 0 0 -0.51,-1.75a2.08,2.08 0 0 0 -1.63,-0.57a6.67,6.67 0 0 0 -2.84,0.77l-0.47,-1.16a6.9,6.9 0 0 1 1.63,-0.63a6.72,6.72 0 0 1 1.77,-0.23a3.86,3.86 0 0 1 2.67,0.79a3.34,3.34 0 0 1 0.87,2.56l0,6.87l-1.13,0zm-2.31,-1.08a3.09,3.09 0 0 0 2.23,-0.78a2.87,2.87 0 0 0 0.81,-2.18l0,-0.91l-1.52,0.07a5.58,5.58 0 0 0 -2.62,0.56a1.69,1.69 0 0 0 -0.8,1.56a1.52,1.52 0 0 0 0.5,1.25a2.06,2.06 0 0 0 0.27,0.43l1.13,0z" class="cls-1"/>
  <path fill="#ffffff" id="svg_17" d="m187.22,250.94a4.37,4.37 0 0 1 -1.79,-0.36a3.26,3.26 0 0 1 -1.36,-1.12l-0.07,0a14.31,14.31 0 0 1 0.11,1.67l0,4.14l-1.53,0l0,-14.57l1.24,0l0.21,1.38l0.08,0a3.47,3.47 0 0 1 1.36,-1.19a4.09,4.09 0 0 1 1.79,-0.37a3.69,3.69 0 0 1 3.09,1.37a7.25,7.25 0 0 1 0,7.68a3.74,3.74 0 0 1 -3.13,1.37zm-0.22,-9.13a2.71,2.71 0 0 0 -2.23,0.86a4.34,4.34 0 0 0 -0.7,2.71l0,0.34a5,5 0 0 0 0.7,3a2.69,2.69 0 0 0 2.27,0.92a2.36,2.36 0 0 0 2,-1.06a5,5 0 0 0 0.74,-2.91a4.82,4.82 0 0 0 -0.74,-2.88a2.42,2.42 0 0 0 -2.04,-0.98z" class="cls-1"/>
  <path fill="#ffffff" id="svg_18" d="m198.08,250.94a4.29,4.29 0 0 1 -3.38,-1.34a5.54,5.54 0 0 1 -1.2,-3.81a5.71,5.71 0 0 1 1.21,-3.9a4.41,4.41 0 0 1 3.47,-1.37a7.21,7.21 0 0 1 1.45,0.15a5.25,5.25 0 0 1 1.14,0.37l-0.47,1.3a7.07,7.07 0 0 0 -1.1,-0.34a4.84,4.84 0 0 0 -1.06,-0.13q-3.06,0 -3.06,3.91a4.71,4.71 0 0 0 0.74,2.84a2.61,2.61 0 0 0 2.22,1a6.79,6.79 0 0 0 2.58,-0.54l0,1.35a5.47,5.47 0 0 1 -2.54,0.51z" class="cls-1"/>
  <path fill="#ffffff" id="svg_19" d="m209.78,242l-3.26,0l0,8.75l-1.52,0l0,-8.75l-3.22,0l0,-1.3l8,0l0,1.3z" class="cls-1"/>
  <path fill="#ffffff" id="svg_20" d="m219.93,243.23a1.93,1.93 0 0 1 -0.56,1.49a3.16,3.16 0 0 1 -1.58,0.68l0,0.08a3.31,3.31 0 0 1 1.87,0.75a2.12,2.12 0 0 1 0.59,1.6a2.53,2.53 0 0 1 -1,2.17a5.08,5.08 0 0 1 -3,0.76l-4.43,0l0,-10.06l4.41,0q3.7,0 3.7,2.53zm-1.48,0.14a1.09,1.09 0 0 0 -0.57,-1a3.75,3.75 0 0 0 -1.71,-0.31l-2.87,0l0,2.84l2.58,0a4.15,4.15 0 0 0 2,-0.35a1.23,1.23 0 0 0 0.57,-1.18zm0.28,4.36a1.3,1.3 0 0 0 -0.62,-1.19a4.17,4.17 0 0 0 -2.05,-0.37l-2.76,0l0,3.31l2.8,0c1.75,0 2.63,-0.58 2.63,-1.75z" class="cls-1"/>
  <path fill="#ffffff" id="svg_21" d="m226.71,250.94a4.62,4.62 0 0 1 -3.52,-1.36a5.24,5.24 0 0 1 -1.29,-3.77a5.81,5.81 0 0 1 1.2,-3.86a4,4 0 0 1 3.22,-1.43a3.79,3.79 0 0 1 3,1.24a4.78,4.78 0 0 1 1.1,3.28l0,1l-6.93,0a3.94,3.94 0 0 0 0.9,2.68a3.09,3.09 0 0 0 2.39,0.92a8.16,8.16 0 0 0 3.21,-0.68l0,1.36a8.23,8.23 0 0 1 -1.53,0.5a8.67,8.67 0 0 1 -1.75,0.12zm-0.41,-9.15a2.5,2.5 0 0 0 -1.93,0.79a3.63,3.63 0 0 0 -0.85,2.19l5.26,0a3.35,3.35 0 0 0 -0.65,-2.21a2.25,2.25 0 0 0 -1.83,-0.77z" class="cls-1"/>
  <path fill="#ffffff" id="svg_22" d="m234.53,240.7l0,4.21l5.63,0l0,-4.21l1.53,0l0,10.06l-1.53,0l0,-4.53l-5.63,0l0,4.53l-1.53,0l0,-10.06l1.53,0z" class="cls-1"/>
  <path fill="#ffffff" id="svg_23" d="m246.44,240.7l0,4.21l5.63,0l0,-4.21l1.53,0l0,10.06l-1.53,0l0,-4.53l-5.63,0l0,4.53l-1.52,0l0,-10.06l1.52,0z" class="cls-1"/>
  <path fill="#ffffff" id="svg_24" d="m258.35,244.86l2.74,0a4.65,4.65 0 0 1 2.84,0.71a2.49,2.49 0 0 1 0.92,2.12a2.74,2.74 0 0 1 -1,2.29a4.56,4.56 0 0 1 -2.88,0.78l-4.18,0l0,-10.06l1.53,0l0.03,4.16zm-0.03,-2.85l0,3.31l2.58,0c1.61,0 2.42,-0.56 2.42,-1.69a1.38,1.38 0 0 0 -0.56,-1.23a3.47,3.47 0 0 0 -1.91,-0.39l-2.53,0zm9.71,4.59l-1.52,0l0,-5.9l1.52,0l0,5.9z" class="cls-1"/>
  <path fill="#ffffff" id="svg_25" d="m272.72,240.7l0,6.38l-0.06,1.67l0,0.52l5.44,-8.57l1.9,0l0,10.06l-1.42,0l0,-6.15l0,-1.21l0,-1.19l-5.43,8.55l-1.9,0l0,-10.06l1.47,0zm1.41,-1.33a3.87,3.87 0 0 1 -2.48,-0.65a2.94,2.94 0 0 1 -0.87,-2.17l1.43,0a2,2 0 0 0 0.5,1.34a2.18,2.18 0 0 0 1.45,0.37a2.05,2.05 0 0 0 1.4,-0.4a2,2 0 0 0 0.56,-1.31l2.88,0a2.92,2.92 0 0 1 -0.93,2.14a3.87,3.87 0 0 1 -2.47,0.68l-1.47,0z" class="cls-1"/>
  <path fill="#ffffff" id="svg_26" d="m35.16,260.89l-3.27,0l0,8.75l-1.52,0l0,-8.75l-3.23,0l0,-1.3l8,0l0.02,1.3z" class="cls-1"/>
  <path fill="#ffffff" id="svg_27" d="m41.4,269.83a4.64,4.64 0 0 1 -3.52,-1.36a5.26,5.26 0 0 1 -1.29,-3.77a5.81,5.81 0 0 1 1.2,-3.86a4,4 0 0 1 3.21,-1.44a3.79,3.79 0 0 1 3,1.25a4.73,4.73 0 0 1 1.1,3.28l0,1l-6.93,0a4,4 0 0 0 0.89,2.69a3.1,3.1 0 0 0 2.39,0.92a8.16,8.16 0 0 0 3.21,-0.68l0,1.36a9.05,9.05 0 0 1 -1.53,0.5a8.63,8.63 0 0 1 -1.73,0.11zm-0.4,-9.15a2.48,2.48 0 0 0 -1.93,0.79a3.66,3.66 0 0 0 -0.85,2.18l5.26,0a3.32,3.32 0 0 0 -0.64,-2.2a2.27,2.27 0 0 0 -1.84,-0.77z" class="cls-1"/>
  <path fill="#ffffff" id="svg_28" d="m50.11,264.5l-3.49,-4.91l1.73,0l2.65,3.85l2.64,-3.85l1.72,0l-3.5,4.91l3.68,5.14l-1.72,0l-2.82,-4.07l-2.84,4.07l-1.73,0l3.68,-5.14z" class="cls-1"/>
  <path fill="#ffffff" id="svg_29" d="m59.06,259.59l0,4.21l5.63,0l0,-4.21l1.52,0l0,10.05l-1.52,0l0,-4.53l-5.63,0l0,4.53l-1.53,0l0,-10.05l1.53,0z" class="cls-1"/>
  <path fill="#ffffff" id="svg_30" d="m70.87,259.59l0,6.41l-0.06,1.67l0,0.53l5.44,-8.57l1.9,0l0,10.05l-1.45,0l0,-6.18l0,-1.21l0,-1.2l-5.43,8.55l-1.9,0l0,-10.05l1.5,0z" class="cls-1"/>
  <path fill="#ffffff" id="svg_31" d="m82.69,259.59l0,3.67c0,1.17 0.67,1.76 2,1.76a5,5 0 0 0 1.6,-0.26a7.93,7.93 0 0 0 1.72,-0.87l0,-4.3l1.53,0l0,10.05l-1.54,0l0,-4.55a7.12,7.12 0 0 1 -1.78,0.93a6,6 0 0 1 -1.86,0.27a3.38,3.38 0 0 1 -2.36,-0.78a2.77,2.77 0 0 1 -0.85,-2.14l0,-3.78l1.54,0z" class="cls-1"/>
  <path fill="#ffffff" id="svg_32" d="m97,269.83a4.62,4.62 0 0 1 -3.51,-1.36a5.26,5.26 0 0 1 -1.29,-3.77a5.86,5.86 0 0 1 1.19,-3.86a4,4 0 0 1 3.22,-1.44a3.79,3.79 0 0 1 3,1.25a4.78,4.78 0 0 1 1.1,3.28l0,1l-6.92,0a4,4 0 0 0 0.9,2.69a3.09,3.09 0 0 0 2.39,0.92a8.16,8.16 0 0 0 3.21,-0.68l0,1.36a9.05,9.05 0 0 1 -1.53,0.5a8.67,8.67 0 0 1 -1.76,0.11zm-0.41,-9.15a2.47,2.47 0 0 0 -1.93,0.79a3.66,3.66 0 0 0 -0.85,2.18l5.26,0a3.37,3.37 0 0 0 -0.64,-2.2a2.27,2.27 0 0 0 -1.82,-0.77l-0.02,0z" class="cls-1"/>
  <path fill="#ffffff" id="svg_33" d="m107.34,269.83a4.26,4.26 0 0 1 -3.38,-1.35a5.5,5.5 0 0 1 -1.2,-3.8a5.71,5.71 0 0 1 1.21,-3.9a4.38,4.38 0 0 1 3.47,-1.38a7.23,7.23 0 0 1 1.45,0.16a4.52,4.52 0 0 1 1.13,0.37l-0.46,1.29a7.07,7.07 0 0 0 -1.1,-0.33a4.91,4.91 0 0 0 -1.06,-0.14c-2,0 -3.06,1.31 -3.06,3.91a4.72,4.72 0 0 0 0.74,2.85a2.61,2.61 0 0 0 2.22,1a6.79,6.79 0 0 0 2.58,-0.54l0,1.34a5.49,5.49 0 0 1 -2.54,0.52z" class="cls-1"/>
  <path fill="#ffffff" id="svg_34" d="m118.13,259.59l1.67,0l-4.34,4.85l4.69,5.2l-1.78,0l-4.58,-5.09l0,5.09l-1.53,0l0,-10.05l1.53,0l0,4.89l4.34,-4.89z" class="cls-1"/>
  <path fill="#ffffff" id="svg_35" d="m123.45,259.59l0,6.41l-0.07,1.67l0,0.53l5.44,-8.57l1.9,0l0,10.05l-1.43,0l0,-6.18l0,-1.21l0,-1.2l-5.43,8.55l-1.86,0l0,-10.05l1.45,0z" class="cls-1"/>
  <path fill="#ffffff" id="svg_36" d="m135.36,259.59l0,6.41l-0.07,1.67l0,0.53l5.44,-8.57l1.89,0l0,10.05l-1.42,0l0,-6.18l0,-1.21l0,-1.2l-5.44,8.55l-1.89,0l0,-10.05l1.49,0zm1.38,-1.33a3.81,3.81 0 0 1 -2.48,-0.66a2.93,2.93 0 0 1 -0.87,-2.16l1.43,0a2,2 0 0 0 0.5,1.33a2.19,2.19 0 0 0 1.46,0.38a2,2 0 0 0 1.39,-0.41a2,2 0 0 0 0.56,-1.3l1.44,0a2.88,2.88 0 0 1 -0.93,2.13a3.81,3.81 0 0 1 -1.01,0.69l-1.49,0z" class="cls-1"/>
  <path fill="#ffffff" id="svg_37" d="m149.12,259.59l1.63,0l2.2,5.73a20,20 0 0 1 0.9,2.84l0.08,0c0.08,-0.31 0.24,-0.85 0.5,-1.6s1.08,-3.08 2.49,-7l1.63,0l-4.32,11.44a5.81,5.81 0 0 1 -1.5,2.41a3.2,3.2 0 0 1 -2.11,0.71a5.76,5.76 0 0 1 -1.37,-0.16l0,-1.22a5.48,5.48 0 0 0 1.13,0.11a2.32,2.32 0 0 0 2.23,-1.76l0.56,-1.43l-4.05,-10.07z" class="cls-1"/>
  <path fill="#ffffff" id="svg_38" d="m161.71,259.59l0,4.21l5.63,0l0,-4.21l1.52,0l0,10.05l-1.52,0l0,-4.53l-5.63,0l0,4.53l-1.53,0l0,-10.05l1.53,0z" class="cls-1"/>
  <path fill="#ffffff" id="svg_39" d="m173.52,259.59l0,6.41l-0.06,1.67l0,0.53l5.44,-8.57l1.9,0l0,10.05l-1.42,0l0,-6.18l0,-1.21l0,-1.2l-5.38,8.55l-1.9,0l0,-10.05l1.42,0z" class="cls-1"/>
  <path fill="#ffffff" id="svg_40" d="m192.16,262.11a1.92,1.92 0 0 1 -0.56,1.49a3.16,3.16 0 0 1 -1.59,0.69l0,0.08a3.21,3.21 0 0 1 1.88,0.75a2.16,2.16 0 0 1 0.59,1.6a2.52,2.52 0 0 1 -1,2.16a5,5 0 0 1 -3,0.76l-4.48,0l0,-10.05l4.42,0q3.74,0 3.74,2.52zm-1.49,0.15a1.09,1.09 0 0 0 -0.56,-1a3.64,3.64 0 0 0 -1.71,-0.31l-2.87,0l0,2.83l2.57,0a4.19,4.19 0 0 0 2,-0.34a1.25,1.25 0 0 0 0.57,-1.18zm0.29,4.36a1.29,1.29 0 0 0 -0.62,-1.19a4.17,4.17 0 0 0 -2.05,-0.37l-2.76,0l0,3.31l2.79,0c1.76,0 2.68,-0.59 2.68,-1.75l-0.04,0z" class="cls-1"/>
  <path fill="#ffffff" id="svg_41" d="m198.94,269.83a4.64,4.64 0 0 1 -3.52,-1.36a5.26,5.26 0 0 1 -1.29,-3.77a5.81,5.81 0 0 1 1.2,-3.86a4,4 0 0 1 3.21,-1.44a3.82,3.82 0 0 1 3,1.25a4.78,4.78 0 0 1 1.1,3.28l0,1l-6.93,0a4,4 0 0 0 0.89,2.69a3.12,3.12 0 0 0 2.39,0.92a8.17,8.17 0 0 0 3.22,-0.68l0,1.36a9.05,9.05 0 0 1 -1.53,0.5a8.67,8.67 0 0 1 -1.74,0.11zm-0.41,-9.15a2.47,2.47 0 0 0 -1.93,0.79a3.54,3.54 0 0 0 -0.85,2.18l5.25,0a3.32,3.32 0 0 0 -0.64,-2.2a2.26,2.26 0 0 0 -1.83,-0.77z" class="cls-1"/>
  <path fill="#ffffff" id="svg_42" d="m209.91,269.83a4.22,4.22 0 0 1 -1.79,-0.37a3.32,3.32 0 0 1 -1.36,-1.11l-0.11,0a14.17,14.17 0 0 1 0.11,1.67l0,4.14l-1.53,0l0,-14.57l1.24,0l0.21,1.37l0.08,0a3.55,3.55 0 0 1 1.36,-1.19a4.24,4.24 0 0 1 1.79,-0.37a3.71,3.71 0 0 1 3.09,1.37a6.05,6.05 0 0 1 1.09,3.84a6,6 0 0 1 -1.11,3.85a3.74,3.74 0 0 1 -3.07,1.37zm-0.22,-9.13a2.69,2.69 0 0 0 -2.23,0.85a4.39,4.39 0 0 0 -0.7,2.72l0,0.34a5,5 0 0 0 0.7,3a2.69,2.69 0 0 0 2.27,0.91a2.35,2.35 0 0 0 2,-1.05a5.05,5.05 0 0 0 0.74,-2.91a4.84,4.84 0 0 0 -0.74,-2.89a2.42,2.42 0 0 0 -2.04,-0.97z" class="cls-1"/>
  <path fill="#ffffff" id="svg_43" d="m220.77,269.83a4.26,4.26 0 0 1 -3.38,-1.35a5.5,5.5 0 0 1 -1.2,-3.8a5.71,5.71 0 0 1 1.21,-3.9a4.38,4.38 0 0 1 3.47,-1.38a7.23,7.23 0 0 1 1.45,0.16a4.76,4.76 0 0 1 1.14,0.37l-0.47,1.29a7.07,7.07 0 0 0 -1.1,-0.33a4.91,4.91 0 0 0 -1.06,-0.14c-2,0 -3.06,1.31 -3.06,3.91a4.72,4.72 0 0 0 0.74,2.85a2.61,2.61 0 0 0 2.22,1a6.79,6.79 0 0 0 2.58,-0.54l0,1.34a5.46,5.46 0 0 1 -2.54,0.52z" class="cls-1"/>
  <path fill="#ffffff" id="svg_44" d="m227.12,259.59l0,6.41l-0.06,1.67l0,0.53l5.44,-8.57l1.9,0l0,10.05l-1.4,0l0,-6.18l0,-1.21l0,-1.2l-5.43,8.55l-1.9,0l0,-10.05l1.45,0z" class="cls-1"/>
  <path fill="#ffffff" id="svg_45" d="m244.38,260.89l-3.26,0l0,8.75l-1.53,0l0,-8.75l-3.23,0l0,-1.3l8,0l0.02,1.3z" class="cls-1"/>
  <path fill="#ffffff" id="svg_46" d="m250.62,269.83a4.65,4.65 0 0 1 -3.52,-1.36a5.26,5.26 0 0 1 -1.29,-3.77a5.81,5.81 0 0 1 1.2,-3.86a4,4 0 0 1 3.22,-1.44a3.8,3.8 0 0 1 3,1.25a4.78,4.78 0 0 1 1.1,3.28l0,1l-6.93,0a4,4 0 0 0 0.9,2.69a3.09,3.09 0 0 0 2.39,0.92a8.16,8.16 0 0 0 3.21,-0.68l0,1.36a9.05,9.05 0 0 1 -1.53,0.5a8.67,8.67 0 0 1 -1.75,0.11zm-0.41,-9.15a2.47,2.47 0 0 0 -1.93,0.79a3.6,3.6 0 0 0 -0.85,2.18l5.26,0a3.32,3.32 0 0 0 -0.65,-2.2a2.25,2.25 0 0 0 -1.83,-0.77z" class="cls-1"/>
  <path fill="#ffffff" id="svg_47" d="m263.7,260.89l-3.27,0l0,8.75l-1.52,0l0,-8.75l-3.23,0l0,-1.3l8,0l0.02,1.3z" class="cls-1"/>
  <path fill="#ffffff" id="svg_48" d="m66.57,290.76l4.67,-5.76l2.76,1.5l-3.52,4.39l3.52,4.4l-2.76,1.5l-4.67,-5.71l0,-0.32zm6.37,0.32l4.66,-6.08l2.77,1.5l-3.51,4.39l3.51,4.38l-2.77,1.5l-4.66,-5.71l0,0.02z" class="cls-1"/>
  <path fill="#ffffff" id="svg_49" d="m83.72,279.56l5.73,0c2.62,0 4.51,0.37 5.69,1.11a3.9,3.9 0 0 1 1.77,3.55a4.53,4.53 0 0 1 -0.77,2.71a3.13,3.13 0 0 1 -2.06,1.27l0,0.12a4.07,4.07 0 0 1 2.52,1.47a5.31,5.31 0 0 1 -1,6.77a7.91,7.91 0 0 1 -5,1.41l-6.88,0l0,-18.41zm3.91,25.7l2.26,0a4.12,4.12 0 0 0 2.3,-0.49a1.83,1.83 0 0 0 0.71,-1.63a1.6,1.6 0 0 0 -0.77,-1.51a4.94,4.94 0 0 0 -2.45,-0.46l-2.05,0l0,4.09zm0,3.1l0,4.8l2.54,0a3.77,3.77 0 0 0 2.38,-0.62a2.28,2.28 0 0 0 0.77,-1.89c0,-1.53 -1.09,-2.29 -3.27,-2.29l-2.42,0z" class="cls-1"/>
  <path fill="#ffffff" id="svg_50" d="m117.77,288.74q0,4.58 -2.27,7a9.82,9.82 0 0 1 -13,0q-2.27,-2.46 -2.26,-7c0,-3.07 0.75,-5.41 2.27,-7a8.52,8.52 0 0 1 6.52,-2.42a8.37,8.37 0 0 1 6.49,2.44q2.25,2.39 2.25,6.98zm-13.44,0a7.7,7.7 0 0 0 1.17,4.65a4.1,4.1 0 0 0 3.5,1.61q4.68,0 4.68,-6.21t-4.68,-6.27a4.12,4.12 0 0 0 -3.52,1.57a7.63,7.63 0 0 0 -1.15,4.65z" class="cls-1"/>
  <path fill="#ffffff" id="svg_51" d="m132.19,298l-10.6,0l0,-18.44l10.6,0l0,3.2l-6.7,0l0,4l6.24,0l0,3.24l-6.24,0l0,4.75l6.7,0l0,3.25z" class="cls-1"/>
  <path fill="#ffffff" id="svg_52" d="m151.12,298l-3.89,0l0,-8l-7.29,0l0,8l-3.94,0l0,-18.44l3.91,0l0,7.22l7.29,0l0,-7.22l3.89,0l0.03,18.44z" class="cls-1"/>
  <path fill="#ffffff" id="svg_53" d="m163.57,298l-4.44,-14.44l-0.13,0c0.16,2.93 0.24,4.9 0.24,5.88l0,8.56l-3.49,0l0,-18.44l5.32,0l4.35,14.08l0.08,0l4.62,-14.08l5.32,0l0,18.44l-3.64,0l0,-8.71c0,-0.41 0,-0.89 0,-1.43s0.07,-2 0.17,-4.28l-0.12,0l-4.7,14.42l-3.58,0z" class="cls-1"/>
  <path fill="#ffffff" id="svg_54" d="m190.7,298l-10.61,0l0,-18.44l10.61,0l0,3.2l-6.7,0l0,4l6.23,0l0,3.24l-6.23,0l0,4.75l6.7,0l0,3.25z" class="cls-1"/>
  <path fill="#ffffff" id="svg_55" d="m209.43,298l-4.43,0l-4.28,-7l-4.28,7l-4.19,0l6.11,-9.49l-5.72,-8.92l4.31,0l4,6.62l3.89,-6.62l4.16,0l-5.78,9.13l6.21,9.28z" class="cls-1"/>
  <path fill="#ffffff" id="svg_56" d="m217.89,291.08l-4.67,5.71l-2.76,-1.5l3.5,-4.38l-3.5,-4.39l2.76,-1.5l4.67,5.74l0,0.32zm6.38,-0.32l-4.68,5.71l-2.75,-1.5l3.5,-4.38l-3.5,-4.39l2.75,-1.5l4.68,5.74l0,0.32z" class="cls-1"/>
  <path fill="#ffffff" id="svg_57" d="m60.07,310.38l0,4.05c0,0.43 -0.07,1.48 -0.21,3.14l4.73,-7.19l3.41,0l0,10.26l-2.75,0l0,-4.1c0,-0.72 0.07,-1.75 0.19,-3.08l-4.72,7.18l-3.36,0l0,-10.26l2.71,0z" class="cls-1"/>
  <path fill="#ffffff" id="svg_58" d="m83.83,320.64l-2.62,0l0,-8.09l-0.15,0.57a24.32,24.32 0 0 1 -0.89,2.93l-1.81,4.59l-2,0l-1.84,-4.64a24.76,24.76 0 0 1 -0.84,-2.83l-0.18,-0.63l0,8.09l-2.6,0l0,-10.25l3.85,0l1.76,4.38a12,12 0 0 1 0.51,1.62a13.27,13.27 0 0 1 0.32,1.57c0.2,-0.92 0.36,-1.58 0.47,-2a10.87,10.87 0 0 1 0.37,-1.1l1.82,-4.47l3.82,0l0.01,10.26z" class="cls-1"/>
  <path fill="#ffffff" id="svg_59" d="m86.37,319.32a1.51,1.51 0 0 1 0.41,-1.16a1.69,1.69 0 0 1 1.2,-0.4a1.63,1.63 0 0 1 1.18,0.41a1.52,1.52 0 0 1 0.42,1.15a1.55,1.55 0 0 1 -0.42,1.15a1.94,1.94 0 0 1 -2.37,0a1.56,1.56 0 0 1 -0.42,-1.15z" class="cls-1"/>
  <path fill="#ffffff" id="svg_60" d="m95.62,318.27l1,0a30.91,30.91 0 0 0 2.1,-5.32a35.63,35.63 0 0 0 1.15,-5.73l7.82,0l0,11l1.79,0l0,6.27l-2.75,0l0,-3.9l-8.4,0l0,3.9l-2.71,0l0,-6.22zm6.55,-2.46a33.34,33.34 0 0 1 -1,4.45a31.72,31.72 0 0 1 -1.54,4.23l5.24,0l0,-8.68l-2.7,0z" class="cls-1"/>
  <path fill="#ffffff" id="svg_61" d="m111,319.32a1.51,1.51 0 0 1 0.42,-1.16a1.67,1.67 0 0 1 1.2,-0.4a1.63,1.63 0 0 1 1.18,0.41a1.77,1.77 0 0 1 0,2.3a1.62,1.62 0 0 1 -1.17,0.41a1.65,1.65 0 0 1 -1.19,-0.4a1.56,1.56 0 0 1 -0.44,-1.16z" class="cls-1"/>
  <path fill="#ffffff" id="svg_62" d="m122.05,320.82l0,-2.06l-0.2,0a6.82,6.82 0 0 1 -3,-0.61a4.61,4.61 0 0 1 -2,-1.8a5.24,5.24 0 0 1 -0.08,-5.23a4.6,4.6 0 0 1 1.89,-1.79a6.26,6.26 0 0 1 2.92,-0.65l0.49,0l0,-1.68l2.56,0l0,1.65l0.48,0a6.19,6.19 0 0 1 2.91,0.65a4.57,4.57 0 0 1 1.9,1.79a5,5 0 0 1 0.66,2.56a4.93,4.93 0 0 1 -0.74,2.67a4.58,4.58 0 0 1 -2,1.8a6.85,6.85 0 0 1 -3,0.61l-0.2,0l0,2.06l-2.59,0.03zm2.59,-9.95l-0.38,0a2.94,2.94 0 0 0 -2.13,0.75a2.69,2.69 0 0 0 -0.78,2a2.78,2.78 0 0 0 0.83,2.11a3.22,3.22 0 0 0 2.33,0.79l0.13,0l0,-5.65zm2.56,5.66l0.13,0a3.3,3.3 0 0 0 2.31,-0.77a2.76,2.76 0 0 0 0.84,-2.13a2.65,2.65 0 0 0 -0.78,-2a2.91,2.91 0 0 0 -2.13,-0.76l-0.37,0l0,5.66z" class="cls-1"/>
  <path fill="#ffffff" id="svg_63" d="m132.48,319.32a1.55,1.55 0 0 1 0.41,-1.16a1.71,1.71 0 0 1 1.21,-0.4a1.6,1.6 0 0 1 1.17,0.41a1.52,1.52 0 0 1 0.42,1.15a1.55,1.55 0 0 1 -0.42,1.15a1.62,1.62 0 0 1 -1.17,0.41a1.66,1.66 0 0 1 -1.2,-0.4a1.56,1.56 0 0 1 -0.42,-1.16z" class="cls-1"/>
  <path fill="#ffffff" id="svg_64" d="m153.91,307.22l-4.14,9.49a10.22,10.22 0 0 1 -1.47,2.57a4.14,4.14 0 0 1 -1.62,1.16a6.09,6.09 0 0 1 -2.27,0.38a8.09,8.09 0 0 1 -2.14,-0.27l0,-2.45a5.35,5.35 0 0 0 2,0.33a2,2 0 0 0 1.23,-0.35a2.58,2.58 0 0 0 0.78,-1.22l-4.64,-9.64l3,0l3.3,7.48l0.09,0l0.17,-0.46l2.77,-7l2.94,-0.02z" class="cls-1"/>
  <path fill="#ffffff" id="svg_65" d="m159.55,320.82c-3.2,0 -4.79,-1.75 -4.79,-5.26a5.59,5.59 0 0 1 1.3,-4a4.88,4.88 0 0 1 3.73,-1.38a7.23,7.23 0 0 1 3.2,0.69l-0.83,2.17c-0.44,-0.18 -0.85,-0.32 -1.23,-0.44a4.09,4.09 0 0 0 -1.14,-0.17c-1.45,0 -2.18,1 -2.18,3.1s0.73,3 2.18,3a5.13,5.13 0 0 0 1.5,-0.21a5.52,5.52 0 0 0 1.38,-0.68l0,2.4a4.23,4.23 0 0 1 -1.38,0.59a7.62,7.62 0 0 1 -1.74,0.19z" class="cls-1"/>
  <path fill="#ffffff" id="svg_66" d="m173.53,310.38l0,2.1l-3.36,0l0,8.16l-2.8,0l0,-8.16l-3.37,0l0,-2.1l9.53,0z" class="cls-1"/>
  <path fill="#ffffff" id="svg_67" d="m178.14,310.38l0,4.05c0,0.43 -0.07,1.48 -0.21,3.14l4.74,-7.19l3.33,0l0,10.26l-2.7,0l0,-4.1c0,-0.72 0.06,-1.75 0.18,-3.08l-4.71,7.18l-3.36,0l0,-10.26l2.73,0z" class="cls-1"/>
  <path fill="#ffffff" id="svg_68" d="m191.77,310.38l0,3.94l3.91,0l0,-3.94l2.8,0l0,10.26l-2.8,0l0,-4.23l-3.91,0l0,4.23l-2.77,0l0,-10.26l2.77,0z" class="cls-1"/>
  <path fill="#ffffff" id="svg_69" d="m210.73,315.49a5.52,5.52 0 0 1 -1.32,3.92a4.78,4.78 0 0 1 -3.68,1.41a5.15,5.15 0 0 1 -2.6,-0.65a4.38,4.38 0 0 1 -1.74,-1.85a6.31,6.31 0 0 1 -0.6,-2.83a5.5,5.5 0 0 1 1.31,-3.91a4.8,4.8 0 0 1 3.69,-1.39a5.14,5.14 0 0 1 2.6,0.64a4.3,4.3 0 0 1 1.74,1.84a6.23,6.23 0 0 1 0.6,2.82zm-7.09,0a4.34,4.34 0 0 0 0.5,2.3a1.79,1.79 0 0 0 1.63,0.78a1.77,1.77 0 0 0 1.61,-0.77a4.36,4.36 0 0 0 0.49,-2.31a4.26,4.26 0 0 0 -0.49,-2.29a1.82,1.82 0 0 0 -1.63,-0.76a1.8,1.8 0 0 0 -1.61,0.76a4.25,4.25 0 0 0 -0.5,2.29z" class="cls-1"/>
  <path fill="#ffffff" id="svg_70" d="m222.51,313.07a2.07,2.07 0 0 1 -0.51,1.41a2.58,2.58 0 0 1 -1.53,0.74l0,0.08a2.87,2.87 0 0 1 1.73,0.74a2.09,2.09 0 0 1 0.64,1.53a2.58,2.58 0 0 1 -1.18,2.28a6,6 0 0 1 -3.36,0.79l-5.25,0l0,-10.26l5.25,0a5.91,5.91 0 0 1 3.16,0.68a2.26,2.26 0 0 1 1.05,2.01zm-2.83,0.22c0,-0.63 -0.5,-0.94 -1.49,-0.94l-2.35,0l0,2l2,0a2.8,2.8 0 0 0 1.35,-0.26a0.87,0.87 0 0 0 0.49,-0.8zm0.26,4.14a0.94,0.94 0 0 0 -0.47,-0.88a2.88,2.88 0 0 0 -1.41,-0.27l-2.22,0l0,2.42l2.28,0a2.32,2.32 0 0 0 1.35,-0.33a1.11,1.11 0 0 0 0.47,-0.94z" class="cls-1"/>
  <path fill="#ffffff" id="svg_71" d="m231.57,320.64l-0.54,-1.4l-0.03,0a4.17,4.17 0 0 1 -1.46,1.24a4.71,4.71 0 0 1 -1.95,0.34a3.15,3.15 0 0 1 -2.32,-0.84a3.25,3.25 0 0 1 -0.85,-2.41a2.71,2.71 0 0 1 1.14,-2.41a6.63,6.63 0 0 1 3.44,-0.85l1.78,-0.06l0,-0.45a1.39,1.39 0 0 0 -1.59,-1.56a7.33,7.33 0 0 0 -2.89,0.74l-0.93,-1.89a8.43,8.43 0 0 1 3.93,-0.92a4.88,4.88 0 0 1 3.16,0.9a3.3,3.3 0 0 1 1.1,2.73l0,6.84l-1.99,0zm1.16,-4.76l-1.08,0a3.47,3.47 0 0 0 -1.81,0.44a1.38,1.38 0 0 0 -0.6,1.23c0,0.79 0.45,1.18 1.36,1.18a2.13,2.13 0 0 0 1.55,-0.56a1.94,1.94 0 0 0 0.58,-1.48l0,-0.81z" class="cls-1"/>
  <path fill="#ffffff" id="svg_72" d="m143.86,13.55c-0.69,1.07 0.77,7.82 1.16,8.83c0.71,-1.69 1.77,-7.76 1.23,-8.84a1.35,1.35 0 0 0 -2.39,0.01z" class="cls-1"/>
  <path fill="#ffffff" id="svg_73" d="m91.89,114.27c-2.29,-0.12 -6.15,2.75 -6.28,5c2.32,0.1 6.18,-2.71 6.28,-5z" class="cls-1"/>
  <path fill="#ffffff" id="svg_74" d="m109.68,57.65c-0.73,0.62 -0.71,1 -0.73,1.93l1.84,-1.06l-1.11,-0.87z" class="cls-1"/>
  <path fill="#ffffff" id="svg_75" d="m180.69,57.65c0.73,0.62 0.71,1 0.74,1.93l-1.85,-1.06l1.11,-0.87z" class="cls-1"/>
  <polygon fill="#ffffff" id="svg_76" points="143.75 12.02 146.28 12.02 146 10.16 147.86 10.45 147.86 7.92 146 8.21 146.28 6.35 143.75 6.35 144.04 8.21 142.18 7.92 142.18 10.45 144.04 10.16 143.75 12.02" class="cls-1"/>
  <path fill="#ffffff" id="svg_77" d="m131.29,27.77c2.57,3.81 2.14,2.56 2.33,7.36l22.75,0c0.18,-4.8 -0.24,-3.55 2.32,-7.36s2.82,-4.33 3.35,-6a9.24,9.24 0 0 0 -3.27,-8.83a16.31,16.31 0 0 0 -9.58,-2.53c-1.49,3.43 -3.16,14.81 -4.2,18c-1,-3.2 -2.7,-14.58 -4.2,-18c-3.09,-0.13 -7.07,0.69 -9.57,2.53a9.22,9.22 0 0 0 -3.22,8.8c0.47,1.7 0.75,2.26 3.29,6.03zm-1.12,-3.41c-0.95,-1.81 -1.13,-1.83 -0.07,-2.85c0.43,0.77 0.72,1.35 1.24,2.21c-0.61,0.68 -0.34,0.57 -1.17,0.64zm29.65,0c-0.85,-0.07 -0.57,0 -1.18,-0.64c0.52,-0.86 0.82,-1.44 1.25,-2.21c1.05,1.02 0.87,1.04 -0.07,2.85zm1,-5.6l0.23,1.39c-0.71,-0.68 -0.77,-0.81 -0.22,-1.39l-0.01,0zm-0.65,-1.64c-1.6,-1.07 -1.28,-0.53 -1.38,-2.14a2.1,2.1 0 0 1 1.39,2.14l-0.01,0zm-0.75,2.11l-1.29,2c-0.64,-0.91 -1,-1.33 -1.39,-2l1.28,-2l1.4,2zm-8.69,2l-1.46,-1.93l1.32,-2l1.45,1.88l-1.31,2.05zm-0.75,5.4a12.75,12.75 0 0 0 0.54,-1.2l0.53,0.93a10.49,10.49 0 0 1 -1.05,0.29l-0.02,-0.02zm2.44,-5.17l1.46,1.94a13.87,13.87 0 0 1 -1.43,2l-1.3,-1.89l1.27,-2.05zm0.56,-2.17l1.32,-2l1.43,1.89l-1.28,2l-1.47,-1.89zm3.13,2.19l1.48,1.93c-0.53,1.32 -0.69,1.18 -2,1.32l-0.7,-1.27l1.22,-1.98zm2,-7.5l-0.77,-0.1a3.22,3.22 0 0 1 -0.4,-0.85c0.78,0.22 0.95,0.39 1.18,0.97l-0.01,-0.02zm-0.57,1.52l-1.31,2a16.63,16.63 0 0 1 -1.32,-1.94l1.31,-1.64l1.32,1.58zm-3.91,-3.88a3.44,3.44 0 0 1 2,0.69l-1.17,1.14c-0.64,-1 -1.07,-1.34 -1.43,-1.91l0.6,0.08zm0.24,3.85l-1.44,1.74a14.92,14.92 0 0 1 -1.22,-1.68l1.26,-1.62l1.4,1.56zm-3.51,-4.22c0.42,0.54 0.72,0.72 1.22,1.34a12.94,12.94 0 0 0 -1.6,1c0.12,-0.95 0.24,-1.36 0.39,-2.32l-0.01,-0.02zm-1.08,4.4a5.75,5.75 0 0 1 0.19,-1l0.62,0.66l-1.09,2c0.11,-0.62 0,0 0.29,-1.64l-0.01,-0.02zm-0.6,5.81c0.59,0.82 0.94,1.26 1.45,2l-1.39,2a11.59,11.59 0 0 1 -1.25,-2l1.19,-2zm-1.81,4.28l1.45,1.87l-2.32,1.86l0.87,-3.73zm-1,2.22l0,0c4.32,-2.15 4.13,-1.82 9,-1.34a3.27,3.27 0 0 0 -2.54,2.38a3.31,3.31 0 0 1 1.89,-0.68a7.86,7.86 0 0 0 2,-0.37a3.92,3.92 0 0 0 -1.71,-0.8c1,-1.07 2.94,-1.25 4.34,-1.38c-0.58,1.24 -2.93,3.57 -3.6,5s0.11,2.1 -2,2.1l-16.47,0c-2.14,0 -1.44,-0.77 -2,-2.1s-3,-3.8 -3.61,-5c1.41,0.13 3.37,0.31 4.34,1.38a4,4 0 0 0 -1.71,0.8a7.94,7.94 0 0 0 2,0.37a3.28,3.28 0 0 1 1.89,0.68a3.35,3.35 0 0 0 -1.69,1.35c4.86,-0.48 4.66,-0.81 9,1.34l0.87,-3.73zm-4.75,-12.66l-1.31,-2l1.45,-1.88l1.32,2l-1.46,1.88zm0.22,4.2a10.62,10.62 0 0 0 0.54,1.2c-1.24,-0.3 -1.08,-0.27 -1.08,-0.27l0.54,-0.93zm-0.64,-1.95l-1.29,1.89a13.17,13.17 0 0 1 -1.44,-2l1.47,-1.94l1.26,2.05zm-3.29,-2.26l-1.28,-2l1.42,-1.89l1.32,2l-1.46,1.89zm-0.41,2.24l-0.7,1.27c-1.34,-0.14 -1.5,0 -2,-1.32l1.48,-1.93l1.22,1.98zm8.84,6l-2.31,-1.84l1.45,-1.87l0.86,3.71zm-1.47,-6a12.24,12.24 0 0 1 -1.25,2l-1.4,-2c0.51,-0.73 0.86,-1.17 1.46,-2l1.19,2zm-2,-8.77a4.87,4.87 0 0 1 0.2,1c0.26,1.64 0.18,1 0.26,1.64l-1.08,-1.95l0.62,-0.69zm-0.89,-3.43c0.15,1 0.27,1.37 0.39,2.38a13.07,13.07 0 0 0 -1.61,-1c-1.36,5.29 -1.06,5.1 -0.65,4.56l1.87,-5.94zm-0.85,4.28a16.28,16.28 0 0 1 -1.21,1.68l-1.45,-1.74l1.41,-1.56l1.25,1.62zm-2.42,-3.91l0.65,-0.08c-0.36,0.57 -0.79,0.95 -1.43,1.91l-1.16,-1.14a3.41,3.41 0 0 1 0.07,5.25l1.87,-5.94zm-1.28,3.91a16.53,16.53 0 0 1 -1.31,1.94l-1.32,-2l1.32,-1.61l1.31,1.67zm-1.93,-2.61a3.13,3.13 0 0 1 -0.5,1l-0.9,0.1a2,2 0 0 1 -0.47,4.84l1.87,-5.94zm-1.13,4.32l1.28,2c-0.38,0.64 -0.75,1.06 -1.39,2l-1.29,-2l1.4,-2zm-0.15,-2.64c-0.11,1.61 0.21,1.07 -1.39,2.14a2.09,2.09 0 0 1 -1.14,4.18l2.53,-6.32zm-0.72,2.1c0.54,0.58 0.49,0.71 -0.24,1.39l0.24,-1.39z" class="cls-1"/>
  <path fill="#ffffff" id="svg_78" d="m171.39,199.63a3.07,3.07 0 0 0 -1.44,0.3l0.33,0.74a2.37,2.37 0 0 1 0.9,-0.24a0.35,0.35 0 0 1 0.4,0.4l0,0l-0.58,0a2.05,2.05 0 0 0 -1,0.29a0.88,0.88 0 0 0 -0.37,0.78a1.09,1.09 0 0 0 0.27,0.78a1,1 0 0 0 0.72,0.27a1.49,1.49 0 0 0 0.61,-0.1a1.27,1.27 0 0 0 0.47,-0.39l0,0l0.22,0.43l0.78,0l0,-2.14a1.12,1.12 0 0 0 -0.35,-0.87a1.43,1.43 0 0 0 -0.96,-0.25zm0.2,2.12a0.43,0.43 0 0 1 -0.15,0.34a0.52,0.52 0 0 1 -0.35,0.13c-0.21,0 -0.32,-0.1 -0.32,-0.3s0.19,-0.4 0.56,-0.41l0.26,0l0,0.24z" class="cls-1"/>
  <path fill="#ffffff" id="svg_79" d="m168.42,201.27l0,0a0.78,0.78 0 0 0 0.46,-0.23a0.71,0.71 0 0 0 0.16,-0.48a0.68,0.68 0 0 0 -0.35,-0.63a2.11,2.11 0 0 0 -1.06,-0.21l-1.78,0l0,3.28l1.77,0c1,0 1.52,-0.31 1.52,-0.93a0.72,0.72 0 0 0 -0.18,-0.51a0.8,0.8 0 0 0 -0.54,-0.29zm-1.45,-0.84l0.64,0c0.21,0 0.31,0.08 0.31,0.26a0.21,0.21 0 0 1 -0.08,0.16a0.41,0.41 0 0 1 -0.27,0.07l-0.57,0l-0.03,-0.49zm0.62,1.79l-0.59,0l0,-0.59l0.63,0a0.61,0.61 0 0 1 0.3,0.06a0.25,0.25 0 0 1 0.1,0.22c-0.03,0.21 -0.17,0.31 -0.44,0.31z" class="cls-1"/>
  <path fill="#ffffff" id="svg_80" d="m141.13,201.92a0.65,0.65 0 0 0 -0.45,0.14a0.53,0.53 0 0 0 -0.16,0.41a0.52,0.52 0 0 0 0.17,0.41a0.6,0.6 0 0 0 0.44,0.14a0.61,0.61 0 0 0 0.44,-0.14a0.55,0.55 0 0 0 0.16,-0.41a0.57,0.57 0 0 0 -0.16,-0.41a0.64,0.64 0 0 0 -0.44,-0.14z" class="cls-1"/>
  <path fill="#ffffff" id="svg_81" d="m60.07,147.74l-2.81,0a8.45,8.45 0 0 1 -0.31,1.8a6.93,6.93 0 0 1 -0.62,1.48l-0.33,0l0,2.24l1.11,0l0,-1.26l2.45,0l0,1.31l1.11,0l0,-2.31l-0.58,0l-0.02,-3.26zm-1.14,3.26l-1.4,0a7,7 0 0 0 0.65,-2.35l0.75,0l0,2.35z" class="cls-1"/>
  <path fill="#ffffff" id="svg_82" d="m134.62,201.92a0.68,0.68 0 0 0 -0.46,0.14a0.57,0.57 0 0 0 -0.16,0.41a0.52,0.52 0 0 0 0.17,0.41a0.64,0.64 0 0 0 0.45,0.14a0.6,0.6 0 0 0 0.43,-0.14a0.55,0.55 0 0 0 0.16,-0.41a0.53,0.53 0 0 0 -0.16,-0.41a0.62,0.62 0 0 0 -0.43,-0.14z" class="cls-1"/>
  <path fill="#ffffff" id="svg_83" d="m139.45,199.4a2.18,2.18 0 0 0 -0.95,-0.2l-0.08,0l0,-0.52l-1.1,0l0,0.52l-0.1,0a2.06,2.06 0 0 0 -0.93,0.19a1.38,1.38 0 0 0 -0.62,0.55a1.63,1.63 0 0 0 -0.22,0.83a1.69,1.69 0 0 0 0.21,0.86a1.43,1.43 0 0 0 0.62,0.54a2.27,2.27 0 0 0 1,0.19l0,0l0,0.64l1.1,0l0,-0.65l0,0a2.27,2.27 0 0 0 1,-0.19a1.44,1.44 0 0 0 0.63,-0.56a1.57,1.57 0 0 0 0.21,-0.83a1.5,1.5 0 0 0 -0.22,-0.82a1.41,1.41 0 0 0 -0.55,-0.55zm-2.13,2.1l0,0a0.69,0.69 0 0 1 -0.53,-0.17a0.74,0.74 0 0 1 -0.18,-0.56a0.63,0.63 0 0 1 0.7,-0.7l0.06,0l-0.05,1.43zm1.68,-0.18a0.73,0.73 0 0 1 -0.54,0.18l0,0l0,-1.43l0.05,0a0.71,0.71 0 0 1 0.52,0.18a0.69,0.69 0 0 1 0.19,0.52a0.73,0.73 0 0 1 -0.22,0.55z" class="cls-1"/>
  <polygon fill="#ffffff" id="svg_84" points="160.18 200.87 159.29 200.87 159.29 199.69 158.17 199.69 158.17 202.95 159.29 202.95 159.29 201.7 160.18 201.7 160.18 202.95 161.31 202.95 161.31 199.69 160.18 199.69 160.18 200.87" class="cls-1"/>
  <path fill="#ffffff" id="svg_85" d="m160.57,190.28l0,4.93l2.79,0l0,-11.21l-4.05,0l-2.3,8l-0.01,0l-2.34,-8l-4,0l0,11.23l2.68,0l0,-4.88q0,-1.14 -0.15,-3.21l0.06,0l2.3,8.09l2.89,0l2.27,-8.08l0.06,0c-0.06,1.22 -0.09,2 -0.1,2.3s-0.1,0.55 -0.1,0.83z" class="cls-1"/>
  <path fill="#ffffff" id="svg_86" d="m154.84,201.69c0,-0.63 0,-1 0,-1l0,-1l-1,0l0,3.31l1.25,0l1.3,-2c0,0.42 0,0.79 0,1.1l0,0.9l1,0l0,-3.26l-1.25,0l-1.3,1.95z" class="cls-1"/>
  <polygon fill="#ffffff" id="svg_87" points="150.07 200.53 151.15 200.53 151.15 202.95 152.27 202.95 152.27 200.53 153.35 200.53 153.35 199.69 150.07 199.69 150.07 200.53" class="cls-1"/>
  <path fill="#ffffff" id="svg_88" d="m133.56,179.91a3.2,3.2 0 0 0 1.21,-2.7a2.93,2.93 0 0 0 -1.23,-2.58a6.25,6.25 0 0 0 -3.58,-0.85l-0.44,0l0,-1.72l4.34,0l0,-2.44l-7.39,0l0,11.23l3.6,0a5.56,5.56 0 0 0 3.49,-0.94zm-4,-1.4l0,-2.44l0.39,0a2.57,2.57 0 0 1 1.36,0.29a1,1 0 0 1 0.44,0.91a1.09,1.09 0 0 1 -0.42,0.93a2.31,2.31 0 0 1 -1.37,0.31l-0.4,0z" class="cls-1"/>
  <path fill="#ffffff" id="svg_89" d="m148.72,200.52a1.12,1.12 0 0 1 0.36,0c0.11,0 0.24,0.08 0.37,0.14l0.33,-0.83a2.3,2.3 0 0 0 -1.06,-0.25a1.56,1.56 0 0 0 -1.72,1.71a1.75,1.75 0 0 0 0.41,1.24a1.61,1.61 0 0 0 1.22,0.43a1.79,1.79 0 0 0 1,-0.29l0,-0.89a1.76,1.76 0 0 1 -0.95,0.29c-0.39,0 -0.58,-0.27 -0.58,-0.79a1,1 0 0 1 0.15,-0.6a0.49,0.49 0 0 1 0.47,-0.16z" class="cls-1"/>
  <path fill="#ffffff" id="svg_90" d="m145.28,199.91c-0.13,0.35 -0.22,0.66 -0.29,0.92l0,0c0,-0.05 0,-0.12 0,-0.19s-0.05,-0.15 -0.08,-0.22l-0.08,-0.21l-0.07,-0.18l-0.52,-1.29l-1.23,0l1.38,3a0.56,0.56 0 0 1 -0.2,0.28a0.49,0.49 0 0 1 -0.3,0.09a1.92,1.92 0 0 1 -0.69,-0.11l0,0.91a3.36,3.36 0 0 0 0.74,0.08a2.3,2.3 0 0 0 0.79,-0.12a1.3,1.3 0 0 0 0.55,-0.38a3.14,3.14 0 0 0 0.47,-0.81l1.28,-3l-1.23,0l-0.52,1.23z" class="cls-1"/>
  <polygon fill="#ffffff" id="svg_91" points="141.56 183.98 138.51 183.98 138.51 195.21 141.56 195.21 141.56 190.63 145.09 190.63 145.09 195.21 148.14 195.21 148.14 183.98 145.09 183.98 145.09 188.14 141.56 188.14 141.56 183.98" class="cls-1"/>
  <polygon fill="#ffffff" id="svg_92" points="139.69 172.08 144.13 172.08 144.13 169.62 136.65 169.62 136.65 180.85 139.69 180.85 139.69 172.08" class="cls-1"/>
  <polygon fill="#ffffff" id="svg_93" points="147.98 180.85 151.01 180.85 151.01 172.11 153.75 172.11 153.75 169.62 145.23 169.62 145.23 172.11 147.98 172.11 147.98 180.85" class="cls-1"/>
  <path fill="#ffffff" id="svg_94" d="m157.46,178.43a1.39,1.39 0 0 1 -0.8,0.22a5,5 0 0 1 -1.83,-0.28l0,2.41a7.53,7.53 0 0 0 2,0.23a6.12,6.12 0 0 0 2.11,-0.32a3.63,3.63 0 0 0 1.47,-1a8.4,8.4 0 0 0 1.25,-2.17l3.41,-7.89l-3.27,0l-1.14,3.13a24.47,24.47 0 0 0 -0.78,2.44l-0.11,0c0,-0.14 -0.08,-0.31 -0.14,-0.5s-0.13,-0.39 -0.2,-0.59s-0.15,-0.39 -0.22,-0.57s-0.14,-0.35 -0.19,-0.48l-1.38,-3.43l-3.27,0l3.66,8a1.5,1.5 0 0 1 -0.57,0.8z" class="cls-1"/>
  <path fill="#ffffff" id="svg_95" d="m164.43,199.84a1.64,1.64 0 0 0 -0.84,-0.21a1.62,1.62 0 0 0 -1.21,0.44a1.71,1.71 0 0 0 -0.43,1.25a1.66,1.66 0 0 0 0.44,1.23a1.53,1.53 0 0 0 1.18,0.46a1.58,1.58 0 0 0 1.2,-0.45a1.69,1.69 0 0 0 0.43,-1.24a1.87,1.87 0 0 0 -0.2,-0.9a1.33,1.33 0 0 0 -0.57,-0.58zm-0.43,2.16a0.38,0.38 0 0 1 -0.37,0.22a0.39,0.39 0 0 1 -0.38,-0.22a1.5,1.5 0 0 1 -0.11,-0.64a1.45,1.45 0 0 1 0.11,-0.63a0.39,0.39 0 0 1 0.37,-0.21a0.39,0.39 0 0 1 0.38,0.21a1.48,1.48 0 0 1 0.11,0.63a1.5,1.5 0 0 1 -0.11,0.64z" class="cls-1"/>
  <polygon fill="#ffffff" id="svg_96" points="129.88 195.21 136.55 195.21 136.55 192.74 132.92 192.74 132.92 190.61 136.28 190.61 136.28 188.18 132.92 188.18 132.92 186.41 136.55 186.41 136.55 183.98 129.88 183.98 129.88 195.21" class="cls-1"/>
  <polygon fill="#ffffff" id="svg_97" points="176.66 195.21 178.82 191.7 181.01 195.21 184.52 195.21 180.7 189.7 184.25 183.98 180.79 183.98 178.84 187.45 176.81 183.98 173.45 183.98 176.95 189.46 173.23 195.21 176.66 195.21" class="cls-1"/>
  <path fill="#ffffff" id="svg_98" d="m123.94,200.66l-0.11,0.38c-0.12,0.42 -0.19,0.68 -0.2,0.77c0,-0.12 -0.07,-0.34 -0.16,-0.66s-0.15,-0.55 -0.2,-0.7l-0.25,-0.76l-1.54,0l0,3.31l1,0l0,-2.43l0.06,0.21c0.12,0.44 0.24,0.83 0.36,1.18l0.33,1l0.77,0c0.28,-0.85 0.46,-1.4 0.54,-1.66s0.15,-0.53 0.21,-0.77l0,2.47l1,0l0,-3.26l-1.51,0l-0.3,0.92z" class="cls-1"/>
  <path fill="#ffffff" id="svg_99" d="m127,201.92a0.68,0.68 0 0 0 -0.46,0.14a0.57,0.57 0 0 0 -0.16,0.41a0.52,0.52 0 0 0 0.17,0.41a0.64,0.64 0 0 0 0.45,0.14a0.6,0.6 0 0 0 0.43,-0.14a0.55,0.55 0 0 0 0.16,-0.41a0.53,0.53 0 0 0 -0.16,-0.41a0.62,0.62 0 0 0 -0.43,-0.14z" class="cls-1"/>
  <path fill="#ffffff" id="svg_100" d="m122.39,195.36a5.36,5.36 0 0 0 4.08,-1.47a7.38,7.38 0 0 0 0,-8.62a5.3,5.3 0 0 0 -4.06,-1.47a5.36,5.36 0 0 0 -4.07,1.48a7.26,7.26 0 0 0 0,8.6a5.32,5.32 0 0 0 4.05,1.48zm0,-9.07a1.94,1.94 0 0 1 1.69,0.8a4.43,4.43 0 0 1 0.56,2.49a4.26,4.26 0 0 1 -0.56,2.46a1.94,1.94 0 0 1 -1.71,0.79c-1.51,0 -2.26,-1.08 -2.26,-3.25s0.78,-3.29 2.3,-3.29l-0.02,0z" class="cls-1"/>
  <polygon fill="#ffffff" id="svg_101" points="172.45 192.74 168.81 192.74 168.81 190.61 172.18 190.61 172.18 188.18 168.81 188.18 168.81 186.41 172.45 186.41 172.45 183.98 165.78 183.98 165.78 195.21 172.45 195.21 172.45 192.74" class="cls-1"/>
  <path fill="#ffffff" id="svg_102" d="m118.15,201.69c0,-0.63 0,-1 0,-1l0,-1l-1,0l0,3.31l1.25,0l1.3,-2c0,0.42 0,0.79 0,1.1l0,0.9l1,0l0,-3.26l-1.24,0l-1.31,1.95z" class="cls-1"/>
  <path fill="#ffffff" id="svg_103" d="m114.25,194.33a2.87,2.87 0 0 0 1.15,-2.41a2.81,2.81 0 0 0 -0.47,-1.68a2.65,2.65 0 0 0 -1.51,-0.92l0,-0.07a2.2,2.2 0 0 0 1.27,-0.86a2.73,2.73 0 0 0 0.49,-1.62a2.3,2.3 0 0 0 -1.12,-2.12a6.66,6.66 0 0 0 -3.39,-0.67l-3.92,0l0,11.23l4.37,0a5.06,5.06 0 0 0 3.13,-0.88zm-4.47,-8.06l0.86,0c1,0 1.42,0.32 1.42,0.95a0.93,0.93 0 0 1 -0.35,0.8a1.66,1.66 0 0 1 -1,0.27l-0.92,0l-0.01,-2.02zm0,6.59l0,-2.36l1,0a1.74,1.74 0 0 1 1.1,0.3a1,1 0 0 1 0.38,0.87c0,0.8 -0.47,1.19 -1.42,1.19l-1.06,0z" class="cls-1"/>
  <path fill="#ffffff" id="svg_104" d="m133.81,120.44a1.27,1.27 0 0 0 0.2,-1.62l-0.2,0.18a0.32,0.32 0 0 1 -0.43,0l0,0a0.28,0.28 0 0 1 0,-0.41l0.19,-0.19a1.42,1.42 0 0 0 -1.69,0.19a1.26,1.26 0 0 0 0,1.85a1.41,1.41 0 0 0 1.93,0z" class="cls-1"/>
  <path fill="#ffffff" id="svg_105" d="m158.5,120.45a1.28,1.28 0 0 0 0,-1.85a1.41,1.41 0 0 0 -1.65,-0.21l0.07,0.07a0.34,0.34 0 0 1 0,0.49a0.38,0.38 0 0 1 -0.51,0l-0.07,-0.07a1.27,1.27 0 0 0 0.22,1.57a1.42,1.42 0 0 0 1.94,0z" class="cls-1"/>
  <path fill="#ffffff" id="svg_106" d="m130.39,127.69a17.4,17.4 0 0 0 2.37,0.15c1.12,0 2.24,-0.08 3.33,-0.16s2.11,-0.14 3.12,-0.14a9.31,9.31 0 0 1 5.82,1.61a5.82,5.82 0 0 1 3.47,-1.49l1.34,0c0.63,0 1.46,0 2.41,0.09c1.21,0.06 2.59,0.13 3.94,0.13c2.84,0 4.8,-0.39 5.85,-1.16c2.18,-2.06 1.52,-3.82 1.52,-6.61c0,-4.35 -0.28,-23.68 -0.28,-35.21l-36.43,0c0,22.39 -0.14,33.05 -0.14,34.05c0,4.66 -0.01,8.37 3.68,8.74zm16.5,-39.39c0.26,-0.26 0.49,-0.19 0.67,0.11a0.32,0.32 0 0 1 0.22,0.12c0.07,0.11 -0.11,0.2 -0.1,0.31s0.46,0.07 0.19,0.29c0.11,-0.21 -0.36,0 -0.33,-0.25c0,0.23 0.27,0.39 -0.07,0.49c0.11,-0.22 -0.17,-0.38 -0.07,-0.51c0.24,-0.28 0,-0.45 -0.26,-0.5c0.1,0.41 0.06,0.76 -0.5,0.71c0.77,-0.07 0.1,-0.59 0.25,-0.77zm-1.89,-0.88l0.12,0l0,-0.11l0.11,0l0,0.11l0.12,0l0,0.11l-0.12,0l0,0.11l-0.11,0l0,-0.11l-0.12,0l0,-0.11zm-0.77,2.35c0.46,0 0.11,-0.13 0.14,-0.36c0.31,-0.18 0.54,-0.62 0.9,-0.23c0.14,0.18 -0.52,0.67 0.24,0.77c-0.55,0.05 -0.59,-0.3 -0.49,-0.71c-0.31,0 -0.5,0.22 -0.26,0.5c0.1,0.13 -0.19,0.29 -0.07,0.51c-0.34,-0.1 0,-0.26 -0.07,-0.49c0,0.29 -0.44,0 -0.34,0.25a0.16,0.16 0 0 1 -1.94,-1.12l1.89,0.88zm-11.43,30a2.25,2.25 0 0 1 2,-1.37a2,2 0 0 1 1,0.28c0.09,-0.1 0.23,-0.23 0.42,-0.41c0.16,-0.51 1.4,-1.79 6.76,-6.75c1.26,-1.16 2.54,-2.35 2.95,-2.78l-12.17,-10.74c-0.29,0.47 -0.75,1.83 0.24,4c0,0 0,0 0,-0.07a0.28,0.28 0 0 1 0.26,-0.21l0,0a0.27,0.27 0 0 1 0.27,0.19a2.37,2.37 0 0 0 0.86,1.44l0.28,0.25a0.27,0.27 0 0 1 0,0.32a0.28,0.28 0 0 1 -0.24,0.14l-0.08,0l-0.66,-0.17c-0.55,-0.13 -1.11,-0.26 -1.58,-0.42a0.28,0.28 0 0 1 -0.18,-0.23a0.26,0.26 0 0 1 0.15,-0.26l0.09,-0.05a5.91,5.91 0 0 1 -1.38,-5.31a3.69,3.69 0 0 0 -0.19,-2.33a0.26,0.26 0 0 1 0,-0.33a0.3,0.3 0 0 1 0.2,-0.08a0.23,0.23 0 0 1 0.14,0a2.44,2.44 0 0 0 1.23,0.27c0.37,0 0.78,0 1.22,-0.09a15.47,15.47 0 0 1 1.57,-0.11a6,6 0 0 1 4,1.43l0,-0.09a0.27,0.27 0 0 1 0.24,-0.14l0,0a0.3,0.3 0 0 1 0.24,0.18c0.16,0.45 0.3,1 0.44,1.5c0.06,0.22 0.12,0.44 0.17,0.64a0.26,0.26 0 0 1 -0.13,0.3a0.23,0.23 0 0 1 -0.14,0a0.27,0.27 0 0 1 -0.19,-0.08l-0.26,-0.26a2.56,2.56 0 0 0 -1.51,-0.82a0.29,0.29 0 0 1 -0.2,-0.27a0.26,0.26 0 0 1 0.22,-0.25l0.07,0a6.78,6.78 0 0 0 -2.57,-0.57a3.34,3.34 0 0 0 -1.6,0.34l9.4,9a0.85,0.85 0 0 1 0.17,-0.44a1.86,1.86 0 0 1 -0.2,-1.28a2.79,2.79 0 0 0 0,-0.49a0.26,0.26 0 0 1 0.16,-0.44a3.61,3.61 0 0 1 -0.17,-2.64a5,5 0 0 0 -0.18,-3.22a0.26,0.26 0 0 1 0,-0.24a0.19,0.19 0 0 1 0.08,-0.07l0.92,0c-0.61,0 -0.81,-1.22 -0.44,-1.67c-0.19,0 -0.26,-0.22 -0.35,-0.2c-0.29,0.25 -0.51,-0.14 -0.45,-0.28c-0.11,0.11 0,0.29 -0.19,0.31c0.23,-0.1 -0.43,-0.37 0.12,-0.59c-0.13,0 -0.31,-0.25 0,-0.33c-0.23,0.49 0.72,-0.21 0.94,-0.29c-0.13,0 -0.17,0 -0.27,0.07c0.63,-0.48 -0.16,-1.1 -0.3,-0.45c0,0.18 0.43,0.06 0.2,0.17a0.38,0.38 0 0 1 -0.18,0.06c0.33,0.47 -0.8,0.14 -1.15,0.59c0.12,0.21 0,0.47 -0.08,0.18c-0.12,0 -0.3,-0.09 -0.32,-0.21s-0.17,-0.35 0,-0.42a0,0 0 0 1 0,0c-0.11,0 -0.12,-0.3 -0.2,-0.3l0.15,-0.07c-0.05,0.06 0.18,0.25 0.12,0.34l0,0c0.14,-0.27 0.18,0.1 0.37,0.15s0.73,-0.08 0.62,-0.39c0,0 0,0.07 -0.13,0.12a0.19,0.19 0 0 0 0,-0.13s-0.13,0.15 -0.19,0.16s0.1,-0.22 0,-0.25s-0.26,0.16 -0.31,0c0.29,0 0,-0.31 0.17,-0.49c0.41,-0.44 0.23,0 0.6,-0.31c0,0 0.14,-0.55 -0.11,-0.69c0,-0.21 -0.09,0.17 -0.26,0c0.16,0.64 -0.55,0.7 -0.3,0c0,0 -0.05,0 -0.07,0c-0.08,0.76 -0.55,0.68 -0.41,0.17c-0.31,0.53 -0.7,0.2 -0.13,-0.44c-0.2,0.18 -0.37,0.56 -0.69,0.5c0.12,0.38 0.61,0.83 0.54,1.2c-0.4,-0.28 -0.47,-1.09 -0.77,-1.47c0,0 0,0 -0.05,0a0,0 0 0 1 0,0s-0.07,0 -0.17,0s0.06,-0.13 0.07,0s0.07,-0.17 0,-0.1s-0.25,-0.1 -0.25,-0.22c-0.15,-0.06 0.11,0 0.16,0s-0.06,0.08 0.06,0s-0.07,-0.11 -0.1,-0.09s-0.09,0 0,0c-0.16,-0.08 0.25,-0.25 0.36,-0.27c-0.76,0 -0.49,-0.43 0.1,-0.38c-1,-0.09 -0.74,-0.39 -0.18,-0.36c-0.46,-0.19 -0.85,-0.55 -0.05,-0.38c-0.65,-0.38 -0.36,-0.59 0.08,-0.4a0.58,0.58 0 0 1 -0.34,-0.77c0.28,0.26 0.62,0.52 0.89,0.76c-0.33,-0.44 -1,-0.71 -0.56,-1.41a10,10 0 0 0 0.73,1.17a0.3,0.3 0 0 1 0.08,-0.17a4.14,4.14 0 0 0 0.3,0.5a0.22,0.22 0 0 1 0,-0.11c0.37,0.58 0.86,0.6 0.54,1s0.34,0.48 0.52,0.26c-0.14,-0.06 -0.23,-0.23 -0.1,-0.35c0,0.23 0.49,0 0.48,-0.07a0.22,0.22 0 0 1 -0.33,-0.14c0.63,0.17 0.29,-0.61 0.05,-0.81c-0.17,0 -0.47,-0.09 -0.5,0.17c-0.19,-0.07 0.1,-0.34 0.29,-0.25c-0.23,-0.14 -0.84,0.45 -0.88,-0.07c0.15,0.28 0.55,-0.09 0.76,0a0.4,0.4 0 0 0 -0.5,0a0.26,0.26 0 0 1 0.24,-0.43c0,-0.1 0.12,-0.13 0.21,-0.14l-0.07,0c0,-0.19 -0.25,-0.5 0.11,-0.55l0.06,0l0,0s0,0 0,0l0,0c-0.26,-0.17 0.28,-0.17 0,0l0,0l0,0s0.05,0 0.05,0l0.06,0c0.28,0 0.25,0.34 0.09,0.49l0,0a2,2 0 0 0 0.61,-0.32l-0.06,0l0,-0.1c-0.24,-0.24 -0.3,-0.74 0.14,-0.77l0,0l0.1,0c0,0.1 0.1,0.1 0.08,0l0.07,0c-0.41,-0.27 0.45,-0.27 0,0l0.06,0s0,0.08 0.05,0.08l0,-0.08l0.1,0l0,0c0.57,0.07 0.23,0.56 0.16,0.87l-0.06,0a2,2 0 0 0 0.61,0.32l0,0c-0.16,-0.15 -0.19,-0.47 0.09,-0.49l0.06,0s0,0 0.05,0l0,0l0.05,0c-0.26,-0.17 0.28,-0.17 0,0l0,0s0,0 0,0l0,0l0.06,0c0.36,0 0.16,0.36 0.11,0.55l-0.09,0c0.05,0 0.11,0 0.14,0s0.09,0.06 0.07,0.12a0.26,0.26 0 0 1 0.27,0.42a0.42,0.42 0 0 0 -0.51,0l0,0c0.21,-0.08 0.61,0.29 0.76,0c0,0.52 -0.65,-0.07 -0.88,0.07c0.19,-0.09 0.48,0.18 0.29,0.25a0.26,0.26 0 0 0 -0.19,-0.2c-0.47,-0.16 -1,1 -0.28,0.84a0.22,0.22 0 0 1 -0.32,0.14c0.08,0.16 0.47,0.26 0.48,0.07c0.13,0.12 0,0.29 -0.12,0.36c0.18,0.21 0.8,0.06 0.52,-0.27s0.17,-0.44 0.54,-1a0.22,0.22 0 0 1 0.05,0.11a4.14,4.14 0 0 0 0.3,-0.5a0.38,0.38 0 0 1 0.08,0.17a10,10 0 0 0 0.73,-1.17c0.42,0.7 -0.23,1 -0.56,1.41c0.27,-0.24 0.61,-0.5 0.89,-0.76c0.17,0.66 -0.32,0.7 -0.66,1c1,-0.61 0.9,-0.13 0.38,0.2c0.56,-0.13 0.58,0.19 -0.05,0.38c0.58,0 0.84,0.27 -0.17,0.36c0.6,0 0.87,0.41 0.11,0.38c0.58,0.14 0.35,0.43 -0.14,0.29c0.59,0.28 0.13,0.53 -0.22,0.27c0.52,0.49 0,0.5 -0.31,0.17c0.24,0.45 -0.08,0.76 -0.4,0c-0.2,-0.31 0.3,0.47 0,0.59s-0.31,-0.35 -0.39,-0.59c0,0 0,0 -0.06,0c0.24,0.65 -0.47,0.59 -0.3,0c-0.17,0.12 -0.25,-0.26 -0.26,0c-0.23,0.16 -0.1,0.65 -0.1,0.69c0.37,0.28 0.19,-0.13 0.6,0.31c0.13,0.18 -0.12,0.48 0.17,0.49c-0.06,0.18 -0.24,0.08 -0.31,0c-0.08,0.08 -0.07,0.17 0,0.27s-0.15,-0.11 -0.19,-0.16a0.19,0.19 0 0 0 0,0.13a0.26,0.26 0 0 1 -0.12,-0.11c0,0.32 0.55,0.51 0.84,0.39c0,-0.3 0,-0.73 0.47,-0.79l-0.05,0l0.05,-0.14l-0.16,0l0,-0.13l0.16,0l-0.05,-0.14l0.15,0l0,0.14l0.16,0l0,0.13l-0.16,0l0,0.14l0,0c0.88,0.26 0.29,1.13 -0.38,1.16c-0.37,-0.37 -1.74,-0.1 -1.33,-0.73c-0.06,0.13 -0.22,0.1 -0.3,0c-0.23,-0.11 0.2,0 0.2,-0.17c-0.15,-0.66 -0.91,0 -0.3,0.45c-0.11,-0.09 -0.15,0 -0.29,-0.08c0.22,0.09 1.18,0.79 0.95,0.3c0.33,0.08 0.14,0.35 0,0.33c0.55,0.22 -0.1,0.49 0.13,0.59c-0.17,0 -0.08,-0.2 -0.2,-0.31a0.28,0.28 0 0 1 -0.49,0.26a0.32,0.32 0 0 1 -0.3,0.22c0.37,0.45 0.17,1.69 -0.44,1.67l1,0s0,0 0.08,0.07a0.28,0.28 0 0 1 0,0.24a5,5 0 0 0 -0.18,3.22a3.61,3.61 0 0 1 -0.17,2.64a0.26,0.26 0 0 1 0.16,0.44a2.79,2.79 0 0 0 0,0.49a1.86,1.86 0 0 1 -0.2,1.28a0.79,0.79 0 0 1 0.17,0.46l1.86,-1.7c2.09,-1.92 6.78,-5.7 6.9,-6.76a3.31,3.31 0 0 0 -2.23,1a0.2,0.2 0 0 0 0,0.24a0.26,0.26 0 0 1 -0.05,0.37l-0.69,1.1a0.27,0.27 0 0 1 -0.17,0.06a0.33,0.33 0 0 1 -0.16,0a0.27,0.27 0 0 1 -0.11,-0.3l0.61,-1.94a0.27,0.27 0 0 1 0.27,-0.19l0,0a0.26,0.26 0 0 1 0.23,0.13a6.52,6.52 0 0 0 0.76,-0.52a8.13,8.13 0 0 1 1.16,-0.78l-0.26,0a3.24,3.24 0 0 0 -2.19,0.73a0.11,0.11 0 0 0 0,0.12a0.26,0.26 0 0 1 0,0.23a0.31,0.31 0 0 1 -0.17,0.17a4,4 0 0 0 -1.61,0.94a0.26,0.26 0 0 1 -0.22,0.1l-0.11,0a0.26,0.26 0 0 1 -0.16,-0.29a5.73,5.73 0 0 1 0.72,-1.67l0.24,-0.44a0.26,0.26 0 0 1 0.24,-0.14l0,0a0.27,0.27 0 0 1 0.24,0.12a0.43,0.43 0 0 0 0,0.07a4.59,4.59 0 0 1 3,-1.31a2.82,2.82 0 0 1 2.81,2.36a3.27,3.27 0 0 1 2.55,2.3a2.62,2.62 0 0 1 -1.34,2.68l0,0a0.26,0.26 0 0 1 -0.06,0.49l-2,0.58l-0.08,0a0.27,0.27 0 0 1 -0.23,-0.12a0.24,0.24 0 0 1 0,-0.31l1.13,-1.34l0,0l0.05,-0.06a0.32,0.32 0 0 1 0.22,-0.1a0.27,0.27 0 0 1 0.17,0.06a0.24,0.24 0 0 0 0.14,0.06c0.09,0 0.27,-0.16 0.43,-0.6a3.09,3.09 0 0 0 0.16,-0.83a7.36,7.36 0 0 1 -0.71,0.78a4.33,4.33 0 0 0 -0.49,0.55a0.06,0.06 0 0 1 0,0.09a5.31,5.31 0 0 1 -2,0.79l-0.24,0l0,0a0.27,0.27 0 0 1 -0.26,-0.16a0.26,0.26 0 0 1 0.09,-0.32c0.48,-0.34 1,-0.79 1.12,-1.19a0.29,0.29 0 0 1 0.14,-0.17a0.23,0.23 0 0 1 0.14,0l0.08,0l0.16,0c0.49,0 1,-0.65 1,-1.16a2.49,2.49 0 0 0 -0.07,-0.9a4.3,4.3 0 0 0 -1,0.53c-0.62,0.59 -7.72,7.31 -9,8.53l8.78,8.24c0.2,-0.17 0.4,-0.33 0.6,-0.47a0.27,0.27 0 0 1 0.17,-0.06a0.28,0.28 0 0 1 0.22,0.1l0.32,0.4a11.69,11.69 0 0 1 2,-1.1l0.11,0a0.29,0.29 0 0 1 0.26,0.16l0.3,0.62a0.3,0.3 0 0 1 0,0.21a0.31,0.31 0 0 1 -0.15,0.15a9.63,9.63 0 0 0 -2.54,1.57l0.16,0.15a2,2 0 0 1 1,-0.26a2.23,2.23 0 0 1 2,1.38a1.8,1.8 0 0 1 -0.48,2.09a2,2 0 0 1 -1.41,0.59a2.33,2.33 0 0 1 -2,-1.2a1.76,1.76 0 0 1 0.05,-1.79l-0.16,-0.15a9.45,9.45 0 0 0 -1.64,2.43a0.28,0.28 0 0 1 -0.16,0.14l-0.1,0a0.27,0.27 0 0 1 -0.12,0l-0.65,-0.28a0.28,0.28 0 0 1 -0.14,-0.35a10.63,10.63 0 0 1 1.15,-2l-0.41,-0.31a0.24,0.24 0 0 1 -0.05,-0.37c0.15,-0.19 0.32,-0.38 0.49,-0.57l-8.05,-7.71c0.33,3.29 0.21,5.4 -0.1,6.24l0,0a0.28,0.28 0 0 1 0.27,0.21a0.24,0.24 0 0 1 -0.13,0.28a2.36,2.36 0 0 0 0,0.62a1.86,1.86 0 0 1 -0.07,1.13a0.72,0.72 0 0 1 0.14,0.48a0.76,0.76 0 0 1 -0.26,0.54l0.09,0.34a4.48,4.48 0 0 1 0.27,1.87a1.24,1.24 0 0 1 -0.23,0.61a0.66,0.66 0 0 1 0.1,0.7a0.81,0.81 0 0 1 -0.77,0.41a0.82,0.82 0 0 1 -0.78,-0.41a0.66,0.66 0 0 1 0.11,-0.71c-0.5,-0.67 -0.2,-1.69 0,-2.45c0,-0.13 0.07,-0.25 0.1,-0.36a0.73,0.73 0 0 1 -0.27,-0.54a0.77,0.77 0 0 1 0.13,-0.48a1.94,1.94 0 0 1 -0.06,-1.13a2.34,2.34 0 0 0 0,-0.62a0.25,0.25 0 0 1 -0.13,-0.28a0.28,0.28 0 0 1 0.27,-0.21l0.06,0c-0.32,-0.86 -0.46,-3 -0.1,-6.34l0,0l-0.06,0.07l-0.05,0c-0.58,0.56 -1.49,1.45 -2.37,2.33c-4.72,4.67 -6.34,6.16 -6.91,6.33l-0.42,0.4a1.76,1.76 0 0 1 0.08,1.8a2.31,2.31 0 0 1 -2,1.24a2,2 0 0 1 -1.42,-0.61a1.8,1.8 0 0 1 -0.35,-1.97l1.89,0.91z" class="cls-1"/>
  <path fill="#ffffff" id="svg_107" d="m219.52,106.2a95.85,95.85 0 0 1 -3.82,-11.88c-0.84,-3.21 -1.42,-7.46 -2.37,-11.71l0,0a33.32,33.32 0 0 0 -3.91,-11.17c-4.14,-6.07 -12.57,-9.1 -18.92,-4.46c-4.9,3.71 -9.45,0 -14.15,4.66c-3,3 -4.4,6.46 -6.83,7.3c-1.87,0.65 -2,0.27 -3.18,-1c-2.32,-2.34 -4,-11.52 0.28,-13.79c2.16,-1.14 5.86,-1.37 8.26,-1.25c2.93,0.22 7,-1.33 7,2.79c3.8,-3.9 7.41,-6.3 5.31,-11.82c0.06,-1.43 0.57,-5.8 -3.6,-7.29c-1,-0.73 -0.4,-0.9 -1.1,-1.61c-0.49,-0.5 -0.52,-0.13 -1.13,-0.86c-3.79,-4.52 -3.9,-3.23 -7.94,-3.73c-2.91,-0.36 -3.28,-1.92 -6.94,-2.11c-6.6,-0.34 -10.71,1.34 -17.43,-0.94c0.46,2.84 4,4.06 5.19,5.83c-0.87,0.7 -6,2.24 -6.78,5.89c1.83,0 3.84,-0.39 5.53,0.41c-5,2.49 -5.45,4.22 -7.77,8.26c-2.32,-4 -2.79,-5.77 -7.78,-8.26c1.7,-0.8 3.71,-0.45 5.54,-0.41c-0.8,-3.65 -5.91,-5.19 -6.79,-5.89c1.21,-1.77 4.74,-3 5.2,-5.83c-6.73,2.28 -10.83,0.6 -17.43,0.94c-3.66,0.19 -4,1.75 -6.94,2.11c-4,0.5 -4.15,-0.79 -7.94,3.73c-0.61,0.73 -0.64,0.36 -1.13,0.86c-0.71,0.71 -0.11,0.88 -1.11,1.61c-4.16,1.49 -3.66,5.86 -3.59,7.29c-2.1,5.52 1.51,7.92 5.31,11.82c0,-4.12 4.06,-2.57 7,-2.79c2.4,-0.12 6.1,0.11 8.26,1.25c4.3,2.27 2.6,11.45 0.28,13.79c-1.23,1.24 -1.31,1.62 -3.18,1c-2.43,-0.84 -3.82,-4.33 -6.83,-7.3c-4.7,-4.62 -9.26,-1 -14.15,-4.66c-6.77,-4.94 -16,-1.23 -19.67,5.68a43.46,43.46 0 0 0 -2.88,11l0,0c-0.75,3.6 -1.26,7.3 -2.08,10.83c-2,8.68 -2.47,8 -4,12.39l4.27,-2c-0.09,10.83 0,21.69 0,32.53c0,5.89 0.85,8.24 2.69,13.59s1.58,9 1.73,14.68l1.28,-1.42c-5.36,31.23 33.85,57.2 63.94,57.42c29.91,0 69.09,-24.22 64.37,-57.55c0.68,0.47 0.68,0.86 1.42,1.56c0.46,-6.08 -0.31,-8.65 1.73,-14.75c1.81,-5.45 2.67,-7.56 2.66,-13.55c0,-6.53 -0.32,-27.72 0,-32.52l4.12,1.33zm-32.52,-3.52c1.16,1.87 1.83,2.69 5.78,5.24a16.94,16.94 0 0 0 2.33,-4.3l0.32,5l-0.61,0.14a9.44,9.44 0 0 0 -4.72,14.51s-1,-0.56 -3,-1.63l-0.1,-18.96zm-92.29,67.46c3.85,11.63 26.84,8.86 35.89,-10.35l29.12,0.12c4.12,6.44 2.39,4.59 7.88,10.39c8.13,8.59 28.46,10 28.6,-3.58a9.8,9.8 0 0 0 -0.23,-2.58c0.44,-1 1.84,-3.38 2.2,-4.34c6.18,6 4.29,16.41 0.34,23.1a65.64,65.64 0 0 1 -14.59,16.1c-20.66,15.73 -47.37,17.75 -70,5.13c-11.9,-6.64 -26.15,-20.65 -25.51,-35.71c0.48,-11.57 14,-16.77 14.86,-8.2c-3.26,-0.28 -5.39,-0.81 -7.72,1.92c-1.68,2.01 -1.63,5.63 -0.84,8zm100.49,-7.66a15.13,15.13 0 0 1 -1.21,-4.27a33.61,33.61 0 0 1 -2.66,3.59c-2.88,3.84 -8.41,7.34 -14.07,5.11c-5.24,-2.06 -10.36,-8.86 -11.82,-14.28c9.57,-4.15 11.64,-9.67 18.19,-18.39c0.6,0.77 0.88,1.07 1.31,1.55l2.08,0.79c-0.42,1.71 -11.43,14.69 -10.91,19.18a4.58,4.58 0 0 0 1.22,3.2c3.58,4.07 12,0.85 14.53,-2.32a10.91,10.91 0 0 1 -4,-1.14c0.58,-0.54 9,-4.56 10.83,-4.9c0.03,0 -2.03,9.99 -3.49,11.88zm-85,-9.55c4,-1.48 4.45,-1.58 7.34,-4.57c3,0.1 4.7,1.64 6.39,3.88c0,5 -2.34,8.33 -6.15,11.79l-7.58,-11.1zm6.14,12.32a12.12,12.12 0 0 1 -8.61,3.59c5.24,-1.8 5.25,-5.82 5.47,-8.27l3.14,4.68zm-7.49,-60.47c0.81,1.91 1.76,4.56 3.69,6.32l3.85,-2.42c0.49,4.43 0.08,11.44 0.08,16.15c0,4.2 0.35,12.69 -0.07,17c-2.47,-2.58 -5.34,-6.1 -7.53,-8.89l-0.02,-28.16zm24.68,68.12a3.13,3.13 0 0 1 1.29,-1.31l0,17s-0.23,5.09 3.84,6.05a16,16 0 0 1 -5.08,7.12l-0.05,-28.86zm22,-24.39l19.93,0a6.72,6.72 0 0 1 0.1,0.7l0,-26.21c-0.18,5.42 -2.91,6.56 -12.74,6.15a22.93,22.93 0 0 0 -3,0.11a11,11 0 0 0 -4,1.76c-0.4,-0.19 -3,-2 -5.27,-2.09c-1.92,0 -4.58,0.26 -6.57,0.26c-3.71,0 -7.26,-1.13 -7.73,-5c0,0.07 0,-0.68 -0.06,-1.09l0,-39.65a0.37,0.37 0 0 0 0,-0.09l19.34,65.15zm-6.55,-1.36a12.54,12.54 0 0 1 3,-3.15l-20.06,-62l17.06,65.15zm10.63,1.36l1.87,-3a5,5 0 0 1 1.35,2.84c1.83,-0.59 3.13,-2.66 4.17,-4l0.88,-1.45l-22.67,-61.9l3.22,-4.62l0.88,1.45c1,1.39 2.33,3.46 4.17,4a5,5 0 0 1 1.35,-2.83l1.87,3l-8,0c-1.16,0 -2.32,0 -3.44,0s-2.28,0 -3.44,0l17.79,66.51zm24,-3.15a12.21,12.21 0 0 1 3,3.15l-28.11,0l25.11,-3.15zm20.72,39.68l2.87,1.73l-4,5.43c-0.58,-0.53 -1.71,-1.68 -2.7,-2.65a28.86,28.86 0 0 1 -22.05,-71.04l25.88,66.53zm18.69,11.6l2.33,2.4a30.7,30.7 0 0 1 -3.71,6.07c-2.06,-0.65 -6.65,-2.68 -9.89,-4.16c-1.49,-1.43 -5.52,-5.62 -7.42,-7.73a30.9,30.9 0 0 1 4.26,-5.67c-21.95,-64.79 -14.13,-60.37 -11.45,-57.44l25.88,66.53zm5.07,-18.36c5.92,4.12 2.28,14.36 -4.78,13.33a24.31,24.31 0 0 1 4,-5a4.48,4.48 0 0 0 -7.45,-5c-0.79,1.07 -1.06,3.34 -3.08,5.63c-29.41,-70.93 -21.92,-81.06 -14.57,-75.49l25.88,66.53zm3.25,10.79a7.94,7.94 0 0 1 0,0.85l-0.06,29.71c-6.16,-3.9 -7.28,-7 -7.72,-12l3.33,1.42l4.19,-6.59c-0.28,-0.34 -0.95,-1.09 -1.25,-1.41c-1.83,-1.79 -4.79,-4.72 -6.16,-6l-2,-1.51c5.08,-0.06 7.31,-1.54 9.48,-4.2l0.19,-0.27zm-36.26,-39.04l-11,5.31l5.24,1.95c-3.52,1.7 -6.47,2.62 -9.31,1.31c0.16,-2.6 5.92,-11.6 14.88,-8.3l0.19,-0.27zm19.76,46.21c-1,-3.05 1.18,-6.17 2,-7.62c0.31,-0.53 1.18,-1.94 2.26,-3.66l5.72,1.87a5.89,5.89 0 0 0 0.59,0.21c-40.41,-38.31 -44.49,-36.18 -47.02,-29.57l36.45,38.77zm8.18,-17.31c0.76,-1.14 1.45,-2.15 2,-2.87c1.39,0.57 4,1.66 6.4,2.7l-0.06,7.85c-43.51,-40.09 -44.5,-44.78 -44.79,-46.45l36.45,38.77zm10.57,-0.73l3.6,-5.7l2.68,2.23a46.77,46.77 0 0 1 -3,4.9l-3.28,-1.43zm-2.06,-13.76a30.64,30.64 0 0 1 -3.84,-2.47c1,-1.7 3.83,-7.34 6.3,-5.44c-33.93,-37.25 -37.52,-32.44 -38.91,-30.86l36.45,38.77zm-12.68,7.15a34,34 0 0 1 -3.64,5.47l-0.15,0.17c-1.24,-2.16 -0.9,-7.84 -0.94,-10.34c-34.82,-37.21 -33.12,-35.66 -31.72,-34.07l36.45,38.77zm-12.86,10.5l-2,-0.06c0.12,-3.4 3.25,-5.41 5.78,-3.13c3.3,3 0,4.48 -1.46,6.46c-35.24,-41.29 -36.53,-44.26 -38.77,-42.04l36.45,38.77zm-3.43,0l-1.63,-0.07c-0.14,-0.83 -0.14,-1.79 -1.26,-1.81c-0.9,0 -1.23,0.64 -1.14,1.81l-2.62,0c-37.66,-45.51 -28.3,-45.17 -29.8,-38.73l36.45,38.8zm-6.22,-12.48c-8,2.75 -4.2,5.75 -8.24,7a10,10 0 0 1 -1.57,0.25l-0.85,-7.45c2.56,-0.8 6.35,0.35 12.12,-0.8c-36.65,-38.13 -36.57,-38.22 -37.91,-37.8l36.45,38.8zm-2.34,12.39l-38.5,0c-0.12,-1.59 -0.51,-1.75 -1.27,-1.76c-1.3,0 -1.55,1.5 -1.58,1.75c-0.2,0 -0.7,0 -1.77,0c-1.13,-45.75 7.93,-45.27 6.67,-38.79l36.45,38.8zm-9.8,0l-5.11,0l0.88,-11.84a11.15,11.15 0 0 1 1.69,0.65a7.89,7.89 0 0 1 1.89,-0.73l0.65,11.92zm-12.4,-9.61c-1.84,-2.26 -4.31,-1.85 -6,-3.15c-0.21,-0.16 -0.28,-0.69 -0.2,-0.67a10.63,10.63 0 0 1 1.21,0.33c3.14,0.92 8.19,-0.78 11,0.54l-1.24,7.8c-40.1,-39.18 -40.44,-42.71 -41.22,-43.69l36.45,38.84zm3,9.68l-1.77,0c-0.17,-1.12 -0.28,-1.83 -1.58,-1.79s-1.17,1 -1.37,1.87l-2,0c-37.49,-45.48 -28.92,-46.01 -29.77,-38.92l36.49,38.84zm-20.93,3.52a3.88,3.88 0 0 1 -1.5,-6.66c2.53,-2.22 5.71,-0.13 5.73,3.31c-1.13,0 -1.59,0.28 -2.18,-0.4a1.36,1.36 0 0 0 -1.86,0c-37.82,-37.92 -36.99,-36.27 -36.68,-35.09l36.49,38.84zm12.33,-3.6a7.57,7.57 0 0 1 -2.23,0c0,-0.89 0.08,-1.71 -1.28,-1.72s-1.55,1.14 -1.73,1.82l-37.96,0c-1.56,-44.95 7.83,-45.78 6.71,-38.94l36.49,38.84zm-9.37,-5.33l0,0a20.05,20.05 0 0 0 -2.72,-0.05a4.26,4.26 0 0 0 -0.82,0.24a6.53,6.53 0 0 0 -1.36,0.52l0,-36.71a36.58,36.58 0 0 0 3.83,8l1.65,-1c0.54,3.1 0.19,11.38 0.19,15c-36.46,-35.74 -36.43,-27.26 -37.26,-24.84l36.49,38.84zm-18.07,-14.11c-0.53,-1.36 -0.53,-2.14 -1.71,-2.25c-0.74,-0.08 -2.67,-3.35 -3.27,-4.4c-1.19,-1.63 -0.07,-3.3 -1.28,-4.64c-0.06,-2.24 -0.2,-6.44 -0.08,-8.61l2,4.15c2.16,-0.69 4.5,-2.92 5.8,-4.51l0,22.23c-37.38,-40.04 -37.95,-40.81 -37.95,-40.81l36.49,38.84zm-1.67,18.8c0.2,3.36 -1.68,4.73 -3.33,5.18c-0.41,0 -0.82,0.08 -1.21,0.14l0,-50.39c-35.04,1.86 -33.43,4.05 -31.95,6.23l36.49,38.84zm-8.6,-13.9l-4.65,-5.4c4.1,-1.12 5.88,-3.51 8.44,-6.32l3.89,5.76c-37.26,-36.38 -41.44,-33.04 -44.17,-32.88l36.49,38.84zm8.75,-2.35c6.65,-1.24 0.07,8.33 -6,9.42c-51.54,-51.52 -45.24,-61 -39.1,-62.16l45.1,52.74zm0.08,-1.14a13.09,13.09 0 0 0 -1.51,0.21a12.31,12.31 0 0 0 -5.14,3c0,-4.18 -0.65,-11.57 -0.44,-15.25l2.37,5.36a17.77,17.77 0 0 0 5.76,-4.47l0,11.11a6.14,6.14 0 0 0 -46.14,-52.7l45.1,52.74zm-6.56,12.37l0.12,0c1.39,0.58 3.48,3.84 4.42,5.48c0.1,1.81 0.71,1.89 1.86,2.3c0.27,0.27 0.7,0.75 1.23,1.39c0.34,3.25 -0.21,10.05 -1.1,12.53a13.62,13.62 0 0 1 -2.46,4.16a22.55,22.55 0 0 1 -49.24,-49.19l0,-29a1.19,1.19 0 0 1 0.07,-0.41l45.1,52.74zm8,6.91a13,13 0 0 0 7.54,-5.79c4.16,5.4 8.06,10.45 12.47,15.51c-0.91,3 -0.77,4.39 1.1,7a10.82,10.82 0 0 1 -6.13,3.36c-48.74,-57.32 -56.05,-67.99 -60.11,-72.82l45.13,52.74zm26.43,15.92l0.09,-1.89l4.3,0a4,4 0 0 0 2.89,2.69l0,-55.46l6.29,0a5.73,5.73 0 0 1 -0.88,3c2.17,0.06 3.31,-1.84 3.72,-3l16.25,0c0.77,1.79 1.41,2.75 3.71,3.1l-0.93,-3.09l6.65,0l-0.32,2.72c1.52,-0.31 2.14,-1.23 2.66,-2.74l5.16,0.06c0,3 -1.71,3.4 -3,4.23c-1.78,1.15 -4.43,0.67 -6.57,0.67l-73.83,0c-5.78,0.01 -6.74,0.62 -11.32,-3.03l45.13,52.74zm85.31,-34.11a9.31,9.31 0 0 0 -7.62,-4l0,-8.23c1.46,1.08 1.63,2.4 5.74,4.47l1.88,-3.37l0,10.49a9.09,9.09 0 0 1 0.15,0.91l-0.15,-0.27zm-72.65,-48.44l-0.34,0.35l0,-12.96a11.53,11.53 0 0 0 4.07,2.29a21.5,21.5 0 0 0 3.62,-6.14l0,20.48c-1.73,-0.95 -4.2,-2.22 -7.2,-3.75l-0.15,-0.27zm70.26,51.06c-1,1.1 -1.93,2.29 -2.88,3.41a38.17,38.17 0 0 0 2.86,3.18l-0.05,14c-2.43,-2.34 -2.49,-1.56 -5,-2.58c-0.68,-2.18 -0.38,-24.43 -0.36,-28.54c0.66,0.43 0.76,0.44 1.47,0.88a19.6,19.6 0 0 0 3.8,-8.51c-72.07,-46.25 -72.3,-32.35 -72.34,-30.01l72.5,48.17zm-7.51,17.18l-0.32,-0.15c-2.25,-1.08 -5,-4.36 -5.37,-7c3.49,-1.44 3.79,-4.92 3.89,-6a1.21,1.21 0 0 0 0,-0.19l0,-65.28s0,0 0,-0.08a9.35,9.35 0 0 1 1.79,1.65c-72.47,7.41 -72.27,21.59 -72.49,28.88l72.5,48.17zm-0.47,-75.24c-1.1,0.36 -1.71,1.08 -2.93,0.56c-0.37,-3.14 1.92,-2.55 6,-2.53c2.05,0 5.7,-0.12 7.21,1.3c-75.33,-46.69 -79.77,-48.59 -82.78,-47.5l72.5,48.17zm17.94,-5.91c0.61,3.38 -0.54,4.52 -3.21,7.15c-2.4,-3.4 -4.86,-3.86 -9,-4.34c2.58,-2 6.64,-4.37 10.2,-4.2c-71.13,-48.21 -70.74,-48.18 -70.49,-46.78l72.5,48.17zm-3.57,-7.11c1.76,0.13 3.34,1.92 2.84,3.56c-4.44,0.19 -3.71,-0.29 -7.27,2.36c-1.62,1.21 -4.11,3.39 -6.32,3.09c-72.52,-49.6 -67.05,-53.48 -65.75,-54.6s2.11,-2.73 4,-2.58l72.5,48.17zm-70.09,7.11c1.93,-0.15 2.86,1.5 4.06,2.56s6.75,5 6.68,6.45c-2.2,0.3 -4.7,-1.88 -6.32,-3.09c-3.55,-2.65 -2.82,-2.17 -7.26,-2.36c-76.57,-56.92 -74.95,-58.71 -73.19,-58.84l76.03,55.28zm-0.32,14.26c-2.68,-2.63 -3.82,-3.77 -3.21,-7.15c0.25,-1.4 0.63,-1.43 2,-1.39c3.57,-0.17 7.63,2.19 10.21,4.2c-80.18,-54.8 -82.63,-54.34 -85.03,-50.94l76.03,55.28zm17.66,-0.68c-1.22,0.52 -1.83,-0.2 -2.93,-0.56c-3,-1.09 -7.45,0.81 -10.25,-0.67c1.51,-1.42 5.16,-1.29 7.21,-1.3c-71.98,-55.3 -69.69,-55.89 -70.06,-52.75l76.03,55.28zm-15.23,2.68c-1.71,-2.9 1.85,-1.31 0.19,-4.13c-2.74,-4.73 -12.28,-1.92 -7.13,-7.35c0.93,0.1 1.87,0.55 2.37,-0.52c-1.33,-0.11 -2.28,-0.71 -3.23,-0.54c-0.78,1.14 -0.11,1 -1.33,2.1a4.77,4.77 0 0 1 -2.43,-1.22c1.14,-0.78 1.65,-0.33 1.82,-1.53c-0.11,-1.36 -1,-1 -0.79,-2.59c3.88,-1.43 3.18,2.86 7.33,0.71c-0.63,-0.66 -1.54,-0.54 -3.17,-1.08c-1.47,-0.49 -1.48,-0.92 -2.54,-1.46c-3.64,1.42 -5.19,1.93 -9.33,0.93c5.3,-8.26 5.51,-2.38 11.64,-5.77c2.73,-1.75 4.67,-1.2 7.85,-1.18c2.64,0 5.89,-0.23 8.33,-0.15c-2.68,3.07 -7.75,2.94 -10.3,5.68c5.47,-1.86 6.41,-2.86 12.9,1.2c-3.46,2.65 -8.44,-0.1 -10.27,-0.15c10.07,4.48 13.13,11 15.15,21.68c2,-10.65 5.08,-17.2 15.15,-21.68c-1.83,0.05 -6.81,2.8 -10.27,0.15c6.49,-4.06 7.43,-3.06 12.9,-1.2c-2.55,-2.74 -7.63,-2.61 -10.3,-5.68c2.43,-0.08 5.69,0.17 8.33,0.15c3.18,0 5.12,-0.57 7.84,1.18c6.14,3.39 6.35,-2.49 11.64,5.77c-4.14,1 -5.68,0.49 -9.32,-0.93c-1.07,0.54 -1.07,1 -2.54,1.46c-1.63,0.54 -2.54,0.42 -3.18,1.08c4.16,2.15 3.46,-2.14 7.34,-0.71c0.16,1.59 -0.77,1.31 -0.68,2.66c0.07,1 0.57,0.68 1.71,1.46a4.81,4.81 0 0 1 -2.43,1.22c-1.22,-1.14 -0.55,-1 -1.33,-2.1c-0.95,-0.17 -1.9,0.43 -3.23,0.54c0.49,1.07 1.44,0.62 2.36,0.52c5.15,5.43 -4.38,2.62 -7.12,7.35c-1.66,2.82 1.9,1.23 0.18,4.13c-2.45,5.5 -1.29,14.18 3.89,17.74c-9.49,0 -12.68,-13.5 -6.15,-21.68c-1.72,0.51 -3.23,1.86 -4.91,2.17a12.83,12.83 0 0 1 0.14,-5.13c-2.07,1.6 -1.93,6.37 -1.79,8.8c0.89,-0.84 1.92,-2.57 3.09,-2.65c-0.18,2.31 -3.05,15.05 -4.18,16.41c-4.86,-4.56 -2,-11.57 -2,-17.39c-2.9,3 -1.14,12.69 -5.15,16.74c-4,-4 -2.25,-13.76 -5.15,-16.74c0,5.82 2.87,12.83 -2,17.39c-1.13,-1.36 -4,-14.1 -4.18,-16.41c1.17,0.08 2.2,1.81 3.09,2.65c0.14,-2.43 0.27,-7.2 -1.79,-8.8a13,13 0 0 1 0.14,5.13c-1.68,-0.31 -3.19,-1.66 -4.91,-2.17c6.53,8.18 3.34,21.67 -6.15,21.68c-53.17,-59.53 -52.02,-68.21 -54.47,-73.7l58.37,55.96zm-53.15,39.12c3.22,-7.35 3.93,-16.41 5.77,-23.91l0,0a21.51,21.51 0 0 1 1.43,-4.76c3.47,-6.7 11.11,-9.35 17,-4.53c3.43,2.51 6.73,1.33 10.17,2.21c7.54,2.74 5,9.71 14.81,10.28l0,18.76a9.83,9.83 0 0 1 -4.25,6c-3.47,-4.51 -2.53,-11.48 -2.8,-16.81c-1.12,4.47 -2.66,11.74 -7.32,13.72c-3.38,-5.52 -2.43,-10.2 -2.42,-16.3c-0.57,1.62 -1.81,6.88 -3.09,10.12c-1,2.59 -2.92,6.07 -5.3,7.43c-1.71,-1.73 -2.33,-7.6 -2.28,-10c0.11,-5 0.82,-9.08 0.72,-11.26c-1.44,4.41 -4.33,16.38 -9,17.89c-1.61,-2.45 -1.61,-6.86 -1.35,-9.76s1.37,-6.74 1.5,-9.4c-60.11,-50.34 -65.85,-37.47 -71.96,-35.64l58.37,55.96zm56.03,-9.24c0,-7 -0.3,-23.65 0.06,-29.41c3.11,-2.91 1.41,-0.91 5.2,-5c0.13,6.2 0.11,12.47 0.06,18.75a8,8 0 0 0 -0.65,1.75a2.66,2.66 0 0 0 0.62,3c0,7.52 -0.08,15 0.15,22.41c0.12,4 0.72,10.4 -1,13.8c-113.28,-29.55 -115.96,-27.14 -115.96,-42.14l111.52,16.84zm64.43,57.12c-28.23,0 -61.74,-23.33 -62.47,-48.69c-0.34,-11.62 4.12,-21.52 16.47,-21.49c14.52,1.11 16,21.76 1.6,17c1.65,5.33 17.32,7.6 26.15,-13.34l36.58,0l1.15,2.28l0,0c8.11,18 24.73,14.85 25.63,10.36a8.08,8.08 0 0 1 -2.1,1a16,16 0 0 1 -1.83,0.37c3,-1.09 5.51,-3.82 6.84,-5.55c1.68,2.33 2,3.58 1.18,6.66c-1.91,7.48 -10.7,7.18 -16.73,5.28a26.22,26.22 0 0 1 -13.94,-10.81c-0.79,-1.21 -2.46,-4.33 -3.15,-5.14l-139.41,0c-1.2,1.62 -2.27,4 -3.62,5.89a26.13,26.13 0 0 1 -17,11c-14.27,2.35 -14.92,-9.67 -11.61,-12.33c2.06,-1.66 4.86,-1.13 7.19,-0.51c1.68,-11.66 -13.34,-9.45 -17,1c-3.16,8.9 0.56,18.46 6,25.53a65.13,65.13 0 0 0 42.78,25.07c17.92,2.6 37.64,-3 51,-15.41c6,-5.54 11.77,-11.46 14.64,-19.29c2.32,-6.34 2.71,-14.91 -1.91,-19.94c-1,-1 -1.18,-1.16 -1.52,-1.51c0.29,-1.27 0.94,-3.68 1.18,-5l0,0a11,11 0 0 1 1.91,1.28a28.53,28.53 0 0 1 4.24,5.39a19.64,19.64 0 0 1 1.92,7.59c0,49.35 -38.34,66.28 -62.81,66.28l108.64,-12.97zm67.94,-86.73c0,15.46 -3.53,14.25 -4.38,25.14c-1.73,-2.79 -1.16,-10.5 -1.05,-14.06c0.16,-5.11 0.16,-10.15 0.16,-15.26c0,-5.3 -0.28,-27.12 0.06,-30.46a27.88,27.88 0 0 0 2.32,2.69c0.86,0.86 2,1.45 2.83,2.41c-108.22,22.51 -108.58,32.88 -108.58,42.51l108.64,-12.97zm-8.35,-44.4c-0.52,-1.62 -2.16,-6.74 -2.71,-7.85c0.34,5.61 4.13,10.6 0.68,21c-2.53,-1 -4.73,-5 -5.86,-7.57c-1.61,-3.62 -2.54,-8.36 -3.3,-10c0.12,4.19 2.06,16.76 -1.51,21c-4.5,-1.8 -7.31,-14 -8.51,-18.41c-0.1,3.34 0.52,6.16 0.1,9.78c-0.39,3.4 -0.81,5 -2.44,7.4c-2.1,-0.8 -3.86,-3.45 -4.8,-5.49c-1.77,-3.79 -1.79,-6.22 -2.54,-7.84c-0.09,5.51 0.44,11.77 -2.82,16.49a11.87,11.87 0 0 1 -4.72,-10c0,-0.74 0,-1.61 0,-2.56l0,0.62c9.67,-0.6 7.21,-7.53 14.73,-10.27c3.44,-0.88 6.73,0.3 10.17,-2.21c5.61,-4.57 12.7,-1.91 16.43,3.57a25.29,25.29 0 0 1 2.62,6.57q0,0.22 0.12,0.51c0.36,1.63 2.67,12.39 3.79,17.49c0.44,2 1.59,3.94 1.8,5c-112.97,-1.47 -118.65,-9.74 -119.87,-14.26l108.64,-12.97z" class="cls-1"/>
  <path fill="#ffffff" id="svg_108" d="m206.06,77.86l-1.38,0.35c1.15,3.67 3.09,12.54 5.17,14.71c-0.22,-3.46 -1.83,-8.58 -2.9,-12l-0.89,-3.06z" class="cls-1"/>
  <path fill="#ffffff" id="svg_109" d="m86.2,78.13l-1,-0.34c-1,1 -4.2,13.93 -4,15.22c1.11,-1.36 5.14,-13.25 5,-14.88z" class="cls-1"/>
  <path fill="#ffffff" id="svg_110" d="m196.78,80.88c-0.26,1.52 2.85,12.38 3.82,13.58c0.17,-2.2 -1.8,-11.68 -2.62,-13.9l-1.2,0.32z" class="cls-1"/>
  <path fill="#ffffff" id="svg_111" d="m94.34,81l-1.22,-0.51c-0.83,1.5 -2.88,12.18 -2.67,14c1.16,-1.97 3.63,-11.05 3.89,-13.49z" class="cls-1"/>
  <path fill="#ffffff" id="svg_112" d="m103.61,84.06l-1.15,-0.38c-0.88,1.57 -1.92,11.31 -1.84,13.43c1.38,-1.46 3.09,-12.02 2.99,-13.05z" class="cls-1"/>
  <path fill="#ffffff" id="svg_113" d="m187.41,84c-0.21,1.75 2,11.83 2.9,13.24c0.31,-1.73 -1,-12 -1.68,-13.51l-1.22,0.27z" class="cls-1"/>
  <path fill="#ffffff" id="svg_114" d="m112.85,87.18l-1.29,-0.38a50.89,50.89 0 0 0 -0.89,11.46c0.91,-1.18 2.33,-9.47 2.18,-11.08z" class="cls-1"/>
  <path fill="#ffffff" id="svg_115" d="m168.34,90.51c-0.22,1.56 1.38,9.77 2.21,11.11a51.57,51.57 0 0 0 -0.9,-11.51l-1.31,0.4z" class="cls-1"/>
  <path fill="#ffffff" id="svg_116" d="m178.1,87.22c-0.14,1.38 1.46,9.8 2.16,11c0.63,-1.56 -0.43,-9.26 -0.79,-11.39l-1.37,0.39z" class="cls-1"/>
  <path fill="#ffffff" id="svg_117" d="m122.94,90.69l-1.61,-0.53c-0.47,2.78 -1.26,9 -0.82,11.49c0.88,-1.52 2.25,-9.12 2.43,-10.96z" class="cls-1"/>
 </g>
</svg>